<svg id="Layer_1" data-name="Layer 1" xmlns="http://www.w3.org/2000/svg" viewBox="0 0 109.5 90.66"><defs><style>.cls-1{fill:#fff;}</style></defs><title>FULL_BASKET_BLANCA</title><path class="cls-1" d="M35,52.29h-.44a4.08,4.08,0,0,0-4.08,4.07v5.55a4.1,4.1,0,0,0,2.85,3.89,4.16,4.16,0,0,0,1.23.19H35a4,4,0,0,0,.86-.1,4.07,4.07,0,0,0,3.22-4V56.36c0-.1,0-.19,0-.29A4.09,4.09,0,0,0,35,52.29Zm-2.1,9.62V56.36a1.67,1.67,0,0,1,1.66-1.66H35a1.66,1.66,0,0,1,1.66,1.66v2.78L34,62.51a3.94,3.94,0,0,0-.44.73A1.64,1.64,0,0,1,32.89,61.91Z" transform="translate(-1.46 -0.85)"/><path class="cls-1" d="M56.49,52.29H56A4.08,4.08,0,0,0,52,56.36v5.55a4,4,0,0,0,.32,1.6,4.1,4.1,0,0,0,3.1,2.42A3.49,3.49,0,0,0,56,66h.45a4.08,4.08,0,0,0,4.07-4.08V56.36A4.08,4.08,0,0,0,56.49,52.29Zm1.66,9.62a1.66,1.66,0,0,1-1.66,1.66H56a1.66,1.66,0,0,1-1.66-1.66V56.36A1.67,1.67,0,0,1,56,54.7h.45a1.67,1.67,0,0,1,1.66,1.66Z" transform="translate(-1.46 -0.85)"/><path class="cls-1" d="M45.74,70H45.3a4.1,4.1,0,0,0-4,3.1,4.46,4.46,0,0,0-.12,1v5.54a4.08,4.08,0,0,0,4.08,4.08h.44a4.08,4.08,0,0,0,4.07-4s0-.06,0-.1V74.1A4.08,4.08,0,0,0,45.74,70Zm1.66,9.62a1.66,1.66,0,0,1-1.66,1.66H45.3a1.66,1.66,0,0,1-1.66-1.66V74.91l3.76,2.94Zm-2.94-7a1.58,1.58,0,0,1,.84-.23h.44A1.66,1.66,0,0,1,47.4,74.1V75Z" transform="translate(-1.46 -0.85)"/><path class="cls-1" d="M68.91,70.38A4.08,4.08,0,0,0,67.23,70h-.44a4.36,4.36,0,0,0-.51,0,4.09,4.09,0,0,0-3.57,4v5.54a4.08,4.08,0,0,0,4.08,4.08h.44a4.08,4.08,0,0,0,4.08-4.08V74.1A4.08,4.08,0,0,0,68.91,70.38Zm0,9.26a1.66,1.66,0,0,1-1.66,1.66h-.44a1.66,1.66,0,0,1-1.66-1.66V75.21l2.17-2.77a1.66,1.66,0,0,1,1.59,1.66Z" transform="translate(-1.46 -0.85)"/><path class="cls-1" d="M79.83,52.74A4,4,0,0,0,78,52.29h-.44a4.08,4.08,0,0,0-4.08,4.07v5.55A4.08,4.08,0,0,0,77.54,66H78a4.08,4.08,0,0,0,4.08-4.08V56.36a4.09,4.09,0,0,0-2.23-3.62Zm-4,3.62a1.66,1.66,0,0,1,1.66-1.66H78a1.43,1.43,0,0,1,.29,0l-2.39,3.06Zm3.76,5.55A1.66,1.66,0,0,1,78,63.57h-.44a1.66,1.66,0,0,1-1.66-1.66v-.44l3.76-4.8Z" transform="translate(-1.46 -0.85)"/><path class="cls-1" d="M110.39,75.91l-11.93-20L99.54,47h2.76a4.13,4.13,0,0,0,4.12-4.12V36.7a4.13,4.13,0,0,0-4.12-4.12H90.57A15.77,15.77,0,0,0,88.5,28l3-3.89,1.4-1.79,4-5.07,1.27,1L103.87,11a2.7,2.7,0,0,0-.46-3.79L96.07,1.42a2.7,2.7,0,0,0-3.79.46L86.59,9.16l1.27,1-4,5.07L82.49,17l-3.17,4a15.7,15.7,0,0,0-6.44-.63,15.46,15.46,0,0,0-10.55,5.9l-4.9,6.25H54.27A5.48,5.48,0,0,0,54.05,30a5.61,5.61,0,0,0-4.4-3.72,5.58,5.58,0,1,0-8.32-7.44,5.58,5.58,0,0,0-10.55,3.64c0,.09.07.19.11.28a5.53,5.53,0,0,0-3.19.12l-.08,0-.24-.05c-.18,0-3.84-.45-5.07-7.53a.92.92,0,1,0-1.81.31,18.6,18.6,0,0,0,1,3.63,16.63,16.63,0,0,0-5.73,4.69,14.34,14.34,0,0,0-4-.48A13.2,13.2,0,0,0,6.1,24.79a1,1,0,0,0-.44.6.9.9,0,0,0,.14.73l1.64,2.32c-5.75,2.92-5.21,10-5.21,10.09a.91.91,0,0,0,.43.69.9.9,0,0,0,.81.09l3.09-1.16v4.73A4.13,4.13,0,0,0,10.68,47h2.07l1.1,9.11L2,75.91A4,4,0,0,0,3.41,81.4l.62.37a3.92,3.92,0,0,0,2.05.57,4,4,0,0,0,3.44-2l6-10.11,1.71,14.23a8,8,0,0,0,7.9,7H87.09a8,8,0,0,0,7.9-7l1.75-14.43,6.16,10.31a4,4,0,0,0,3.44,2,3.92,3.92,0,0,0,2-.57l.62-.37A4,4,0,0,0,110.39,75.91ZM89.87,11.27a1.92,1.92,0,0,0-.1-2.48l4.3-5.51a.44.44,0,0,1,.6-.07L102,9a.43.43,0,0,1,.07.6l-4.31,5.5a1.92,1.92,0,0,0-2.43.5L91.15,20.9l-5.47-4.28Zm-5.59,7.14,5.47,4.28-2.52,3.22-2.32-1.82-.37-.29-2.78-2.17ZM64.12,27.73a13.39,13.39,0,0,1,19-2.14l.36.29a13.92,13.92,0,0,1,4.73,6.7H67.65c4.36-4.67,7.45-3.83,7.54-3.8A1.14,1.14,0,0,0,76,26.64c-.21-.08-5.15-1.75-11.29,5.94H60.32ZM55.54,35H102.3a1.71,1.71,0,0,1,1.7,1.7v6.18a1.7,1.7,0,0,1-1.7,1.7H91.69L90.16,42l-1.58-2.65-.34-.56a4,4,0,0,0-5.49-1.38l-.62.37a3.94,3.94,0,0,0-1.83,2.46,4,4,0,0,0,.44,3l.78,1.29H30.9l.78-1.29c.07-.12.13-.24.19-.37a4,4,0,0,0,.37-1.8,4.14,4.14,0,0,0-.12-.86,3.94,3.94,0,0,0-1.83-2.46l-.62-.37a4,4,0,0,0-5.49,1.38l-.49.81A7.32,7.32,0,0,0,23.15,35H55.54ZM97.07,47l-.66,5.49L93.13,47ZM14.42,44.58a14,14,0,0,0,3.5-4.11l3.17,2.32a.89.89,0,0,0,.61.17l-1,1.62ZM19.29,47l-3.41,5.71L15.19,47ZM20.9,31.8l2.84-1.39a1,1,0,0,0,.46-.49,5.51,5.51,0,0,0,1.93,2.66H21.62C21.37,32.29,21.13,32,20.9,31.8Zm31.41-1.25a3.71,3.71,0,0,1,.09,2H45.11a3.75,3.75,0,0,1,7.2-2ZM44.4,18.85a3.75,3.75,0,1,1-2.35,4.74A3.75,3.75,0,0,1,44.4,18.85Zm-1.62,10a3.74,3.74,0,0,1-.85,3.78H36.52a3.67,3.67,0,0,1-.84-1.38,3.75,3.75,0,1,1,7.1-2.4ZM34.87,17.1a3.75,3.75,0,1,1-2.35,4.75A3.76,3.76,0,0,1,34.87,17.1Zm-6.59,7.47a3.75,3.75,0,1,1-2.35,4.75A3.76,3.76,0,0,1,28.28,24.57Zm-6-3.7a7.89,7.89,0,0,0,3.29,3.26A5.59,5.59,0,0,0,24,28.9a19,19,0,0,0-6.36-4.37A14.92,14.92,0,0,1,22.29,20.87ZM4.07,37.12c.14-2,.95-5.91,5.08-7.42a.94.94,0,0,0,.56-.59.91.91,0,0,0-.13-.8L7.94,26a12.11,12.11,0,0,1,6.73-.46,18.31,18.31,0,0,0-1.86,4.25,22,22,0,0,0-.63,2.81A21.24,21.24,0,0,0,12,35a15,15,0,0,0,0,1.58.92.92,0,0,0,1.83-.14,13.82,13.82,0,0,1,0-1.44A22.34,22.34,0,0,1,14,32.58a20.63,20.63,0,0,1,.55-2.35,16.28,16.28,0,0,1,1.9-4.18,16.35,16.35,0,0,1,5.27,3.29l-2.88,1.4a.94.94,0,0,0-.52.74.93.93,0,0,0,.37.83l.34.27a10.07,10.07,0,0,1,2,2.42,5.7,5.7,0,0,1,.26,5.72L18.1,38.33a.91.91,0,0,0-1.41.44,11.94,11.94,0,0,1-5.64,5.81h0c-.46-.48-1.36-1.8-2-5q-.27-1.26-.48-2.94A.92.92,0,0,0,8.07,36a.94.94,0,0,0-.8-.07l-.67.25ZM17.11,63l-2,3.39L7.44,79.15a1.59,1.59,0,0,1-2.17.55l-.62-.37a1.59,1.59,0,0,1-.55-2.18L14.32,60l2-3.39L22.1,47l.06-.09,1.22-2,.17-.29,2.7-4.53a1.6,1.6,0,0,1,1.12-.75l.25,0a1.57,1.57,0,0,1,.81.22l.62.37a1.59,1.59,0,0,1,.72,1,1.53,1.53,0,0,1-.17,1.2l0,0-1.49,2.5-.17.28-1.23,2-.05.09ZM92.59,84.22a5.54,5.54,0,0,1-5.5,4.87H25.17a5.54,5.54,0,0,1-5.5-4.87L17.58,66.88,29.46,47H83l.59,1,1.25,2.09,9.9,16.58Zm15.18-4.89-.62.37a1.59,1.59,0,0,1-2.18-.55l-7.75-13-2-3.42L86.39,48l-.61-1-.06-.09-.57-1-.68-1.12-.14-.24-1.51-2.53a1.53,1.53,0,0,1-.17-1.2,1.59,1.59,0,0,1,.72-1L84,39.5a1.59,1.59,0,0,1,2.17.55l1.39,2.32,1.32,2.21,0,.05.11.19,1.25,2.09.06.09,5.62,9.42,2,3.42,10.34,17.31A1.59,1.59,0,0,1,107.77,79.33Z" transform="translate(-1.46 -0.85)"/></svg>