<svg id="Layer_1" data-name="Layer 1" xmlns="http://www.w3.org/2000/svg" viewBox="0 0 99.85 90.65"><defs><style>.cls-1{fill:#fff;}</style></defs><title>EMPTY_BASKET_BLANCA</title><path class="cls-1" d="M34.56,66H35a4.08,4.08,0,0,0,4.08-4.08V56.34A4.08,4.08,0,0,0,35,52.26h-.44a4.08,4.08,0,0,0-4.07,4.08v5.54A4.08,4.08,0,0,0,34.56,66ZM32.9,56.34a1.66,1.66,0,0,1,1.66-1.66H35a1.66,1.66,0,0,1,1.66,1.66v5.54A1.66,1.66,0,0,1,35,63.54h-.44a1.66,1.66,0,0,1-1.66-1.66Z" transform="translate(-6.57 -0.83)"/><path class="cls-1" d="M56.06,66h.44a4.08,4.08,0,0,0,4.08-4.08V56.34a4.08,4.08,0,0,0-4.08-4.08h-.44A4.08,4.08,0,0,0,52,56.34v5.54A4.08,4.08,0,0,0,56.06,66ZM54.4,56.34a1.66,1.66,0,0,1,1.66-1.66h.44a1.66,1.66,0,0,1,1.66,1.66v5.54a1.66,1.66,0,0,1-1.66,1.66h-.44a1.66,1.66,0,0,1-1.66-1.66Z" transform="translate(-6.57 -0.83)"/><path class="cls-1" d="M45.31,83.69h.44a4.08,4.08,0,0,0,4.08-4.07V74.07A4.08,4.08,0,0,0,45.75,70h-.44a4.08,4.08,0,0,0-4.08,4.08v5.55A4.08,4.08,0,0,0,45.31,83.69Zm-1.66-9.62a1.66,1.66,0,0,1,1.66-1.66h.44a1.66,1.66,0,0,1,1.66,1.66v5.55a1.66,1.66,0,0,1-1.66,1.66h-.44a1.66,1.66,0,0,1-1.66-1.66Z" transform="translate(-6.57 -0.83)"/><path class="cls-1" d="M66.8,83.69h.44a4.08,4.08,0,0,0,4.08-4.07V74.07A4.08,4.08,0,0,0,67.24,70H66.8a4.08,4.08,0,0,0-4.07,4.08v5.55A4.07,4.07,0,0,0,66.8,83.69Zm-1.66-9.62a1.66,1.66,0,0,1,1.66-1.66h.44a1.66,1.66,0,0,1,1.66,1.66v5.55a1.66,1.66,0,0,1-1.66,1.66H66.8a1.67,1.67,0,0,1-1.66-1.66Z" transform="translate(-6.57 -0.83)"/><path class="cls-1" d="M77.55,66H78a4.08,4.08,0,0,0,4.08-4.08V56.34A4.08,4.08,0,0,0,78,52.26h-.44a4.08,4.08,0,0,0-4.08,4.08v5.54A4.08,4.08,0,0,0,77.55,66Zm-1.66-9.62a1.66,1.66,0,0,1,1.66-1.66H78a1.66,1.66,0,0,1,1.66,1.66v5.54A1.66,1.66,0,0,1,78,63.54h-.44a1.66,1.66,0,0,1-1.66-1.66Z" transform="translate(-6.57 -0.83)"/><path class="cls-1" d="M102.31,32.56H84.81L67,2.78A4,4,0,0,0,61.54,1.4l-.62.37a4,4,0,0,0-1.39,5.49l15.11,25.3H37.81l15.1-25.3a3.92,3.92,0,0,0,.44-3,4,4,0,0,0-1.82-2.46l-.62-.37a4,4,0,0,0-5.49,1.38L27.64,32.56h-17a4.13,4.13,0,0,0-4.12,4.12v6.18A4.13,4.13,0,0,0,10.69,47h2l4.62,37.5a8,8,0,0,0,7.89,7H87.1a8,8,0,0,0,7.9-7L99.61,47h2.7a4.13,4.13,0,0,0,4.12-4.12V36.68A4.13,4.13,0,0,0,102.31,32.56ZM61.61,6a1.58,1.58,0,0,1-.18-1.2,1.56,1.56,0,0,1,.73-1l.62-.37a1.49,1.49,0,0,1,.81-.23A1.6,1.6,0,0,1,65,4L82,32.56,83.44,35l3.67,6.14a1.59,1.59,0,0,1-.55,2.18l-.62.37a1.59,1.59,0,0,1-2.18-.55L78.9,35l-1.45-2.42ZM76.08,35l5.61,9.38.12.2H30.63l.13-.2L36.36,35ZM47.49,4a1.61,1.61,0,0,1,1.37-.77,1.54,1.54,0,0,1,.81.23l.62.37a1.54,1.54,0,0,1,.72,1A1.62,1.62,0,0,1,50.84,6L35,32.56,33.55,35l-4.87,8.14a1.58,1.58,0,0,1-2.17.55l-.62-.37a1.59,1.59,0,0,1-.55-2.18L29,35l1.44-2.42ZM9,42.86V36.68a1.7,1.7,0,0,1,1.7-1.7h15.5l-2.93,4.9a4,4,0,0,0,.42,4.68h-13A1.71,1.71,0,0,1,9,42.86ZM92.6,84.19a5.55,5.55,0,0,1-5.5,4.88H25.18a5.53,5.53,0,0,1-5.49-4.88L15.2,47H97.08ZM104,42.86a1.7,1.7,0,0,1-1.7,1.7H88.77a4,4,0,0,0,.41-4.68L86.25,35h16.06a1.7,1.7,0,0,1,1.7,1.7Z" transform="translate(-6.57 -0.83)"/></svg>