<?xml version="1.0" encoding="utf-8"?>
<!-- Generator: Adobe Illustrator 22.0.0, SVG Export Plug-In . SVG Version: 6.00 Build 0)  -->
<svg version="1.1" id="Layer_1" xmlns="http://www.w3.org/2000/svg" xmlns:xlink="http://www.w3.org/1999/xlink" x="0px" y="0px"
	 viewBox="0 0 56.7 56.7" style="enable-background:new 0 0 56.7 56.7;" xml:space="preserve">
<style type="text/css">
	.st0{fill:#FFFFFF;}
</style>
<g>
	<path class="st0" d="M48.9,0.1H7.8c-4.2,0-7.6,3.4-7.6,7.6v41.2c0,4.2,3.4,7.6,7.6,7.6h41.2c4.2,0,7.6-3.4,7.6-7.6V7.7
		C56.6,3.5,53.1,0.1,48.9,0.1z M48.5,36.4c0,6.7-5.4,12.1-12.1,12.1H20.3c-6.7,0-12.1-5.4-12.1-12.1V20.3c0-6.7,5.4-12.1,12.1-12.1
		h16.1c6.7,0,12.1,5.4,12.1,12.1V36.4z"/>
	<path class="st0" d="M36.4,12H20.3c-4.6,0-8.3,3.7-8.3,8.3v16.1c0,4.6,3.7,8.3,8.3,8.3h16.1c4.6,0,8.3-3.7,8.3-8.3V20.3
		C44.6,15.8,40.9,12.1,36.4,12z M28.5,38.2c-5.5,0-9.9-4.4-9.9-9.9s4.4-9.9,9.9-9.9s9.9,4.4,9.9,9.9S34,38.2,28.5,38.2z M41.3,17.9
		c0,1.3-1.2,2.4-2.5,2.3c-1.3,0-2.4-1.2-2.3-2.5c0-1.3,1.2-2.4,2.5-2.3c1.3,0,2.3,1.1,2.3,2.4C41.3,17.8,41.3,17.9,41.3,17.9z"/>
	<path class="st0" d="M28.5,22c-3.5,0-6.3,2.8-6.3,6.3c0,3.5,2.8,6.3,6.3,6.3c3.5,0,6.3-2.8,6.3-6.3c0,0,0,0,0,0
		C34.8,24.8,32,22,28.5,22z"/>
</g>
</svg>
