<?xml version="1.0" encoding="utf-8"?>
<!-- Generator: Adobe Illustrator 22.0.0, SVG Export Plug-In . SVG Version: 6.00 Build 0)  -->
<svg version="1.1" id="Layer_1" xmlns="http://www.w3.org/2000/svg" xmlns:xlink="http://www.w3.org/1999/xlink" x="0px" y="0px"
	 viewBox="0 0 56.7 56.7" style="enable-background:new 0 0 56.7 56.7;" xml:space="preserve">
<style type="text/css">
	.st0{fill:#FFFFFF;}
</style>
<path class="st0" d="M48.9,0.1H7.8c-4.2,0-7.6,3.4-7.6,7.6v41.2c0,4.2,3.4,7.6,7.6,7.6h16.2V37.4h-7.2v-8.1h7.2V23
	c0-7,4.2-10.9,10.6-10.9c2.1,0,4.2,0.2,6.3,0.6v7h-3.6c-3.5,0-4.6,2.2-4.6,4.4v5.3h7.8l-1.3,8.1h-6.6v19.1h16.2
	c4.2,0,7.6-3.4,7.6-7.6V7.8C56.5,3.5,53.1,0.1,48.9,0.1z"/>
</svg>
