<svg id="Layer_1" data-name="Layer 1" xmlns="http://www.w3.org/2000/svg" viewBox="0 0 45.6 56.01"><defs><style>.cls-1{fill:#fff;}</style></defs><title>icono_logo_blanco</title><path class="cls-1" d="M42.54,14.25A25.65,25.65,0,0,0,33.68,3.91,23.22,23.22,0,0,0,20.43,0H0V56H20.12a23.54,23.54,0,0,0,13.61-4A25.66,25.66,0,0,0,42.6,41.56,31.18,31.18,0,0,0,45.6,28,31.75,31.75,0,0,0,42.54,14.25ZM13.32,48.15,4.49,50.31a.23.23,0,0,1-.14,0A.2.2,0,0,1,4.26,50l3.28-8.22a.22.22,0,0,0,0-.08.22.22,0,0,0-.24-.2L2.9,42.59a.21.21,0,0,1-.26-.14l-.37-1.56a.21.21,0,0,1,.14-.26L11,38.54a.19.19,0,0,1,.15,0,.2.2,0,0,1,.08.27l-3.4,8.29a.22.22,0,0,0,0,.08.23.23,0,0,0,.25.21l4.74-1.15h0a.21.21,0,0,1,.24.15l.38,1.52a.09.09,0,0,1,0,0A.16.16,0,0,1,13.32,48.15Zm12-7.52L13.12,43a.31.31,0,0,1-.19,0,.29.29,0,0,1-.12-.38l4.92-11a.29.29,0,0,0-.32-.4l-6.07,1.21h0a.26.26,0,0,1-.3-.23L10.59,30v0a.26.26,0,0,1,.23-.3l11.86-2.36a.36.36,0,0,1,.18,0,.29.29,0,0,1,.14.39L17.9,38.86a.29.29,0,0,0,.32.4l6.56-1.32h.09a.27.27,0,0,1,.23.29l.43,2.1A.37.37,0,0,1,25.27,40.63ZM41.44,25.48,25.23,32.74a.39.39,0,0,1-.26,0,.38.38,0,0,1-.28-.46l3.39-17a.39.39,0,0,0,0-.26.38.38,0,0,0-.51-.17l-8.12,3.57a.4.4,0,0,1-.52-.2l-1.34-2.88h0a.38.38,0,0,1,.2-.51l15.8-7.08a.41.41,0,0,1,.29,0,.4.4,0,0,1,.26.49l-3.6,17.1a.46.46,0,0,0,0,.2.42.42,0,0,0,.53.26l8.72-3.92a.4.4,0,0,1,.52.21l1.26,2.82,0,.07A.38.38,0,0,1,41.44,25.48Z" transform="translate(0 0)"/></svg>