<?xml version="1.0" encoding="utf-8"?>
<!-- Generator: Adobe Illustrator 22.0.0, SVG Export Plug-In . SVG Version: 6.00 Build 0)  -->
<svg version="1.1" id="Layer_1" xmlns="http://www.w3.org/2000/svg" xmlns:xlink="http://www.w3.org/1999/xlink" x="0px" y="0px"
	 viewBox="0 0 56.7 56.7" style="enable-background:new 0 0 56.7 56.7;" xml:space="preserve">
<style type="text/css">
	.st0{fill:#FFFFFF;}
</style>
<title>tw</title>
<g>
	<path class="st0" d="M48.9,0.1H7.8c-4.2,0-7.6,3.4-7.6,7.6v41.2c0,4.2,3.4,7.6,7.6,7.6h41.2c4.2,0,7.6-3.4,7.6-7.6V7.8
		C56.5,3.5,53.1,0.1,48.9,0.1z M47.7,16.9c-0.9,1.2-1.9,2.3-3.1,3.1c-0.2,0.1-0.5,0.3-0.5,0.5c0,6.3-1.6,12.7-6.2,17.3
		c-5.9,5.9-14.7,7.5-22.6,5.2c-1.5-0.4-3-1-4.4-1.8c-0.5-0.2-0.9-0.5-1.4-0.8c-0.1-0.1-0.2-0.2-0.1-0.2c0.1,0,0.2,0,0.5,0
		c2.2,0.2,4.4-0.1,6.5-0.8c1.1-0.4,3.6-1.2,4.3-2.3c-0.3-0.1-0.6-0.1-0.8-0.1c-2.9-0.5-5.3-2.5-6.3-5.3c-0.1-0.3,0-0.3,0.2-0.3
		c1,0.1,2,0.1,3-0.1c-0.4-0.1-0.7-0.2-1-0.3c-2.7-1.1-4.6-3.6-5-6.5c0-0.3,0-0.6,0-0.9c0-0.2,0.1-0.3,0.3-0.2c1,0.5,2,0.8,3.1,0.9
		c-0.3-0.3-0.7-0.6-1-0.9c-2.3-2.2-3.2-6.7-1.4-9.5c0.2-0.2,0.3-0.2,0.4,0c4.3,4.9,9.5,7.1,15.8,8.1c0.2,0,0.2,0,0.2-0.2
		c-0.2-1.1-0.2-2.2,0.1-3.3c0.3-1.1,0.8-2.2,1.6-3.1c0.7-0.9,1.6-1.6,2.6-2.2c1-0.5,2.1-0.8,3.3-0.9c1.2-0.1,2.3,0.1,3.4,0.5
		c0.8,0.4,1.5,0.8,2.2,1.4c0.1,0.1,0.3,0.3,0.4,0.4c0.1,0.1,0.2,0.1,0.3,0.1c1.6-0.4,3.1-1,4.6-1.8c0.1,0,0.1,0,0.2,0
		c0,0,0,0.1,0,0.2c-0.3,0.9-0.7,1.7-1.2,2.4c-0.4,0.5-1.3,1.6-1.9,1.7c1.3-0.2,2.6-0.6,3.9-1.1c0.2-0.1,0.2-0.1,0.2,0
		C47.9,16.5,47.9,16.8,47.7,16.9z"/>
</g>
</svg>
