<?xml version="1.0" encoding="utf-8"?>
<!-- Generator: Adobe Illustrator 22.0.0, SVG Export Plug-In . SVG Version: 6.00 Build 0)  -->
<svg version="1.1" id="Layer_1" xmlns="http://www.w3.org/2000/svg" xmlns:xlink="http://www.w3.org/1999/xlink" x="0px" y="0px"
	 viewBox="0 0 56.7 56.7" style="enable-background:new 0 0 56.7 56.7;" xml:space="preserve">
<style type="text/css">
	.st0{fill:#FFFFFF;}
</style>
<title>wa</title>
<g>
	<path class="st0" d="M38.1,13.5c-7.8-4.7-17.9-2.1-22.6,5.7c-3.1,5.2-3.1,11.8,0.1,17l0.4,0.7L14.4,43l6.1-1.6l0.7,0.4
		c7.8,4.7,17.9,2.1,22.6-5.7C48.5,28.3,45.9,18.1,38.1,13.5z M39.4,33.8c-0.7,1.5-2.1,2.5-3.7,2.7c-1.4,0.2-2.8-0.1-4-0.6
		c-1.2-0.4-2.4-1-3.5-1.7c-2.2-1.3-4.1-3.1-5.6-5.2c-0.4-0.6-0.9-1.3-1.2-2c-0.5-0.9-1-1.8-1.2-2.8c-0.1-0.4-0.1-0.8-0.2-1.2
		c0-1.6,0.7-3,1.9-4c0.7-0.6,1.7-0.7,2.5-0.4c0.8,0.7,1.4,1.5,1.7,2.5c0.4,0.7,0.6,1.5,0.5,2.3c-0.2,0.7-0.7,1.4-1.2,1.9
		c-0.3,0.3-0.4,0.8-0.1,1.1c1.5,2.6,3.8,4.5,6.5,5.7c0.3,0.2,0.7,0.1,0.9-0.2c0.5-0.6,1-1.8,1.7-2.1c1-0.2,2.1,0,2.9,0.7
		c0.8,0.4,2.1,1,2.4,1.9C39.6,32.9,39.6,33.4,39.4,33.8z"/>
	<path class="st0" d="M48.9,0.1H7.8c-4.2,0-7.6,3.4-7.6,7.6v41.2c0,4.2,3.4,7.6,7.6,7.6h41.2c4.2,0,7.6-3.4,7.6-7.6V7.8
		C56.5,3.5,53.1,0.1,48.9,0.1z M39.6,45.3c-6.1,3.4-13.4,3.4-19.5,0.2L9,48.4l2.9-11c-5.5-9.8-2-22.2,7.8-27.7
		c9.8-5.5,22.2-2,27.7,7.8C52.9,27.4,49.4,39.8,39.6,45.3z"/>
</g>
</svg>
