<?xml version="1.0" encoding="utf-8"?>
<!-- Generator: Adobe Illustrator 22.0.0, SVG Export Plug-In . SVG Version: 6.00 Build 0)  -->
<svg version="1.1" id="Layer_1" xmlns="http://www.w3.org/2000/svg" xmlns:xlink="http://www.w3.org/1999/xlink" x="0px" y="0px"
	 viewBox="0 0 198.4 255.1" style="enable-background:new 0 0 198.4 255.1;" xml:space="preserve">
<style type="text/css">
	.st0{fill:#FFFFFF;}
</style>
<g>
	<g>
		<g>
			<path class="st0" d="M102.4,21.1c0.4,0.3,0.8,0.6,1.2,0.8c0.3,0.2,0.7,0.3,1,0.4c0.5,0,0.8,0,1.2-0.1c0.8-0.1,0.7-0.4,0.4-0.8
				c-0.1-0.1-0.3-0.2-0.5-0.3c-0.3-0.1-0.5-0.3-0.8-0.4c-0.7-0.3-1.4-0.5-2.3-0.3C102.1,20.7,102,20.9,102.4,21.1z"/>
			<path class="st0" d="M105.8,35c-0.1,0-0.3,0.1-0.4,0.2c-0.8,0.5-1.6,0.3-2.4,0.4c0.2,0,0.4-0.1,0.6-0.1c0,0,0,0,0,0
				c-0.2,0-0.4,0-0.6,0c0,0,0,0,0,0c0.2-0.1,0.5-0.1,0.7-0.2c0,0,0,0,0,0c-0.3,0-0.7,0.1-1,0.1c0,0,0,0,0,0c0.1,0,0.3-0.1,0.4-0.1
				c-0.5,0.1-1,0-1.5-0.2c0-0.1,0-0.3,0-0.4c-0.1,0.1-0.2,0.3-0.3,0.4c-0.4,0.3-0.8,0.4-1.3,0.4c-1.1-0.2-2-0.5-2.6-1.5
				c-0.3-0.6-0.3-0.6,0.1-1c-0.4-0.3-0.5-0.3-0.5-0.6c0.3,0.1,0.6,0.1,0.9-0.2c-0.1,0-0.2,0-0.2,0c-0.4,0.1-0.7,0-0.9-0.4
				c-0.3-0.5-0.6-1.1-0.6-1.8c-0.1,0.2-0.2,0.3-0.4,0.5c-0.2-0.5-0.5-1-0.7-1.4C95,28.6,95,28.4,95,28.2c0-0.7,0.1-1.3,0.2-2
				c0-0.1,0-0.2,0-0.2c-0.1,0-0.3,0-0.3,0c-0.1-0.1-0.1-0.2-0.1-0.3c0-0.2,0.1-0.4,0.2-0.5c0.2-0.5,0.3-1,0.6-1.5
				c0.6-0.9,1.3-1.7,2.3-2.3c0.1-0.1,0.2-0.1,0.1-0.3c0,0-0.2,0-0.3,0c-0.4,0.2-0.7,0.5-1,0.8c-0.8,0.8-1.5,1.7-2.1,2.6
				c-0.5,0.7-0.9,1.5-0.9,2.5c0,0,0,0.1,0,0.1c-0.3,0.6,0,1.3,0,1.9c0,0.2,0.1,0.3,0.2,0.5c0.1-0.2,0.2-0.4,0.3-0.6
				c0.1,0.1,0.1,0.1,0.1,0.1c0,0,0.1,0.1,0.1,0.1c0.4,0.6,0.3,1.4,0.3,2.1c0,0.2-0.2,0.2-0.3,0.1c-0.1-0.1-0.3-0.2-0.4-0.3
				c0.3,0.7,0.6,1.5,0.9,2.2c0.2,0.4,0.5,0.6,0.8,0.9c0.3,0.2,0.4,0.4,0.7,0.6c0.1,0.1,0.3,0.3,0.4,0.4c0.4,0.3,0.8,0.5,1.1,0.8
				c0.1,0.1,0.2,0.1,0.3,0.2c0.6,0.2,1.1,0.4,1.7,0.6c0.2,0.1,0.4,0.1,0.6,0.1c0,0,0,0,0-0.1c-0.2-0.1-0.3-0.1-0.5-0.2
				c0,0,0-0.1,0-0.1c0.7-0.1,1.4-0.1,2.1-0.1c0.7,0,1.4,0,2.1,0c-0.1,0.3-0.1,0.3-0.3,0.3c-0.2,0-0.5,0-0.7,0
				c-0.7-0.1-1.4-0.2-2.1-0.1c-0.1,0-0.1,0-0.2,0.1c0,0,0,0.1,0,0.1c0.2,0.1,0.3,0.1,0.5,0.2c0.4,0.3,0.9,0.3,1.4,0.1
				c0.1-0.1,0.3-0.1,0.4-0.1c0.6,0,1.3-0.1,1.9-0.3c0.4-0.2,0.8-0.3,1.2-0.5c0.2-0.1,0.4-0.2,0.5-0.4c0.4-0.6,0.8-1.2,1.2-1.9
				c0.1-0.1,0.2-0.3,0.2-0.4c-0.1,0-0.2,0.1-0.2,0.2C107.4,34.3,106.7,34.7,105.8,35z M94.4,25.3c-0.3,0.4-0.4,0.8-0.3,1.2
				c0,0.2,0,0.3-0.1,0.5c-0.3-1.3,0.3-2.2,1.1-3c-0.1,0.2-0.3,0.4-0.4,0.6C94.6,24.9,94.5,25.1,94.4,25.3z M96.2,32.8
				c-0.1,0-0.1-0.1-0.2-0.2c0,0,0.1-0.1,0.1-0.1c0.1,0,0.1,0.1,0.2,0.2C96.3,32.8,96.3,32.9,96.2,32.8z M97.6,35
				c-0.1-0.2-0.1-0.4-0.2-0.5c-0.1-0.1-0.3-0.2-0.5-0.3c0.2-0.2,0.4-0.1,0.7,0.2C97.7,34.7,97.8,34.9,97.6,35z M104.8,36.4
				c0.7-0.4,1.3-0.9,2-1.3c0,0,0,0.1,0.1,0.1C106.3,35.9,105.6,36.2,104.8,36.4z"/>
			<path class="st0" d="M97.6,33.8c0.3,0.3,0.7,0.6,1.1,0.9c0.3,0.2,0.6,0.3,0.9,0.4c0.4-0.1,0.7-0.1,1-0.2c0.7-0.2,0.6-0.5,0.3-1
				c-0.1-0.1-0.3-0.2-0.5-0.3c-0.2-0.1-0.4-0.3-0.7-0.4c-0.6-0.3-1.3-0.5-1.9-0.1C97.4,33.2,97.3,33.5,97.6,33.8z"/>
			<path class="st0" d="M110.7,27.9c-0.1-0.1-0.1-0.1-0.2-0.2c-0.1,0.1-0.1,0.2-0.1,0.2c0,0.1,0,0.3,0,0.4c0,1.5-0.4,2.9-1.2,4.2
				c0,0.1-0.1,0.1-0.1,0.2c0,0.1,0,0.2,0,0.2c0.1,0,0.2,0,0.2,0c0.1,0,0.1-0.1,0.1-0.2c0.8-1.3,1.3-2.7,1.3-4.2
				C110.7,28.3,110.7,28.1,110.7,27.9C110.7,27.9,110.7,27.9,110.7,27.9z"/>
			<path class="st0" d="M97.7,30.8c-0.2-0.4-0.6-0.6-1-0.7c-0.3,0-0.4,0.1-0.3,0.3c0.1,0.3,0.2,0.5,0.4,0.8c0.2,0.3,0.5,0.5,0.8,0.5
				c0.4,0,0.5-0.1,0.5-0.4C97.9,31.1,97.8,31,97.7,30.8z"/>
			<path class="st0" d="M94.4,31.2c0,0,0.1-0.1,0.1-0.2c0-0.2,0-0.3,0-0.5c0-0.3-0.1-0.6-0.3-0.8c-0.4,0.4-0.3,1.2,0.1,1.5
				C94.3,31.2,94.3,31.3,94.4,31.2z"/>
			<path class="st0" d="M102,18.7c-5.5,0-10,4.5-10,10s4.5,10,10,10c5.5,0,10-4.5,10-10S107.5,18.7,102,18.7z M102,37.5
				c-4.9,0-8.9-4-8.9-8.9s4-8.9,8.9-8.9c4.9,0,8.9,4,8.9,8.9S106.9,37.5,102,37.5z"/>
		</g>
		<g>
			<path class="st0" d="M126.4,70.3c2.7,0.6,6.1-2,6.6-4.7c0-0.3-0.3-0.4-0.5-0.2c-0.7,0.9-1.1,1.9-1.9,2.7
				c-1.1,1.2-2.5,1.9-4.1,1.8C126.3,69.9,126.2,70.2,126.4,70.3z"/>
			<path class="st0" d="M132.3,65.9c-1.6,2.4-0.3,6.3,2.3,7.2c0.5,0.2,0.8-0.5,0.3-0.7c-1.6-0.7-2.3-1.9-2.4-3.7
				c-0.1-0.9,0.2-1.8,0.2-2.7C132.7,65.8,132.4,65.7,132.3,65.9z"/>
			<path class="st0" d="M124.6,69.9c1.5,0.6,2.6,1.3,3.3,2.8c0.6,1.3,0.3,2.6,0.5,4c0,0.3,0.4,0.3,0.5,0.1c1.5-2.7-1-7.2-4.1-7.2
				C124.4,69.5,124.4,69.9,124.6,69.9z"/>
			<path class="st0" d="M128.6,76.5c0.9-0.8,1.8-1.8,2.9-2.4c1.4-0.8,2.7-0.6,4.3-0.5c0.3,0,0.4-0.3,0.1-0.5c-2.7-1.6-6.2,0.7-7.7,3
				C128.1,76.3,128.3,76.7,128.6,76.5z"/>
			<path class="st0" d="M137.5,73.9c0.3,0.2,0.7,0.4,1,0.7c0.3,0.2,0.5,0.5,0.7,0.6c0.1,0.1,0.3,0,0.3-0.1c0.3-0.8-1.3-1.4-1.8-1.6
				C137.5,73.2,137.2,73.7,137.5,73.9z"/>
			<path class="st0" d="M132.4,76.1c0.2,0.3,0.3,0.6,0.4,1c0.1,0.3,0.1,0.7,0.2,1c0.1,0.2,0.4,0.2,0.4,0c0.3-0.7-0.2-1.7-0.5-2.3
				C132.7,75.4,132.2,75.8,132.4,76.1z"/>
			<path class="st0" d="M127.8,78c-0.2,0.6-0.5,1.3-0.8,1.9c-0.3,0.6-0.7,1.2-0.9,1.8c-0.1,0.2,0.2,0.5,0.4,0.2
				c0.5-0.6,0.8-1.3,1.1-1.9c0.3-0.6,0.5-1.2,0.7-1.9C128.4,77.8,127.9,77.7,127.8,78z"/>
			<path class="st0" d="M124.1,74.9c0.2-0.1,0.5-0.3,0.8-0.3c0.2-0.1,0.5,0,0.7-0.1c0.2-0.1,0.2-0.4,0-0.4c-0.6-0.3-1.3,0.1-1.9,0.4
				C123.4,74.7,123.7,75.1,124.1,74.9z"/>
			<path class="st0" d="M119,66.5c0.7,0.3,1.5,0.5,2.2,0.8c0.7,0.2,1.4,0.5,2.1,0.6c0.3,0,0.4-0.3,0.1-0.4c-0.6-0.4-1.4-0.5-2.1-0.8
				c-0.7-0.2-1.4-0.4-2.2-0.7C118.9,66,118.7,66.4,119,66.5z"/>
			<path class="st0" d="M125.9,65.3c0.1,0.5,0.5,1.2,1,1.6c0.2,0.1,0.4,0,0.4-0.3c-0.2-0.5-0.6-1-0.8-1.5
				C126.3,64.7,125.8,64.9,125.9,65.3z"/>
			<path class="st0" d="M136,58c-0.1,1.4-0.7,2.8-0.9,4.2c0,0.3,0.3,0.4,0.4,0.1c0.7-1.3,1-2.9,1.1-4.3C136.6,57.7,136,57.7,136,58z
				"/>
			<path class="st0" d="M136,68.6c0.5-0.1,1-0.2,1.5-0.2c0.4-0.1,0.9-0.1,1.3-0.4c0.2-0.1,0.1-0.4-0.1-0.4c-0.4-0.1-1,0.1-1.4,0.2
				c-0.5,0.1-0.9,0.2-1.4,0.3C135.5,68.1,135.6,68.6,136,68.6z"/>
		</g>
		<g>
			<path class="st0" d="M68.6,137.2c2.3-1.8,2.4-6.3,0.4-8.4c-0.2-0.2-0.5,0-0.5,0.2c0.2,1.1,0.8,2.2,1,3.3c0.2,1.7-0.1,3.3-1.2,4.5
				C68.1,137.1,68.4,137.4,68.6,137.2z"/>
			<path class="st0" d="M68.8,129.6c0.9,2.8,4.9,4.3,7.4,2.8c0.4-0.3,0.1-1-0.4-0.7c-1.6,0.8-3.1,0.6-4.6-0.4
				c-0.8-0.6-1.3-1.3-2.1-1.9C69,129.2,68.7,129.4,68.8,129.6z"/>
			<path class="st0" d="M67.1,138.5c1.4-0.8,2.8-1.3,4.4-0.9c1.5,0.4,2.3,1.4,3.5,2.2c0.2,0.1,0.5-0.1,0.4-0.3
				c-1.3-3-6.6-3.9-8.6-1.3C66.6,138.4,66.9,138.7,67.1,138.5z"/>
			<path class="st0" d="M75,139.5c-0.1-1.3-0.3-2.6-0.1-3.9c0.3-1.7,1.3-2.6,2.4-3.8c0.2-0.2,0-0.5-0.3-0.4
				c-3.1,1.2-3.4,5.5-2.6,8.2C74.5,139.8,75,139.9,75,139.5z"/>
			<path class="st0" d="M78.7,130.6c0.4-0.1,0.8-0.3,1.2-0.4c0.3-0.1,0.7-0.1,1-0.2c0.1-0.1,0.2-0.2,0.1-0.4c-0.4-0.7-2,0.1-2.5,0.4
				C78.2,130.2,78.3,130.7,78.7,130.6z"/>
			<path class="st0" d="M77.2,136.1c0.4,0,0.7,0.2,1,0.3c0.3,0.1,0.6,0.4,0.9,0.5c0.2,0.1,0.4-0.2,0.3-0.3c-0.4-0.7-1.5-1-2.2-1
				C76.9,135.5,76.8,136.1,77.2,136.1z"/>
			<path class="st0" d="M75.8,141.2c0.4,0.6,0.7,1.2,1,1.8c0.3,0.6,0.5,1.4,0.9,1.9c0.1,0.2,0.5,0.1,0.5-0.2
				c-0.1-0.7-0.5-1.5-0.8-2.2c-0.3-0.6-0.7-1.3-1.1-1.8C76,140.5,75.6,140.9,75.8,141.2z"/>
			<path class="st0" d="M70.8,142.2c0-0.3,0.1-0.6,0.2-0.8c0.1-0.2,0.3-0.4,0.4-0.7c0.1-0.2-0.2-0.4-0.3-0.3
				c-0.6,0.3-0.8,1.1-0.9,1.8C70.2,142.6,70.8,142.6,70.8,142.2z"/>
			<path class="st0" d="M60.7,140.8c0.7-0.4,1.4-0.9,2.1-1.3c0.6-0.4,1.3-0.8,1.9-1.3c0.2-0.2,0-0.5-0.3-0.4c-0.7,0.3-1.4,0.8-2,1.2
				c-0.7,0.4-1.3,0.9-1.9,1.3C60.2,140.5,60.4,141,60.7,140.8z"/>
			<path class="st0" d="M64.2,134.4c0.5,0.2,1.3,0.4,1.9,0.2c0.2-0.1,0.2-0.4,0-0.5c-0.5-0.2-1.2-0.1-1.8-0.3
				C64,133.7,63.8,134.3,64.2,134.4z"/>
			<path class="st0" d="M64.8,121.4c1.1,1,1.8,2.4,2.8,3.5c0.2,0.2,0.5,0,0.4-0.3c-0.6-1.4-1.7-2.7-2.8-3.7
				C64.9,120.8,64.6,121.2,64.8,121.4z"/>
			<path class="st0" d="M73.4,128.4c0.2-0.5,0.5-0.9,0.8-1.4c0.2-0.4,0.5-0.8,0.5-1.3c0-0.2-0.3-0.4-0.4-0.2
				c-0.4,0.3-0.6,0.8-0.8,1.2c-0.2,0.4-0.5,0.9-0.6,1.4C72.8,128.4,73.2,128.7,73.4,128.4z"/>
		</g>
		<path class="st0" d="M150.9,92.3c-0.2-1.3-0.6-2.6-1.3-3.7c-0.3-0.5-0.7-1.1-1.1-1.5c-1.8-2.1-4.5-3.4-7.5-3.4
			c-1.6,0-3.1,0.4-4.5,1.1c-0.7,0.3-1.3,0.8-1.9,1.2c-0.7,0.6-1.3,1.2-1.8,2c-0.9,1.3-1.5,2.8-1.7,4.5c0,0.4-0.1,0.8-0.1,1.2
			c0,0.3,0,0.6,0,0.9c0.1,1.2,0.4,2.4,0.9,3.4c0.4,0.7,0.8,1.4,1.3,2c0.5,0.6,1,1.1,1.6,1.5c1.7,1.3,3.8,2.1,6.1,2.1
			c1,0,1.9-0.1,2.8-0.4c0.5-0.2,1.1-0.4,1.6-0.6c0.2-0.1,0.5-0.2,0.7-0.4c0.5-0.3,0.9-0.6,1.4-1c0.4-0.4,0.9-0.8,1.2-1.3
			c0.4-0.4,0.7-0.9,1-1.4c0.5-1,0.9-2,1.1-3.1c0.1-0.6,0.2-1.2,0.2-1.8C151,93.2,151,92.8,150.9,92.3z M141.1,84.7
			c2.4,0,4.6,1,6.2,2.5c-3.1,0.3-6.2-0.9-9.2-2C139,84.9,140,84.7,141.1,84.7z M132.2,93.6c0-0.3,0-0.7,0.1-1c0.8,0.1,1.7,0.2,2.5,0
			c1.2-0.2,2.8-0.8,3.2-2c0.5-1.5-0.9-2.4-2.2-2.7c-0.5-0.1-0.9-0.1-1.4-0.1c0.4-0.5,0.9-0.9,1.3-1.3c0.7,0.4,1.3,0.8,2,1.3
			c1.2,0.8,2.7,1.1,4.1,1.5c1.3,0.4,2.8,1.1,4.2,0.9c0.9-0.1,1.8-0.5,2.7-1c0.6,1,0.9,2,1.1,3.2c-2.9-0.1-5.8-0.7-8.7-0.5
			c-1,0.1-2,0.3-2.9,0.9c-1.2,0.7-2.2,1.2-3.6,1.4c-0.8,0.1-1.6,0.2-2.5,0.3C132.2,94.1,132.2,93.9,132.2,93.6z M141.1,102.5
			c-1.6,0-3.1-0.4-4.3-1.1c0.7,0,1.4,0,2.1,0.2c1.3,0.3,2.7,0.3,3.9,0.8C142.2,102.4,141.6,102.5,141.1,102.5z M148.6,98.3
			c-0.3,0-0.5-0.1-0.8-0.1c-0.6,0-1.3-0.1-1.9,0.2c-1,0.6-0.5,1.7-0.2,2.7c-0.3,0.2-0.7,0.4-1.1,0.6c-1-0.9-2.5-1.3-4-1.5
			c-1.3-0.2-2.6-0.6-3.9-0.6c-0.7,0-1.3,0.1-2,0.2c-0.6-0.6-1.1-1.2-1.5-2c1.5,0,2.8,0.2,4.4,0.7c1.8,0.6,3.8,0.4,5.7,0
			c0.5-0.1,1.1-0.3,1.5-0.7c0.7-0.7,0.6-1.6,1.8-1.9c0.9-0.2,1.8-0.1,2.8-0.3c0.1,0,0.2,0,0.3-0.1C149.5,96.6,149.1,97.5,148.6,98.3
			z"/>
		<path class="st0" d="M159.7,21.4c0,0-0.1-0.4-0.1-0.6c-0.1-0.3-0.1-0.5-0.2-0.7c-0.1-0.2-0.1-0.4-0.2-0.6
			c-0.1-0.3-0.3-0.6-0.4-0.9c-0.1-0.2-0.2-0.4-0.4-0.6c-1.6-2.5-4.3-3.9-7.3-3.9c-2.2,0-4.3,0.8-6,2.4c-0.2,0.2-0.4,0.4-0.6,0.6
			c-0.3,0.3-0.6,0.7-0.8,1.1c-0.1,0.2-0.3,0.4-0.4,0.7c-0.2,0.3-0.3,0.7-0.4,1c-0.1,0.2-0.1,0.4-0.2,0.6c-0.1,0.2-0.1,0.5-0.2,0.7
			c0,0.2-0.1,0.4-0.1,0.6c-0.1,0.4-0.1,0.8-0.1,1.1c0,0.1,0,0.1,0,0.2l0,0.1c0,0.2,0,0.4,0,0.6c0,0.3,0.1,0.6,0.1,1
			c0,0.2,0.1,0.4,0.2,0.6c0.1,0.2,0.1,0.4,0.2,0.6c0.1,0.2,0.2,0.4,0.3,0.6c0.2,0.5,0.5,0.9,0.7,1.3c0.2,0.2,0.3,0.4,0.5,0.6
			c0.2,0.2,0.4,0.5,0.6,0.7c0.2,0.2,0.5,0.4,0.7,0.6c0.4,0.3,0.8,0.6,1.2,0.8c0.4,0.2,0.7,0.4,1.1,0.5c1,0.4,2,0.5,3,0.5
			c3.5,0,6.7-2.1,8-5.4c0.1-0.2,0.2-0.4,0.2-0.6c0.1-0.3,0.2-0.6,0.2-0.9c0-0.2,0.1-0.4,0.1-0.6c0-0.2,0-0.4,0.1-0.6
			c0-0.2,0-0.4,0-0.6C159.8,22.3,159.7,21.8,159.7,21.4z M149.7,27.1c0-0.2,0-0.5-0.2-0.7c-0.5-0.6-2.4-0.9-5.7-0.9
			c0-0.1-0.1-0.2-0.1-0.2c3.4,0.1,5.6,0.5,6.3,1.3c0.2,0.2,0.2,0.3,0.2,0.6c-0.1,1.2-2.6,1.5-4.2,1.6c-0.1-0.1-0.2-0.2-0.3-0.3
			C148.3,28.3,149.6,27.9,149.7,27.1z M151.2,27.2c0.1-0.5-0.1-0.9-0.5-1.3c-1.2-1.2-4.5-1.5-7.2-1.6c0-0.2-0.1-0.4-0.1-0.6
			c2.7,0,6.1,0.3,7.6,1.7c0.5,0.5,0.7,1,0.6,1.7c-0.1,0.7-0.4,1.3-0.9,1.8c-0.6,0.5-1.4,0.8-2.5,1c-0.3-0.1-0.6-0.3-0.9-0.4
			C149.8,29.2,151.1,28.4,151.2,27.2z M151.3,29.7c0.8-0.6,1.2-1.4,1.3-2.4c0.1-1-0.2-1.8-0.9-2.4c-1.7-1.7-5.4-2-8.3-2
			c0,0,0,0,0-0.1c0-0.3,0-0.5,0-0.8c0.8,0.1,1.6,0.2,2.4,0.2c0,0,0,0,0,0c1.7,0,2.9-0.3,3.7-0.9c0.6-0.4,0.9-1,0.9-1.7
			c0.1-0.7-0.2-1.3-0.7-1.8c-0.6-0.6-1.7-1-3.2-1.2c1.3-1,2.9-1.5,4.6-1.5c2.3,0,4.6,1.1,6,2.9c-1.6,0-3.6,0.3-4.9,1.3
			c-0.8,0.6-1.2,1.4-1.3,2.4c-0.1,0.9,0.2,1.8,0.9,2.5c1.1,1.1,3.2,1.8,6.3,2.1c-1.3,2.7-4,4.4-7,4.4c-0.4,0-0.7,0-1.1-0.1
			C150.5,30.2,150.9,29.9,151.3,29.7z M148.2,19.1C148.2,19.1,148.2,19.1,148.2,19.1c0,0.1,0,0.1-0.1,0.2c-0.5,0.4-2,0.5-4.1,0.3
			c0.1-0.3,0.2-0.5,0.4-0.8C146.4,18.7,147.9,18.8,148.2,19.1z M151.9,21.6c0.1-0.7,0.4-1.3,1-1.8c1.1-0.9,3-1.1,4.5-1.1
			c0.1,0,0.3,0,0.4,0c0.1,0.2,0.2,0.4,0.3,0.6c-2.6,0-5.7,0.4-5.9,2.4c-0.1,0.5,0.1,0.9,0.5,1.3c0.8,0.9,2.8,1.4,6,1.5
			c0,0.2-0.1,0.3-0.1,0.5c-2.9-0.2-5-0.8-6-1.8C152,22.9,151.8,22.3,151.9,21.6z M158.7,21.6c0,0.3,0.1,0.6,0.1,0.9
			c-2.6-0.1-4-0.3-4.2-0.5C154.9,21.8,156.3,21.5,158.7,21.6z"/>
		<g>
			<path class="st0" d="M63.2,185.8c-0.1-0.3-0.2-0.5-0.2-0.7c-0.3-0.9-0.8-1.8-1.4-2.5c-0.2-0.3-0.5-0.6-0.8-0.8
				c-1.7-1.7-4-2.6-6.3-2.6c-5.1,0-9.2,4.1-9.2,9.2c0,5.1,4.1,9.2,9.2,9.2s9.2-4.1,9.2-9.2C63.5,187.5,63.4,186.6,63.2,185.8z
				 M56.3,182c-0.4,0.1-1.3,0.6-2.2,1l-0.6,0.3c-0.3-0.3-0.8-0.7-1.2-0.7c-0.4,0-0.9,0.2-1.6,0.4l-0.1,0c-0.1,0-0.2,0.1-0.2,0.1
				c-0.3,0-0.5,0.3-0.5,0.6c0,0.3,0.3,0.6,0.6,0.6c0.1,0,0.2,0,0.5-0.1c0.3-0.1,1-0.3,1.2-0.3c0,0,0.1,0,0.2,0.1c0,0,0,0,0,0
				c0,0-0.1,0-0.3,0.1c-1.7,0.6-3.3,1.3-3.3,2.4c0,0,0,0.1,0,0.1c0.2,0.9,1.4,1,2.5,1c0.7,0,1.7,0.1,2,0.3c2.1,2.5,2.6,2.6,4.1,2.7
				c0.1,0,0.2,0,0.4,0c1-0.1,1.2-0.1,1.3-0.1c0.2,0.1,0.4,0.1,0.6,0c0.2,0,0.4-0.2,0.5-0.3c0.7-0.6,0.9-1.5,1-2.3
				c0-0.2,0.1-0.4,0.1-0.6c0-0.1,0.1-0.3,0.1-0.3c0.1-0.1,0.2-0.1,0.3-0.2l0.5-0.2c0.2,0.6,0.2,1.3,0.2,1.9c0,4.4-3.6,8.1-8.1,8.1
				c-4.4,0-8.1-3.6-8.1-8.1c0-4.4,3.6-8.1,8.1-8.1c1.6,0,3.2,0.5,4.5,1.4C57.6,181.7,56.5,181.9,56.3,182z"/>
			<path class="st0" d="M48.4,188.6c-0.2,0.3-0.2,0.7-0.2,0.8c0,0.1,0,0.3,0,0.4c0,0.2,0,0.4,0,0.7c0,0.4,0.3,0.9,0.6,1.1
				c0.2,0.2,0.4,0.2,0.6,0.3l0.9,0.2c0.1,0.5,0.2,1.1,0.1,1.6l0,0.1c0,0.1-0.1,0.3-0.1,0.4c0,0.4,0.2,0.9,0.7,1.2
				c0.3,0.2,0.7,0.3,0.9,0.3c0,0,0.1,0,0.1,0c0.1,0,0.1,0,0.2,0c0.7,0,1.3-0.4,1.6-1c0.4-0.7,0.4-1.5,0.1-2.3c0-0.1-0.1-0.1-0.1-0.2
				c-0.1-0.1-0.1-0.2-0.1-0.3c0,0,0,0,0,0c0,0,0.1,0,0.1,0l0.8-0.2c0.3-0.1,0.4-0.3,0.4-0.5c0-0.3-0.2-0.5-0.4-0.6v0
				c-0.7-0.2-1.3-0.7-1.9-1.6l0-0.1c-0.2-0.3-0.4-0.6-0.8-0.8c-0.2-0.1-0.4-0.1-0.6-0.1c-0.7,0-1.4,0.1-2.1,0.1
				C49.1,188.3,48.7,188.3,48.4,188.6z"/>
			<path class="st0" d="M58.6,192.8c0,0,0.2,0.1,0.4,0.2l0.2,0.4c0.1,0.2,0.3,0.3,0.5,0.3c0.1,0,0.1,0,0.2,0
				c0.3-0.1,0.4-0.4,0.3-0.7l-0.3-0.6c-0.1-0.1-0.2-0.2-0.3-0.3c-0.8-0.4-0.9-0.4-1-0.4c-0.3,0-0.6,0.3-0.6,0.6
				C58.1,192.5,58.4,192.8,58.6,192.8z"/>
			<path class="st0" d="M60,192.2c0.1,0.1,0.2,0.1,0.3,0.1c0.2,0,0.3-0.1,0.4-0.2l0.4-0.4c0.1-0.2,0.2-0.4,0.1-0.6
				c-0.1-0.2-0.3-0.3-0.5-0.3h-1c-0.2,0-0.5,0.2-0.5,0.4c-0.1,0.2,0,0.5,0.2,0.6L60,192.2z"/>
		</g>
		<path class="st0" d="M110.5,175.5c-0.1-0.3-0.2-0.6-0.3-1c-0.3-0.8-0.7-1.6-1.2-2.3c-0.2-0.2-0.3-0.4-0.5-0.6
			c-1.1-1.3-2.5-2.3-4.1-2.9c-0.2-0.1-0.5-0.2-0.8-0.3c-0.9-0.2-1.8-0.4-2.7-0.4c-2.9,0-5.6,1.3-7.5,3.5c-0.2,0.2-0.4,0.5-0.5,0.7
			c-0.7,1-1.3,2.2-1.6,3.4c-0.1,0.3-0.1,0.5-0.2,0.8c-0.1,0.5-0.1,1-0.1,1.5c0,0.2,0,0.3,0,0.5c0,0.3,0,0.5,0.1,0.8
			c0.2,1.4,0.6,2.7,1.4,3.9c0.2,0.3,0.4,0.6,0.6,0.9c1.9,2.5,4.8,3.9,7.9,3.9c4.1,0,7.8-2.6,9.3-6.4c0.3-0.7,0.4-1.3,0.5-2
			c0.1-0.5,0.1-1,0.1-1.5C110.8,177.2,110.7,176.3,110.5,175.5z M100.4,185.3c0,0.3,0.2,0.6,0.6,0.6c1.9-0.1,3.8-0.6,5.5-1.4
			c-1.6,1.4-3.6,2.2-5.7,2.2c-2.2,0-4.3-0.9-5.9-2.4c3.2,0,5.9-0.2,8.2-0.9c1.1-0.3,2.4-0.7,3.4-1.5c0.2-0.2,0.3-0.5,0.1-0.7
			c-0.2-0.3-0.6-0.4-0.9-0.1c-0.6,0.5-2.2,1-3.2,1.3c-2.5,0.6-5.3,0.9-8.7,0.7c-0.8-1.1-1.3-2.4-1.5-3.7c1.6-0.3,3.2-0.7,4.7-1.1
			c3.6-1.1,7.8-2.8,8.1-6.6c0-0.2-0.1-0.4-0.3-0.5c-0.2-0.1-0.5-0.1-0.7,0.1c-3,3-7.4,4.8-11.5,4.5c0.3-1,0.8-2,1.4-2.8
			c2.2,0.4,4.5-0.1,6.1-1.3c0.2-0.1,0.2-0.3,0.2-0.5c0-0.2-0.2-0.4-0.4-0.5c-0.2-0.1-0.4,0-0.6,0.1c-1,0.8-2.6,1.2-4.3,1.1
			c1.6-1.5,3.6-2.3,5.8-2.3c0.6,0,1.2,0.1,1.9,0.2c-1.3,2-3.5,3.2-6.1,3.4c-0.4,0-0.6,0.4-0.6,0.7c0,0.3,0.2,0.5,0.6,0.5
			c3.1-0.2,5.8-1.8,7.2-4.2c1.5,0.6,2.7,1.5,3.7,2.7c-0.1,0.2-0.2,0.4-0.3,0.5c-1.4,1.9-3.1,3.3-5.2,4.1c-0.8,0.3-1.6,0.5-2.4,0.8
			c-0.8,0.2-1.6,0.5-2.4,0.8L97,179c-0.6,0.2-1.6,0.6-1.8,1.3c-0.1,0.5,0,0.8,0.2,1.2c0.7,0.8,2.5,0.9,3.1,0.8
			c2.3-0.2,4.9-1.3,7.8-3.1c1.2-0.8,2.2-1.5,3-2.3c0.1,0.4,0.1,0.8,0.1,1.1c0,1.2-0.2,2.3-0.7,3.3c-2.1,2.1-4.8,3.2-7.7,3.3
			C100.6,184.7,100.4,185,100.4,185.3z"/>
		<path class="st0" d="M68.7,102.6c-0.7-1.7-3.5-2.2-7.8-1.3c-0.7-0.6-1.5-1.1-2.4-1.4c-4.8-1.9-10.2,0.5-12,5.3
			c-0.3,0.9-0.5,1.8-0.6,2.7c-0.6,0.4-1.1,0.9-1.5,1.2c-2.3,2.1-3.3,4-2.6,5.3c0.3,0.6,0.8,1,1.5,1.3c1.4,0.5,3.5,0.5,6.2,0
			c0.7,0.6,1.5,1,2.3,1.3c1.1,0.4,2.2,0.6,3.4,0.6c3.7,0,7.2-2.2,8.7-5.9c0.3-0.8,0.5-1.7,0.6-2.6c0.6-0.5,1.2-0.9,1.7-1.4
			C68.3,105.9,69.3,104,68.7,102.6z M62.9,110.2c-0.1,0.4-0.2,0.8-0.4,1.2v0c-0.8,2-2.3,3.6-4.3,4.4c-2,0.9-4.2,0.9-6.2,0.1
			c-0.4-0.2-0.8-0.3-1.1-0.6c2-0.5,4.2-1.3,6.2-2.2C59.3,112.4,61.2,111.3,62.9,110.2z M55,100.4c1,0,2,0.2,2.9,0.6
			c0.5,0.2,1.1,0.5,1.6,0.9c0.3,0.2,0.6,0.4,0.8,0.6c0.4,0.3,0.7,0.7,1,1c0.2,0.2,0.4,0.5,0.5,0.7c0.4,0.7,0.7,1.4,0.9,2.1
			c-1.3,0.9-3.5,2.3-6.9,3.8c-3.6,1.6-6.1,2.3-7.6,2.6c-0.4-0.6-0.7-1.3-0.9-2.1c-0.1-0.3-0.2-0.6-0.2-0.9c-0.1-0.5-0.1-0.9-0.1-1.4
			c0-0.4,0-0.7,0.1-1.1c0.1-0.6,0.2-1.2,0.5-1.8C48.8,102.4,51.8,100.4,55,100.4z M64.9,104.2C65,104.2,65,104.2,64.9,104.2
			c0.1,0.1,0,0.5-1,1.4c-0.2-0.5-0.4-1-0.6-1.4C64.3,104,64.7,104.1,64.9,104.2z M45.3,112.9c0-0.1,0.1-0.5,1-1.2
			c0.2,0.4,0.4,0.9,0.6,1.3C45.7,113.1,45.3,112.9,45.3,112.9z"/>
		<path class="st0" d="M50.9,162.3c1.4-0.6,2.7-1.3,4.2-2c-0.9-1.1-1.7-2-2.5-2.9c0.4-0.3,0.6-0.4,0.9-0.6c-1-1.8-1.4-3.6-1.1-5.7
			c2-0.3,3.9,0.1,5.7,1.1c0.2-0.3,0.4-0.5,0.6-0.9c0.9,0.8,1.8,1.5,2.9,2.4c0.7-1.4,1.3-2.8,2-4.2c1.5,1,2.4,2.6,3.1,4.5
			c0.4-0.6,0.8-1.1,1.2-1.6c1.9,2.6,2.3,5.5,1.4,8.5c-0.1,0.2-0.4,0.4-0.6,0.4c-3.9,2.2-4.7,3.9-6,6.4c-3.1,1.1-6.1,0.8-8.9-1.2
			c0.5-0.4,1-0.8,1.5-1.2C52.5,164.1,51.6,163.4,50.9,162.3z"/>
		<path class="st0" d="M142.9,168.5c0.3,0.8,0.5,1.6,0.8,2.5c0.7-0.4,1.2-0.8,1.8-1.2c0.1,0.2,0.2,0.4,0.3,0.6
			c1.1-0.4,2.2-0.5,3.3-0.2c0,1.2-0.4,2.2-1.1,3.1c0.1,0.1,0.2,0.2,0.4,0.4c-0.5,0.4-1,0.9-1.6,1.4c0.7,0.5,1.5,1,2.2,1.5
			c-0.7,0.8-1.6,1.2-2.8,1.4c0.3,0.3,0.5,0.5,0.8,0.8c-1.6,0.9-3.3,0.8-4.9,0.1c-0.1,0-0.2-0.2-0.2-0.4c-0.9-2.4-1.8-3-3.2-3.9
			c-0.3-1.9,0.1-3.5,1.4-4.9c0.2,0.3,0.3,0.6,0.5,1C141.7,169.3,142.2,168.8,142.9,168.5z"/>
		<path class="st0" d="M61.1,37.8c-0.3-0.8-0.5-1.6-0.8-2.5c-0.7,0.4-1.2,0.8-1.8,1.2c-0.1-0.2-0.2-0.4-0.3-0.6
			c-1.1,0.4-2.2,0.5-3.3,0.2c0-1.2,0.4-2.2,1.1-3.1c-0.1-0.1-0.2-0.2-0.4-0.4c0.5-0.4,1-0.9,1.6-1.4c-0.7-0.5-1.5-1-2.2-1.5
			c0.7-0.8,1.6-1.2,2.8-1.4c-0.3-0.3-0.5-0.5-0.8-0.8c1.6-0.9,3.3-0.8,4.9-0.1c0.1,0,0.2,0.2,0.2,0.4c0.9,2.4,1.8,3,3.2,3.9
			c0.3,1.9-0.1,3.5-1.4,4.9c-0.2-0.3-0.3-0.6-0.5-1C62.3,37.1,61.9,37.5,61.1,37.8z"/>
		<path class="st0" d="M152.7,45.3c-1.4,0.6-2.7,1.3-4.2,2c0.9,1.1,1.7,2,2.5,2.9c-0.4,0.3-0.6,0.4-0.9,0.6c1,1.8,1.4,3.6,1.1,5.7
			c-2,0.3-3.9-0.1-5.7-1.1c-0.2,0.3-0.4,0.5-0.6,0.9c-0.9-0.8-1.8-1.5-2.9-2.4c-0.7,1.4-1.3,2.8-2,4.2c-1.5-1-2.4-2.6-3.1-4.5
			c-0.4,0.6-0.8,1.1-1.2,1.6c-1.9-2.6-2.3-5.5-1.4-8.5c0.1-0.2,0.4-0.4,0.6-0.4c3.9-2.2,4.7-3.9,6-6.4c3.1-1.1,6.1-0.8,8.9,1.2
			c-0.5,0.4-1,0.8-1.5,1.2C151.2,43.5,152,44.2,152.7,45.3z"/>
		<g>
			<path class="st0" d="M104.4,67.6c-1.3,0.1-2.6,0-3.8-0.5L96.1,76l8,15.6l14.8-29.1l7.3-14.2h-15.3c3,4,3.7,8.6,2.1,12.7
				C111.4,64.6,108.1,67.2,104.4,67.6z"/>
			<polygon class="st0" points="96.1,107.1 88.2,91.5 85.7,96.4 68.3,62.4 61.1,48.3 45.2,48.3 52.5,62.4 85.7,127.6 			"/>
			<path class="st0" d="M99.5,139.2c1.4-0.1,2.7,0.1,3.9,0.5l4.7-9.2l-8-15.6L85,144.8l-7,13.7l-0.2,0.4h3.6h12.1
				c-3.3-4.1-4.2-8.9-2.4-13.2C92.6,142.2,95.9,139.6,99.5,139.2z"/>
			<polygon class="st0" points="151.4,144.8 118.2,79.6 108.1,99.5 116.1,115 118.2,110.8 135.6,144.8 142.8,159 158.7,159 			"/>
			<path class="st0" d="M132,176.5c-1.4,0.8-2.3,2.2-2.2,3.7c0,1.3,0.7,2.5,1.8,3c1.1,0.6,2.4,0.4,3.6-0.4c0.8-0.6,1.1-1.7,0.6-2.6
				c0.2,0.2,0.3,0.4,0.4,0.5c0.8,1.3,0.7,3.4-2,5.1c-1.9,1.2-5.1,0.4-7.6-1.8c-1.7-1.5-3-3.6-3.6-5.7c1.9-4.4,3.2-8.9,3.9-13.4
				c0.2-1.2,0.3-2.5,0.4-3.7c1-11.9-2.4-21.8-5.4-28c-1-2.1-2-3.8-2.8-5.1L90.2,80L89,77.9c-0.2-0.2-0.3-0.5-0.5-0.8
				c-0.7-1.2-1.7-2.8-2.7-4.8c-0.7-2-1.1-4.1-1.3-6.3c-0.7-9,4.6-14.4,9.4-16.3c4.4-1.8,8.8-1,11.3,2c0.1,0.2,0.3,0.3,0.4,0.5
				c0,0.1,0.1,0.1,0.1,0.2c0.1,0.1,0.2,0.2,0.2,0.4c0,0.1,0.1,0.1,0.1,0.2c0.1,0.2,0.2,0.3,0.3,0.5c0,0,0,0.1,0.1,0.1
				c0.1,0.1,0.1,0.2,0.2,0.3c0,0.1,0.1,0.1,0.1,0.2c0,0.1,0.1,0.2,0.1,0.3c0,0.1,0.1,0.1,0.1,0.2c0,0.1,0.1,0.3,0.1,0.4
				c0.1,0.2,0.1,0.4,0.1,0.6c0,0,0,0,0,0c0,0.2,0.1,0.3,0.1,0.5c0,0,0,0.1,0,0.1c0,0.1,0,0.3,0,0.4c0,0,0,0.1,0,0.1
				c0,0.3,0,0.6-0.1,0.9c0,0,0,0,0,0.1c0,0.1,0,0.2-0.1,0.3c0,0,0,0.1,0,0.1c0,0.1,0,0.2-0.1,0.2c0,0,0,0.1,0,0.1
				c0,0.1-0.1,0.2-0.1,0.3c-0.6,1.4-1.8,2.5-3,2.6c0,0,0,0,0,0c-0.3,0-0.5,0-0.8-0.1c0,0,0,0,0,0c-0.1,0-0.2-0.1-0.3-0.2
				c-0.1-0.1-0.2-0.2-0.3-0.3c0.4,0.2,1,0.2,1.4,0c0.3-0.1,0.5-0.3,0.7-0.5c0,0,0-0.1,0.1-0.1c0.1-0.1,0.2-0.3,0.3-0.4
				c0.1-0.1,0.1-0.3,0.1-0.4c0,0,0,0,0,0c0-0.2,0-0.5,0-0.7c0-0.1,0-0.2-0.1-0.3c-0.6-1.5-1.7-2.4-3.1-2.5c-1.4-0.1-2.7,0.6-3.5,1.9
				c-0.9,1.4-0.7,3.3,0.3,4.8c0.1,0.2,0.3,0.4,0.5,0.6c0,0,0.1,0.1,0.1,0.1c0.2,0.2,0.3,0.3,0.5,0.5c0,0,0.1,0.1,0.1,0.1
				c0.1,0.1,0.3,0.2,0.4,0.3c0.1,0,0.1,0.1,0.2,0.1c0.2,0.1,0.3,0.2,0.5,0.3c0.1,0,0.2,0.1,0.3,0.1c0.1,0.1,0.2,0.1,0.4,0.1
				c0.1,0,0.2,0.1,0.3,0.1c0.2,0.1,0.4,0.1,0.6,0.1c0.1,0,0.2,0,0.3,0c0.1,0,0.3,0,0.4,0c0.1,0,0.2,0,0.3,0c0.2,0,0.5,0,0.7,0
				c2.6-0.3,5.1-2.2,6.2-5c0.1-0.2,0.2-0.4,0.2-0.6c0-0.1,0-0.1,0.1-0.2c0-0.1,0.1-0.3,0.1-0.4c0-0.1,0-0.2,0.1-0.2
				c0-0.1,0.1-0.3,0.1-0.4c0-0.1,0-0.2,0-0.3c0-0.1,0-0.3,0-0.4c0-0.1,0-0.2,0-0.3c0-0.1,0-0.3,0-0.4c0-0.1,0-0.2,0-0.3
				c0-0.1,0-0.3,0-0.4c0-0.1,0-0.2,0-0.2c0-0.2,0-0.4-0.1-0.6c0,0,0,0,0-0.1c0-0.2-0.1-0.4-0.1-0.6c0-0.1,0-0.2-0.1-0.2
				c0-0.1-0.1-0.3-0.1-0.4c0-0.1-0.1-0.2-0.1-0.3c0-0.1-0.1-0.3-0.1-0.4c0-0.1-0.1-0.2-0.1-0.3c0-0.1-0.1-0.2-0.1-0.4
				c0-0.1-0.1-0.2-0.1-0.3c-0.1-0.1-0.1-0.2-0.2-0.4c0-0.1-0.1-0.2-0.1-0.3c-0.1-0.1-0.1-0.3-0.2-0.4c0-0.1-0.1-0.2-0.1-0.2
				c-0.1-0.2-0.2-0.3-0.3-0.5c0,0-0.1-0.1-0.1-0.1c0,0,0,0,0,0c0,0,0,0,0-0.1c-0.1-0.2-0.3-0.4-0.4-0.6c-0.2-0.2-0.3-0.4-0.5-0.6
				c-3.6-4.3-9.8-5.6-15.8-3.2c-4.5,1.8-9.4,6-11.1,12.7c-1-5.2-1.1-10.5-0.3-15.6c0.6-4.5,2-9,3.9-13.4l0.2-0.4
				c7.5-16.2,22.2-20.7,32.6-19.6c9.9,1,17.4,6.9,19.1,15c1.7,8.2-1.6,12.5-3.8,14.3c-2.8,2.4-6.7,3.2-9.5,2c-2-0.8-3.3-2.6-3.5-5
				c-0.1-1.4,0.3-2.4,1.1-2.9c0.5-0.3,1.2-0.4,1.6-0.1c0.5,0.3,0.5,1.2,0.4,1.6c-0.1,1.1,0.6,2,1.7,2.2s2-0.6,2.2-1.7
				c0.3-2.3-0.5-4.3-2.2-5.3c-1.7-1.1-3.9-1-5.8,0.1c-2.2,1.3-3.2,3.8-2.9,6.7c0.4,3.9,2.5,6.8,5.9,8.2c4.2,1.7,9.6,0.6,13.5-2.6
				c4.8-4,6.7-10.7,5.1-18.1c-2-9.6-10.6-16.6-22-18c-0.2,0-0.4,0-0.6-0.1c-10.6-1.1-25.8,3-34.6,18.2c-0.9-1.6-2-3-3.3-4.1
				c-4-3.5-8.9-4.4-12.3-2.2c-4.7,3-5,7.5-3.3,10.4c1.7,2.8,4.8,3.7,7.5,2.2c1.4-0.8,2.3-2.2,2.2-3.7c0-1.3-0.7-2.5-1.8-3
				c-1.1-0.6-2.4-0.4-3.6,0.4c-0.8,0.6-1.1,1.7-0.6,2.6c-0.2-0.2-0.3-0.4-0.4-0.5c-0.8-1.3-0.7-3.4,2-5.1c1.9-1.2,5.1-0.4,7.6,1.8
				c1.7,1.5,3,3.6,3.6,5.7c-1.9,4.4-3.2,8.9-3.9,13.4c-0.2,1.2-0.3,2.5-0.4,3.7c-1,11.9,2.4,21.8,5.4,28c1.1,2.2,2.1,4,3,5.3
				l28.7,47.9l0.7,1.2c0.3,0.4,0.8,1.2,1.4,2.1c0.7,1.1,1.5,2.5,2.3,4.2c0.7,2,1.1,4.1,1.3,6.3c0.7,9-4.6,14.4-9.4,16.3
				c-4.4,1.8-8.8,1-11.3-2c-0.2-0.2-0.4-0.5-0.5-0.7c0-0.1-0.1-0.1-0.1-0.2c-0.1-0.2-0.3-0.4-0.4-0.6c0,0,0-0.1-0.1-0.1
				c-0.3-0.5-0.5-0.9-0.6-1.4c-0.4-1.3-0.4-2.3-0.2-3.1c0,0,0,0,0-0.1c0-0.1,0.1-0.2,0.1-0.3c0,0,0-0.1,0-0.1c0-0.1,0.1-0.2,0.1-0.3
				c0.6-1.4,1.8-2.5,3-2.6c0.1,0,0.1,0,0.2,0c0.1,0,0.2,0,0.3,0c0,0,0,0,0,0c0.1,0,0.2,0,0.3,0.1c0,0,0.1,0,0.1,0
				c0.1,0,0.1,0.1,0.2,0.1c0.1,0.1,0.2,0.1,0.3,0.2c-0.4-0.2-1-0.2-1.4,0c0,0-0.1,0-0.1,0.1c0,0,0,0,0,0c-0.1,0-0.2,0.1-0.3,0.2
				c0,0,0,0,0,0c-0.1,0.1-0.2,0.1-0.3,0.2c0,0,0,0-0.1,0.1c-0.1,0.1-0.1,0.1-0.2,0.2c-0.1,0.1-0.1,0.2-0.2,0.3
				c0,0.1-0.1,0.2-0.1,0.3c0,0,0,0.1,0,0.1c0,0.1,0,0.1,0,0.2c0,0.1,0,0.1,0,0.2c0,0.1,0,0.1,0,0.2c0,0.1,0,0.1,0,0.2v0
				c0,0.1,0.1,0.2,0.1,0.3c0.6,1.5,1.7,2.4,3.1,2.5c1.4,0.1,2.7-0.6,3.5-1.9c0.9-1.4,0.7-3.3-0.3-4.8c-0.1-0.2-0.3-0.4-0.5-0.6
				c0,0-0.1-0.1-0.1-0.1c-0.2-0.2-0.3-0.3-0.5-0.5c0,0-0.1-0.1-0.1-0.1c-0.1-0.1-0.3-0.2-0.4-0.3c0,0-0.1-0.1-0.1-0.1
				c-0.2-0.1-0.4-0.2-0.5-0.3c-0.1,0-0.2-0.1-0.2-0.1c-0.2-0.1-0.4-0.2-0.6-0.2c-0.1,0-0.2-0.1-0.3-0.1c-0.1,0-0.3-0.1-0.4-0.1
				c-0.1,0-0.2,0-0.3-0.1c-0.1,0-0.3,0-0.4,0c-0.1,0-0.2,0-0.3,0c-0.2,0-0.5,0-0.7,0c-2.6,0.3-5.1,2.2-6.2,5
				c-0.1,0.2-0.2,0.4-0.2,0.6c0,0.1,0,0.1-0.1,0.2c0,0.1-0.1,0.3-0.1,0.4c0,0.1,0,0.2-0.1,0.3c0,0.1-0.1,0.2-0.1,0.4
				c0,0.1,0,0.2,0,0.3c0,0.1,0,0.2,0,0.3c0,0.1,0,0.2,0,0.3c0,0.1,0,0.2,0,0.3c0,0.1,0,0.2,0,0.3c0,0.1,0,0.2,0,0.3
				c0,0.1,0,0.2,0,0.4c0,0.1,0,0.2,0,0.2c0,0.1,0,0.3,0,0.4c0,0,0,0.1,0,0.1c0.1,0.6,0.2,1.1,0.4,1.7c0,0,0,0,0,0.1
				c0.1,0.2,0.1,0.3,0.2,0.5c0,0,0,0.1,0,0.1c0.1,0.2,0.1,0.3,0.2,0.5c0,0,0,0.1,0.1,0.1c0.1,0.2,0.2,0.3,0.3,0.5c0,0,0,0.1,0.1,0.1
				c0.1,0.2,0.2,0.3,0.3,0.5c0,0,0,0.1,0,0.1c0.2,0.4,0.5,0.7,0.7,1.1c0.1,0.2,0.3,0.4,0.4,0.6c3.6,4.3,9.8,5.6,15.8,3.2
				c4.5-1.8,9.4-6,11.1-12.7c1,5.2,1.1,10.5,0.3,15.6c-0.6,4.5-2,9-3.9,13.4l-0.2,0.4c-7.5,16.2-22.2,20.7-32.6,19.6
				c-9.9-1-17.4-6.9-19.1-15c-1.7-8.2,1.6-12.5,3.8-14.3c2.8-2.4,6.7-3.2,9.5-2c2,0.8,3.3,2.6,3.5,5c0.1,1.4-0.3,2.4-1.1,2.9
				c-0.5,0.3-1.2,0.4-1.6,0.1c-0.5-0.3-0.5-1.2-0.4-1.6c0.1-1.1-0.6-2-1.7-2.2c-1.1-0.1-2,0.6-2.2,1.7c-0.3,2.3,0.5,4.3,2.2,5.3
				c1.7,1.1,3.9,1,5.8-0.1c2.2-1.3,3.2-3.8,2.9-6.7c-0.4-3.9-2.5-6.8-5.9-8.2c-4.2-1.7-9.6-0.6-13.5,2.6c-4.8,4-6.7,10.7-5.1,18.1
				c2,9.6,10.6,16.6,22,18c0.2,0,0.4,0,0.6,0.1c10.6,1.1,25.8-3,34.6-18.2c0.9,1.6,2,3,3.3,4.1c4,3.5,8.9,4.4,12.3,2.2
				c4.7-3,5-7.5,3.3-10.4C137.8,175.9,134.7,174.9,132,176.5z"/>
		</g>
	</g>
	<g>
		<path class="st0" d="M140.8,245h-1.2v-0.8h1.2V245z"/>
		<path class="st0" d="M41.8,245.5h-3.9v-0.8h3.9V245.5z"/>
		<g>
			<rect x="28.3" y="214.6" class="st0" width="4.5" height="25"/>
			<polygon class="st0" points="9.1,221.3 7.9,219 5.7,214.6 0.7,214.6 2.9,219 13.4,239.5 15.9,234.7 9.1,221.3 			"/>
			<polygon class="st0" points="18.9,219 15.9,224.8 18.4,229.7 23.9,219 26.1,214.6 21.1,214.6 			"/>
			<polygon class="st0" points="195.5,235.1 185.1,214.6 182.6,219.4 189.4,232.8 189.4,232.8 190.5,235.1 192.8,239.5 197.8,239.5 
							"/>
			<polygon class="st0" points="174.6,235.1 172.3,239.5 177.3,239.5 179.6,235.1 182.6,229.3 180.1,224.3 			"/>
			<polygon class="st0" points="56.9,230.5 40.8,218.1 36.4,214.7 36.4,239.6 40.8,239.6 40.8,223.8 56.9,236.1 61.3,239.6 
				61.3,214.6 56.9,214.6 			"/>
			<path class="st0" d="M141.7,227c0,4.4-3.6,8-8,8c-4.4,0-8-3.6-8-8v-12.5h-4.5V227c0,6.9,5.6,12.5,12.5,12.5
				c6.9,0,12.5-5.6,12.5-12.5v-12.5h-4.5V227z"/>
			<path class="st0" d="M154.2,232v-17.5h-4.5v17c0,1.2,0.3,2.4,0.8,3.5c0.7,1.6,2,2.9,3.6,3.6c1.1,0.5,2.2,0.8,3.5,0.8h12.7v-4.5
				l-13.1,0C155.6,234.9,154.4,233.6,154.2,232z"/>
			<path class="st0" d="M114.9,224.9c0.7-1,1.1-2.3,1.1-3.6c0-3.7-3-6.7-6.7-6.7H93.4v4.5h15.8c1.2,0,2.3,1,2.3,2.3
				c0,1.2-1,2.3-2.3,2.3H88.8v4.5h21.7c1.9,0,3.5,1.6,3.5,3.5s-1.6,3.5-3.5,3.5v0h-17v4.5h17c4.4,0,8-3.6,8-8
				C118.5,228.8,117,226.4,114.9,224.9z"/>
			<path class="st0" d="M69.4,232.8v-3.2v-1.5H76h9.4v-4.5H69.4v0h-4.4v4.5v1.5v3.2c0,3.7,3,6.7,6.7,6.7h18.2v-4.5H71.7
				C70.4,235.1,69.4,234,69.4,232.8z"/>
			<polygon class="st0" points="89.9,219 89.9,214.6 69.4,214.6 64.9,214.6 64.9,219 69.4,219 			"/>
		</g>
		<g>
			<path class="st0" d="M31.6,245.5l-0.5,1l-2.3,4.5l-2.3-4.5l-0.5-1h1.1l0.5,1l1.2,2.4l1.2-2.4l0.5-1H31.6z"/>
			<path class="st0" d="M33.3,251v-5.5h1v5.5H33.3z"/>
			<path class="st0" d="M41.8,246.4v4.6l-1-0.8l-3.5-2.7v3.5h-1v-5.5l1,0.8l3.5,2.7v-2.6L41.8,246.4z"/>
			<path class="st0" d="M44.7,247v0.5h3.5v1h-3.5v1c0,0.3,0.2,0.5,0.5,0.5h4v1h-4c-0.8,0-1.5-0.7-1.5-1.5V247c0-0.8,0.7-1.5,1.5-1.5
				h4v1h-4C44.9,246.5,44.7,246.7,44.7,247z"/>
			<path class="st0" d="M54,245.5c1.5,0,2.8,1.2,2.8,2.8c0,0.7-0.2,1.3-0.7,1.8c0,0.1-0.1,0.1-0.2,0.2c-0.5,0.5-1.2,0.8-1.9,0.8
				h-2.8v-5.5L54,245.5z M52.2,250.1H54c1,0,1.8-0.8,1.8-1.8c0-1-0.8-1.8-1.8-1.8h-1.8V250.1z"/>
			<path class="st0" d="M64,248.3c0,1.5-1.2,2.8-2.8,2.8c-1.5,0-2.8-1.2-2.8-2.8c0-1.5,1.2-2.8,2.8-2.8
				C62.8,245.5,64,246.8,64,248.3z M63.1,248.3c0-1-0.8-1.8-1.8-1.8c-1,0-1.8,0.8-1.8,1.8c0,1,0.8,1.8,1.8,1.8
				C62.3,250.1,63.1,249.3,63.1,248.3z"/>
			<path class="st0" d="M73.6,245.5c1.5,0,2.8,1.2,2.8,2.8c0,0.7-0.2,1.3-0.7,1.8c0,0.1-0.1,0.1-0.2,0.2c-0.5,0.5-1.2,0.8-1.9,0.8
				h-2.8v-5.5L73.6,245.5z M71.8,250.1h1.8c1,0,1.8-0.8,1.8-1.8c0-1-0.8-1.8-1.8-1.8h-1.8V250.1z"/>
			<path class="st0" d="M79.3,247v0.5h3.5v1h-3.5v1c0,0.3,0.2,0.5,0.5,0.5h4v1h-4c-0.8,0-1.5-0.7-1.5-1.5V247c0-0.8,0.7-1.5,1.5-1.5
				h4v1h-4C79.5,246.5,79.3,246.7,79.3,247z"/>
			<path class="st0" d="M96.4,245.5v2.8c0,1.5-1.2,2.8-2.8,2.8c-1.5,0-2.8-1.2-2.8-2.8v-2.8h1v2.8c0,1,0.8,1.8,1.8,1.8
				c1,0,1.8-0.8,1.8-1.8v-2.8H96.4z"/>
			<path class="st0" d="M103.6,245.5l-0.5,1l-2.3,4.5l-2.3-4.5l-0.5-1h1.1l0.5,1l1.2,2.4l1.2-2.4l0.5-1H103.6z"/>
			<path class="st0" d="M108.9,251h-1.1l-0.5-1l-1.2-2.4l-1.2,2.4l-0.5,1h-1.1l0.5-1l2.3-4.5l2.3,4.5L108.9,251z"/>
			<path class="st0" d="M114.4,247.1L114.4,247.1c0-0.3-0.2-0.5-0.5-0.5h-2.2c-0.3,0-0.5,0.2-0.5,0.5v0c0,0.3,0.2,0.5,0.5,0.5h2
				c0.5,0,1,0.2,1.3,0.6c0,0,0,0,0.1,0.1c0.2,0.3,0.4,0.7,0.4,1.1c0,1-0.8,1.7-1.7,1.7h-1.7c-1,0-1.7-0.8-1.7-1.7h1
				c0,0.4,0.3,0.8,0.8,0.8h1.7c0.4,0,0.8-0.3,0.8-0.8c0-0.4-0.3-0.8-0.8-0.8h-2c-0.4,0-0.8-0.2-1-0.4c-0.1-0.1-0.1-0.1-0.2-0.2
				c-0.2-0.2-0.3-0.5-0.3-0.8v0c0-0.8,0.7-1.5,1.5-1.5h2.2c0.8,0,1.5,0.7,1.5,1.5v0L114.4,247.1z"/>
			<path class="st0" d="M123.4,247v0.5h3.5v1h-3.5v1c0,0.3,0.2,0.5,0.5,0.5h4v1h-4c-0.8,0-1.5-0.7-1.5-1.5V247
				c0-0.8,0.7-1.5,1.5-1.5h4v1h-4C123.6,246.5,123.4,246.7,123.4,247z"/>
			<path class="st0" d="M129.7,251L129.7,251L129.7,251L129.7,251z M135.2,245.5l-2.1,2.8l2.1,2.8H134l-1.5-1.9l-1.5,1.9h-1.2
				l2.1-2.8l-2.1-2.8h1.2l1.5,2l1.5-2H135.2L135.2,245.5z M135.2,251.1L135.2,251.1L135.2,251.1L135.2,251.1z"/>
			<path class="st0" d="M141.6,248.3c0,1.5-1.2,2.8-2.8,2.8c-1.5,0-2.8-1.2-2.8-2.8c0-1.5,1.2-2.8,2.8-2.8
				C140.4,245.5,141.6,246.8,141.6,248.3z M140.6,248.3c0-1-0.8-1.8-1.8-1.8c-1,0-1.8,0.8-1.8,1.8c0,1,0.8,1.8,1.8,1.8
				C139.8,250.1,140.6,249.3,140.6,248.3z"/>
			<path class="st0" d="M148.4,245.5v1h-2.3v4.5h-1v-4.5h-2.3v-1H148.4z"/>
			<path class="st0" d="M150.3,251v-5.5h1v5.5H150.3z"/>
			<path class="st0" d="M154.2,248.3c0,1,0.8,1.8,1.8,1.8h2.8v1H156c-1.5,0-2.8-1.2-2.8-2.8c0-1.5,1.2-2.8,2.8-2.8h2.8v1H156
				C155,246.5,154.2,247.3,154.2,248.3z"/>
			<path class="st0" d="M166,251h-1.1l-0.5-1l-1.2-2.4l-1.2,2.4l-0.5,1h-1.1l0.5-1l2.3-4.5l2.3,4.5L166,251z"/>
			<path class="st0" d="M171.5,247.1L171.5,247.1c0-0.3-0.2-0.5-0.5-0.5h-2.2c-0.3,0-0.5,0.2-0.5,0.5v0c0,0.3,0.2,0.5,0.5,0.5h2
				c0.5,0,1,0.2,1.3,0.6c0,0,0,0,0.1,0.1c0.2,0.3,0.4,0.7,0.4,1.1c0,1-0.8,1.7-1.7,1.7H169c-1,0-1.7-0.8-1.7-1.7h1
				c0,0.4,0.3,0.8,0.8,0.8h1.7c0.4,0,0.8-0.3,0.8-0.8c0-0.4-0.3-0.8-0.8-0.8h-2c-0.4,0-0.8-0.2-1-0.4c-0.1-0.1-0.1-0.1-0.2-0.2
				c-0.2-0.2-0.3-0.5-0.3-0.8v0c0-0.8,0.7-1.5,1.5-1.5h2.2c0.8,0,1.5,0.7,1.5,1.5v0L171.5,247.1z"/>
		</g>
		<path class="st0" d="M18.1,248.7H11v-0.8h7.2V248.7z"/>
		<path class="st0" d="M189.2,248.7H182v-0.8h7.2V248.7z"/>
	</g>
</g>
</svg>
