<?xml version="1.0" encoding="utf-8"?>
<!-- Generator: Adobe Illustrator 22.0.0, SVG Export Plug-In . SVG Version: 6.00 Build 0)  -->
<svg version="1.1" id="Layer_1" xmlns="http://www.w3.org/2000/svg" xmlns:xlink="http://www.w3.org/1999/xlink" x="0px" y="0px"
	 viewBox="0 0 198.4 255.1" style="enable-background:new 0 0 198.4 255.1;" xml:space="preserve">
<style type="text/css">
	.st0{fill:#1D1D1B;}
</style>
<g>
	
		<image style="overflow:visible;opacity:0.9;" width="207" height="250" xlink:href="3FD08BC1.png"  transform="matrix(1 0 0 1 -3.0669 4.4564)">
	</image>
	<g>
		<g>
			<g>
				<g>
					<path class="st0" d="M103.2,33.8c0.4,0.3,0.7,0.5,1.1,0.7c0.3,0.2,0.6,0.3,0.9,0.4c0.4,0,0.7,0,1.1-0.1
						c0.7-0.1,0.6-0.4,0.4-0.7c-0.1-0.1-0.3-0.2-0.4-0.3c-0.3-0.1-0.4-0.3-0.7-0.4c-0.6-0.3-1.2-0.4-2-0.3
						C103,33.4,102.9,33.6,103.2,33.8z"/>
					<path class="st0" d="M106.2,46.1c-0.1,0-0.3,0.1-0.4,0.2c-0.7,0.4-1.4,0.3-2.1,0.4c0.2,0,0.4-0.1,0.5-0.1l0,0
						c-0.2,0-0.4,0-0.5,0l0,0c0.2-0.1,0.4-0.1,0.6-0.2l0,0c-0.3,0-0.6,0.1-0.9,0.1l0,0c0.1,0,0.3-0.1,0.4-0.1
						c-0.4,0.1-0.9,0-1.3-0.2c0-0.1,0-0.3,0-0.4c-0.1,0.1-0.2,0.3-0.3,0.4c-0.4,0.3-0.7,0.4-1.2,0.4c-1-0.2-1.8-0.4-2.3-1.3
						c-0.3-0.5-0.3-0.5,0.1-0.9c-0.4-0.3-0.4-0.3-0.4-0.5c0.3,0.1,0.5,0.1,0.8-0.2c-0.1,0-0.2,0-0.2,0c-0.4,0.1-0.6,0-0.8-0.4
						c-0.3-0.4-0.5-1-0.5-1.6c-0.1,0.2-0.2,0.3-0.4,0.4c-0.2-0.4-0.4-0.9-0.6-1.2c-0.1-0.4-0.1-0.6-0.1-0.8c0-0.6,0.1-1.2,0.2-1.8
						c0-0.1,0-0.2,0-0.2c-0.1,0-0.3,0-0.3,0c-0.1-0.1-0.1-0.2-0.1-0.3c0-0.2,0.1-0.4,0.2-0.4c0.2-0.4,0.3-0.9,0.5-1.3
						c0.5-0.8,1.2-1.5,2-2c0.1-0.1,0.2-0.1,0.1-0.3c0,0-0.2,0-0.3,0c-0.4,0.2-0.6,0.4-0.9,0.7c-0.7,0.7-1.3,1.5-1.9,2.3
						c-0.4,0.6-0.8,1.3-0.8,2.2v0.1c-0.3,0.5,0,1.2,0,1.7c0,0.2,0.1,0.3,0.2,0.4c0.1-0.2,0.2-0.4,0.3-0.5c0.1,0.1,0.1,0.1,0.1,0.1
						l0.1,0.1c0.4,0.5,0.3,1.2,0.3,1.9c0,0.2-0.2,0.2-0.3,0.1s-0.3-0.2-0.4-0.3c0.3,0.6,0.5,1.3,0.8,2c0.2,0.4,0.4,0.5,0.7,0.8
						c0.3,0.2,0.4,0.4,0.6,0.5c0.1,0.1,0.3,0.3,0.4,0.4c0.4,0.3,0.7,0.4,1,0.7c0.1,0.1,0.2,0.1,0.3,0.2c0.5,0.2,1,0.4,1.5,0.5
						c0.2,0.1,0.4,0.1,0.5,0.1c0,0,0,0,0-0.1c-0.2-0.1-0.3-0.1-0.4-0.2v-0.1c0.6-0.1,1.2-0.1,1.9-0.1s1.2,0,1.9,0
						c-0.1,0.3-0.1,0.3-0.3,0.3s-0.4,0-0.6,0c-0.6-0.1-1.2-0.2-1.9-0.1c-0.1,0-0.1,0-0.2,0.1v0.1c0.2,0.1,0.3,0.1,0.4,0.2
						c0.4,0.3,0.8,0.3,1.2,0.1c0.1-0.1,0.3-0.1,0.4-0.1c0.5,0,1.2-0.1,1.7-0.3c0.4-0.2,0.7-0.3,1.1-0.4c0.2-0.1,0.4-0.2,0.4-0.4
						c0.4-0.5,0.7-1.1,1.1-1.7c0.1-0.1,0.2-0.3,0.2-0.4c-0.1,0-0.2,0.1-0.2,0.2C107.7,45.5,107,45.8,106.2,46.1z M96.1,37.5
						c-0.3,0.4-0.4,0.7-0.3,1.1c0,0.2,0,0.3-0.1,0.4c-0.3-1.2,0.3-2,1-2.7c-0.1,0.2-0.3,0.4-0.4,0.5C96.3,37.2,96.2,37.3,96.1,37.5z
						 M97.7,44.2c-0.1,0-0.1-0.1-0.2-0.2l0.1-0.1C97.7,43.9,97.7,44,97.7,44.2C97.8,44.2,97.8,44.3,97.7,44.2z M99,46.1
						c-0.1-0.2-0.1-0.4-0.2-0.4c-0.1-0.1-0.3-0.2-0.4-0.3c0.2-0.2,0.4-0.1,0.6,0.2C99.1,45.8,99.2,46,99,46.1z M105.4,47.4
						c0.6-0.4,1.2-0.8,1.8-1.2c0,0,0,0.1,0.1,0.1C106.7,46.9,106.1,47.2,105.4,47.4z"/>
					<path class="st0" d="M99,45c0.3,0.3,0.6,0.5,1,0.8c0.3,0.2,0.5,0.3,0.8,0.4c0.4-0.1,0.6-0.1,0.9-0.2c0.6-0.2,0.5-0.4,0.3-0.9
						c-0.1-0.1-0.3-0.2-0.4-0.3c-0.2-0.1-0.4-0.3-0.6-0.4c-0.5-0.3-1.2-0.4-1.7-0.1C98.8,44.5,98.7,44.8,99,45z"/>
					<path class="st0" d="M110.6,39.8c-0.1-0.1-0.1-0.1-0.2-0.2c-0.1,0.1-0.1,0.2-0.1,0.2c0,0.1,0,0.3,0,0.4c0,1.3-0.4,2.6-1.1,3.7
						c0,0.1-0.1,0.1-0.1,0.2s0,0.2,0,0.2c0.1,0,0.2,0,0.2,0c0.1,0,0.1-0.1,0.1-0.2c0.7-1.2,1.2-2.4,1.2-3.7
						C110.6,40.2,110.6,40,110.6,39.8L110.6,39.8z"/>
					<path class="st0" d="M99.1,42.4c-0.2-0.4-0.5-0.5-0.9-0.6c-0.3,0-0.4,0.1-0.3,0.3c0.1,0.3,0.2,0.4,0.4,0.7
						c0.2,0.3,0.4,0.4,0.7,0.4c0.4,0,0.4-0.1,0.4-0.4C99.2,42.7,99.2,42.6,99.1,42.4z"/>
					<path class="st0" d="M96.1,42.7c0,0,0.1-0.1,0.1-0.2c0-0.2,0-0.3,0-0.4c0-0.3-0.1-0.5-0.3-0.7C95.6,41.8,95.7,42.5,96.1,42.7
						C96,42.7,96,42.8,96.1,42.7z"/>
					<path class="st0" d="M102.9,31.7c-4.9,0-8.9,4-8.9,8.9s4,8.9,8.9,8.9s8.9-4,8.9-8.9S107.8,31.7,102.9,31.7z M102.9,48.3
						c-4.3,0-7.9-3.5-7.9-7.9s3.5-7.9,7.9-7.9s7.9,3.5,7.9,7.9S107.2,48.3,102.9,48.3z"/>
				</g>
				<g>
					<path class="st0" d="M124.5,77.4c2.4,0.5,5.4-1.8,5.9-4.2c0-0.3-0.3-0.4-0.4-0.2c-0.6,0.8-1,1.7-1.7,2.4
						c-1,1.1-2.2,1.7-3.6,1.6C124.4,77.1,124.3,77.3,124.5,77.4z"/>
					<path class="st0" d="M129.8,73.5c-1.4,2.1-0.3,5.6,2,6.4c0.4,0.2,0.7-0.4,0.3-0.6c-1.4-0.6-2-1.7-2.1-3.3
						c-0.1-0.8,0.2-1.6,0.2-2.4C130.1,73.4,129.9,73.4,129.8,73.5z"/>
					<path class="st0" d="M122.9,77.1c1.3,0.5,2.3,1.2,2.9,2.5c0.5,1.2,0.3,2.3,0.4,3.5c0,0.3,0.4,0.3,0.4,0.1
						c1.3-2.4-0.9-6.4-3.6-6.4C122.8,76.7,122.8,77.1,122.9,77.1z"/>
					<path class="st0" d="M126.5,82.9c0.8-0.7,1.6-1.6,2.6-2.1c1.2-0.7,2.4-0.5,3.8-0.4c0.3,0,0.4-0.3,0.1-0.4
						c-2.4-1.4-5.5,0.6-6.8,2.7C126,82.8,126.2,83.1,126.5,82.9z"/>
					<path class="st0" d="M134.4,80.6c0.3,0.2,0.6,0.4,0.9,0.6c0.3,0.2,0.4,0.4,0.6,0.5c0.1,0.1,0.3,0,0.3-0.1
						c0.3-0.7-1.2-1.2-1.6-1.4C134.4,80,134.1,80.5,134.4,80.6z"/>
					<path class="st0" d="M129.9,82.6c0.2,0.3,0.3,0.5,0.4,0.9c0.1,0.3,0.1,0.6,0.2,0.9c0.1,0.2,0.4,0.2,0.4,0
						c0.3-0.6-0.2-1.5-0.4-2C130.1,82,129.7,82.3,129.9,82.6z"/>
					<path class="st0" d="M125.8,84.3c-0.2,0.5-0.4,1.2-0.7,1.7c-0.3,0.5-0.6,1.1-0.8,1.6c-0.1,0.2,0.2,0.4,0.4,0.2
						c0.4-0.5,0.7-1.2,1-1.7c0.3-0.5,0.4-1.1,0.6-1.7C126.3,84.1,125.9,84,125.8,84.3z"/>
					<path class="st0" d="M122.5,81.5c0.2-0.1,0.4-0.3,0.7-0.3c0.2-0.1,0.4,0,0.6-0.1c0.2-0.1,0.2-0.4,0-0.4
						c-0.5-0.3-1.2,0.1-1.7,0.4C121.9,81.3,122.1,81.7,122.5,81.5z"/>
					<path class="st0" d="M118,74.1c0.6,0.3,1.3,0.4,2,0.7c0.6,0.2,1.2,0.4,1.9,0.5c0.3,0,0.4-0.3,0.1-0.4c-0.5-0.4-1.2-0.4-1.9-0.7
						c-0.6-0.2-1.2-0.4-2-0.6C117.9,73.6,117.7,74,118,74.1z"/>
					<path class="st0" d="M124.1,73c0.1,0.4,0.4,1.1,0.9,1.4c0.2,0.1,0.4,0,0.4-0.3c-0.2-0.4-0.5-0.9-0.7-1.3
						C124.4,72.5,124,72.6,124.1,73z"/>
					<path class="st0" d="M133,66.5c-0.1,1.2-0.6,2.5-0.8,3.7c0,0.3,0.3,0.4,0.4,0.1c0.6-1.2,0.9-2.6,1-3.8
						C133.6,66.3,133,66.3,133,66.5z"/>
					<path class="st0" d="M133,75.9c0.4-0.1,0.9-0.2,1.3-0.2c0.4-0.1,0.8-0.1,1.2-0.4c0.2-0.1,0.1-0.4-0.1-0.4
						c-0.4-0.1-0.9,0.1-1.2,0.2c-0.4,0.1-0.8,0.2-1.2,0.3C132.6,75.5,132.7,75.9,133,75.9z"/>
				</g>
				<g>
					<path class="st0" d="M73.2,136.8c2-1.6,2.1-5.6,0.4-7.5c-0.2-0.2-0.4,0-0.4,0.2c0.2,1,0.7,2,0.9,2.9c0.2,1.5-0.1,2.9-1.1,4
						C72.8,136.7,73.1,137,73.2,136.8z"/>
					<path class="st0" d="M73.4,130.1c0.8,2.5,4.3,3.8,6.6,2.5c0.4-0.3,0.1-0.9-0.4-0.6c-1.4,0.7-2.8,0.5-4.1-0.4
						c-0.7-0.5-1.2-1.2-1.9-1.7C73.6,129.7,73.3,129.9,73.4,130.1z"/>
					<path class="st0" d="M71.9,137.9c1.2-0.7,2.5-1.2,3.9-0.8c1.3,0.4,2,1.2,3.1,2c0.2,0.1,0.4-0.1,0.4-0.3
						c-1.2-2.7-5.9-3.5-7.6-1.2C71.5,137.9,71.7,138.1,71.9,137.9z"/>
					<path class="st0" d="M78.9,138.8c-0.1-1.2-0.3-2.3-0.1-3.5c0.3-1.5,1.2-2.3,2.1-3.4c0.2-0.2,0-0.4-0.3-0.4
						c-2.8,1.1-3,4.9-2.3,7.3C78.5,139.1,78.9,139.2,78.9,138.8z"/>
					<path class="st0" d="M82.2,130.9c0.4-0.1,0.7-0.3,1.1-0.4c0.3-0.1,0.6-0.1,0.9-0.2c0.1-0.1,0.2-0.2,0.1-0.4
						c-0.4-0.6-1.8,0.1-2.2,0.4C81.8,130.6,81.8,131,82.2,130.9z"/>
					<path class="st0" d="M80.9,135.8c0.4,0,0.6,0.2,0.9,0.3c0.3,0.1,0.5,0.4,0.8,0.4c0.2,0.1,0.4-0.2,0.3-0.3
						c-0.4-0.6-1.3-0.9-2-0.9C80.6,135.3,80.5,135.8,80.9,135.8z"/>
					<path class="st0" d="M79.6,140.3c0.4,0.5,0.6,1.1,0.9,1.6c0.3,0.5,0.4,1.2,0.8,1.7c0.1,0.2,0.4,0.1,0.4-0.2
						c-0.1-0.6-0.4-1.3-0.7-2c-0.3-0.5-0.6-1.2-1-1.6C79.8,139.7,79.5,140.1,79.6,140.3z"/>
					<path class="st0" d="M75.2,141.2c0-0.3,0.1-0.5,0.2-0.7c0.1-0.2,0.3-0.4,0.4-0.6c0.1-0.2-0.2-0.4-0.3-0.3
						c-0.5,0.3-0.7,1-0.8,1.6C74.7,141.6,75.2,141.6,75.2,141.2z"/>
					<path class="st0" d="M66.2,140c0.6-0.4,1.2-0.8,1.9-1.2c0.5-0.4,1.2-0.7,1.7-1.2c0.2-0.2,0-0.4-0.3-0.4
						c-0.6,0.3-1.2,0.7-1.8,1.1c-0.6,0.4-1.2,0.8-1.7,1.2C65.8,139.7,66,140.2,66.2,140z"/>
					<path class="st0" d="M69.3,134.3c0.4,0.2,1.2,0.4,1.7,0.2c0.2-0.1,0.2-0.4,0-0.4c-0.4-0.2-1.1-0.1-1.6-0.3
						C69.2,133.7,69,134.2,69.3,134.3z"/>
					<path class="st0" d="M69.9,122.8c1,0.9,1.6,2.1,2.5,3.1c0.2,0.2,0.4,0,0.4-0.3c-0.5-1.2-1.5-2.4-2.5-3.3
						C70,122.2,69.7,122.6,69.9,122.8z"/>
					<path class="st0" d="M77.5,129c0.2-0.4,0.4-0.8,0.7-1.2c0.2-0.4,0.4-0.7,0.4-1.2c0-0.2-0.3-0.4-0.4-0.2
						c-0.4,0.3-0.5,0.7-0.7,1.1c-0.2,0.4-0.4,0.8-0.5,1.2C77,129,77.3,129.3,77.5,129z"/>
				</g>
				<path class="st0" d="M146.3,97c-0.2-1.2-0.5-2.3-1.2-3.3c-0.3-0.4-0.6-1-1-1.3c-1.6-1.9-4-3-6.7-3c-1.4,0-2.8,0.4-4,1
					c-0.6,0.3-1.2,0.7-1.7,1.1c-0.6,0.5-1.2,1.1-1.6,1.8c-0.8,1.2-1.3,2.5-1.5,4c0,0.4-0.1,0.7-0.1,1.1c0,0.3,0,0.5,0,0.8
					c0.1,1.1,0.4,2.1,0.8,3c0.4,0.6,0.7,1.2,1.2,1.8c0.4,0.5,0.9,1,1.4,1.3c1.5,1.2,3.4,1.9,5.4,1.9c0.9,0,1.7-0.1,2.5-0.4
					c0.4-0.2,1-0.4,1.4-0.5c0.2-0.1,0.4-0.2,0.6-0.4c0.4-0.3,0.8-0.5,1.2-0.9c0.4-0.4,0.8-0.7,1.1-1.2c0.4-0.4,0.6-0.8,0.9-1.2
					c0.4-0.9,0.8-1.8,1-2.8c0.1-0.5,0.2-1.1,0.2-1.6C146.4,97.8,146.4,97.4,146.3,97z M137.6,90.2c2.1,0,4.1,0.9,5.5,2.2
					c-2.8,0.3-5.5-0.8-8.2-1.8C135.7,90.4,136.6,90.2,137.6,90.2z M129.7,98.1c0-0.3,0-0.6,0.1-0.9c0.7,0.1,1.5,0.2,2.2,0
					c1.1-0.2,2.5-0.7,2.8-1.8c0.4-1.3-0.8-2.1-2-2.4c-0.4-0.1-0.8-0.1-1.2-0.1c0.4-0.4,0.8-0.8,1.2-1.2c0.6,0.4,1.2,0.7,1.8,1.2
					c1.1,0.7,2.4,1,3.6,1.3c1.2,0.4,2.5,1,3.7,0.8c0.8-0.1,1.6-0.4,2.4-0.9c0.5,0.9,0.8,1.8,1,2.8c-2.6-0.1-5.1-0.6-7.7-0.4
					c-0.9,0.1-1.8,0.3-2.6,0.8c-1.1,0.6-2,1.1-3.2,1.2c-0.7,0.1-1.4,0.2-2.2,0.3C129.7,98.6,129.7,98.4,129.7,98.1z M137.6,106
					c-1.4,0-2.8-0.4-3.8-1c0.6,0,1.2,0,1.9,0.2c1.2,0.3,2.4,0.3,3.5,0.7C138.5,105.9,138,106,137.6,106z M144.2,102.3
					c-0.3,0-0.4-0.1-0.7-0.1c-0.5,0-1.2-0.1-1.7,0.2c-0.9,0.5-0.4,1.5-0.2,2.4c-0.3,0.2-0.6,0.4-1,0.5c-0.9-0.8-2.2-1.2-3.5-1.3
					c-1.2-0.2-2.3-0.5-3.5-0.5c-0.6,0-1.2,0.1-1.8,0.2c-0.5-0.5-1-1.1-1.3-1.8c1.3,0,2.5,0.2,3.9,0.6c1.6,0.5,3.4,0.4,5.1,0
					c0.4-0.1,1-0.3,1.3-0.6c0.6-0.6,0.5-1.4,1.6-1.7c0.8-0.2,1.6-0.1,2.5-0.3c0.1,0,0.2,0,0.3-0.1
					C145,100.8,144.7,101.6,144.2,102.3z"/>
				<path class="st0" d="M154.1,34c0,0-0.1-0.4-0.1-0.5c-0.1-0.3-0.1-0.4-0.2-0.6c-0.1-0.2-0.1-0.4-0.2-0.5
					c-0.1-0.3-0.3-0.5-0.4-0.8c-0.1-0.2-0.2-0.4-0.4-0.5c-1.4-2.2-3.8-3.5-6.5-3.5c-2,0-3.8,0.7-5.3,2.1c-0.2,0.2-0.4,0.4-0.5,0.5
					c-0.3,0.3-0.5,0.6-0.7,1c-0.1,0.2-0.3,0.4-0.4,0.6c-0.2,0.3-0.3,0.6-0.4,0.9c-0.1,0.2-0.1,0.4-0.2,0.5c-0.1,0.2-0.1,0.4-0.2,0.6
					c0,0.2-0.1,0.4-0.1,0.5c-0.1,0.4-0.1,0.7-0.1,1c0,0.1,0,0.1,0,0.2v0.1c0,0.2,0,0.4,0,0.5c0,0.3,0.1,0.5,0.1,0.9
					c0,0.2,0.1,0.4,0.2,0.5c0.1,0.2,0.1,0.4,0.2,0.5c0.1,0.2,0.2,0.4,0.3,0.5c0.2,0.4,0.4,0.8,0.6,1.2c0.2,0.2,0.3,0.4,0.4,0.5
					s0.4,0.4,0.5,0.6c0.2,0.2,0.4,0.4,0.6,0.5c0.4,0.3,0.7,0.5,1.1,0.7c0.4,0.2,0.6,0.4,1,0.4c0.9,0.4,1.8,0.4,2.7,0.4
					c3.1,0,5.9-1.9,7.1-4.8c0.1-0.2,0.2-0.4,0.2-0.5c0.1-0.3,0.2-0.5,0.2-0.8c0-0.2,0.1-0.4,0.1-0.5s0-0.4,0.1-0.5
					c0-0.2,0-0.4,0-0.5C154.2,34.8,154.1,34.4,154.1,34z M145.2,39.1c0-0.2,0-0.4-0.2-0.6c-0.4-0.5-2.1-0.8-5.1-0.8
					c0-0.1-0.1-0.2-0.1-0.2c3,0.1,5,0.4,5.6,1.2c0.2,0.2,0.2,0.3,0.2,0.5c-0.1,1.1-2.3,1.3-3.7,1.4c-0.1-0.1-0.2-0.2-0.3-0.3
					C144,40.2,145.1,39.8,145.2,39.1z M146.5,39.2c0.1-0.4-0.1-0.8-0.4-1.2c-1.1-1.1-4-1.3-6.4-1.4c0-0.2-0.1-0.4-0.1-0.5
					c2.4,0,5.4,0.3,6.7,1.5c0.4,0.4,0.6,0.9,0.5,1.5c-0.1,0.6-0.4,1.2-0.8,1.6c-0.5,0.4-1.2,0.7-2.2,0.9c-0.3-0.1-0.5-0.3-0.8-0.4
					C145.3,41,146.4,40.3,146.5,39.2z M146.6,41.4c0.7-0.5,1.1-1.2,1.2-2.1c0.1-0.9-0.2-1.6-0.8-2.1c-1.5-1.5-4.8-1.8-7.4-1.8
					c0,0,0,0,0-0.1c0-0.3,0-0.4,0-0.7c0.7,0.1,1.4,0.2,2.1,0.2l0,0c1.5,0,2.6-0.3,3.3-0.8c0.5-0.4,0.8-0.9,0.8-1.5
					c0.1-0.6-0.2-1.2-0.6-1.6c-0.5-0.5-1.5-0.9-2.8-1.1c1.2-0.9,2.6-1.3,4.1-1.3c2,0,4.1,1,5.3,2.6c-1.4,0-3.2,0.3-4.3,1.2
					c-0.7,0.5-1.1,1.2-1.2,2.1c-0.1,0.8,0.2,1.6,0.8,2.2c1,1,2.8,1.6,5.6,1.9c-1.2,2.4-3.5,3.9-6.2,3.9c-0.4,0-0.6,0-1-0.1
					C145.9,41.9,146.3,41.6,146.6,41.4z M143.9,32L143.9,32c0,0.1,0,0.1-0.1,0.2c-0.4,0.4-1.8,0.4-3.6,0.3c0.1-0.3,0.2-0.4,0.4-0.7
					C142.3,31.7,143.6,31.7,143.9,32z M147.2,34.2c0.1-0.6,0.4-1.2,0.9-1.6c1-0.8,2.7-1,4-1c0.1,0,0.3,0,0.4,0
					c0.1,0.2,0.2,0.4,0.3,0.5c-2.3,0-5.1,0.4-5.2,2.1c-0.1,0.4,0.1,0.8,0.4,1.2c0.7,0.8,2.5,1.2,5.3,1.3c0,0.2-0.1,0.3-0.1,0.4
					c-2.6-0.2-4.4-0.7-5.3-1.6C147.2,35.4,147.1,34.8,147.2,34.2z M153.2,34.2c0,0.3,0.1,0.5,0.1,0.8c-2.3-0.1-3.5-0.3-3.7-0.4
					C149.8,34.4,151.1,34.1,153.2,34.2z"/>
				<g>
					<path class="st0" d="M68.4,179.9c-0.1-0.3-0.2-0.4-0.2-0.6c-0.3-0.8-0.7-1.6-1.2-2.2c-0.2-0.3-0.4-0.5-0.7-0.7
						c-1.5-1.5-3.5-2.3-5.6-2.3c-4.5,0-8.2,3.6-8.2,8.2c0,4.5,3.6,8.2,8.2,8.2s8.2-3.6,8.2-8.2C68.7,181.4,68.6,180.6,68.4,179.9z
						 M62.3,176.5c-0.4,0.1-1.2,0.5-2,0.9l-0.5,0.3c-0.3-0.3-0.7-0.6-1.1-0.6s-0.8,0.2-1.4,0.4h-0.1c-0.1,0-0.2,0.1-0.2,0.1
						c-0.3,0-0.4,0.3-0.4,0.5s0.3,0.5,0.5,0.5c0.1,0,0.2,0,0.4-0.1c0.3-0.1,0.9-0.3,1.1-0.3c0,0,0.1,0,0.2,0.1l0,0
						c0,0-0.1,0-0.3,0.1c-1.5,0.5-2.9,1.2-2.9,2.1v0.1c0.2,0.8,1.2,0.9,2.2,0.9c0.6,0,1.5,0.1,1.8,0.3c1.9,2.2,2.3,2.3,3.6,2.4
						c0.1,0,0.2,0,0.4,0c0.9-0.1,1.1-0.1,1.2-0.1c0.2,0.1,0.4,0.1,0.5,0c0.2,0,0.4-0.2,0.4-0.3c0.6-0.5,0.8-1.3,0.9-2
						c0-0.2,0.1-0.4,0.1-0.5c0-0.1,0.1-0.3,0.1-0.3c0.1-0.1,0.2-0.1,0.3-0.2l0.4-0.2c0.2,0.5,0.2,1.2,0.2,1.7c0,3.9-3.2,7.2-7.2,7.2
						c-3.9,0-7.2-3.2-7.2-7.2c0-3.9,3.2-7.2,7.2-7.2c1.4,0,2.8,0.4,4,1.2C63.5,176.3,62.5,176.5,62.3,176.5z"/>
					<path class="st0" d="M55.3,182.4c-0.2,0.3-0.2,0.6-0.2,0.7c0,0.1,0,0.3,0,0.4c0,0.2,0,0.4,0,0.6c0,0.4,0.3,0.8,0.5,1
						c0.2,0.2,0.4,0.2,0.5,0.3l0.8,0.2c0.1,0.4,0.2,1,0.1,1.4v0.1c0,0.1-0.1,0.3-0.1,0.4c0,0.4,0.2,0.8,0.6,1.1
						c0.3,0.2,0.6,0.3,0.8,0.3h0.1c0.1,0,0.1,0,0.2,0c0.6,0,1.2-0.4,1.4-0.9c0.4-0.6,0.4-1.3,0.1-2c0-0.1-0.1-0.1-0.1-0.2
						c-0.1-0.1-0.1-0.2-0.1-0.3l0,0h0.1l0.7-0.2c0.3-0.1,0.4-0.3,0.4-0.4c0-0.3-0.2-0.4-0.4-0.5l0,0c-0.6-0.2-1.2-0.6-1.7-1.4v-0.1
						c-0.2-0.3-0.4-0.5-0.7-0.7c-0.2-0.1-0.4-0.1-0.5-0.1c-0.6,0-1.2,0.1-1.9,0.1C55.9,182.1,55.6,182.1,55.3,182.4z"/>
					<path class="st0" d="M64.4,186.1c0,0,0.2,0.1,0.4,0.2l0.2,0.4c0.1,0.2,0.3,0.3,0.4,0.3c0.1,0,0.1,0,0.2,0
						c0.3-0.1,0.4-0.4,0.3-0.6l-0.3-0.5c-0.1-0.1-0.2-0.2-0.3-0.3c-0.7-0.4-0.8-0.4-0.9-0.4c-0.3,0-0.5,0.3-0.5,0.5
						C63.9,185.9,64.2,186.1,64.4,186.1z"/>
					<path class="st0" d="M65.6,185.6c0.1,0.1,0.2,0.1,0.3,0.1c0.2,0,0.3-0.1,0.4-0.2l0.4-0.4c0.1-0.2,0.2-0.4,0.1-0.5
						c-0.1-0.2-0.3-0.3-0.4-0.3h-0.9c-0.2,0-0.4,0.2-0.4,0.4c-0.1,0.2,0,0.4,0.2,0.5L65.6,185.6z"/>
				</g>
				<path class="st0" d="M110.4,170.8c-0.1-0.3-0.2-0.5-0.3-0.9c-0.3-0.7-0.6-1.4-1.1-2c-0.2-0.2-0.3-0.4-0.4-0.5
					c-1-1.2-2.2-2-3.6-2.6c-0.2-0.1-0.4-0.2-0.7-0.3c-0.8-0.2-1.6-0.4-2.4-0.4c-2.6,0-5,1.2-6.7,3.1c-0.2,0.2-0.4,0.4-0.4,0.6
					c-0.6,0.9-1.2,2-1.4,3c-0.1,0.3-0.1,0.4-0.2,0.7c-0.1,0.4-0.1,0.9-0.1,1.3c0,0.2,0,0.3,0,0.4c0,0.3,0,0.4,0.1,0.7
					c0.2,1.2,0.5,2.4,1.2,3.5c0.2,0.3,0.4,0.5,0.5,0.8c1.7,2.2,4.3,3.5,7,3.5c3.6,0,6.9-2.3,8.3-5.7c0.3-0.6,0.4-1.2,0.4-1.8
					c0.1-0.4,0.1-0.9,0.1-1.3C110.7,172.3,110.6,171.5,110.4,170.8z M101.5,179.5c0,0.3,0.2,0.5,0.5,0.5c1.7-0.1,3.4-0.5,4.9-1.2
					c-1.4,1.2-3.2,2-5.1,2c-2,0-3.8-0.8-5.2-2.1c2.8,0,5.2-0.2,7.3-0.8c1-0.3,2.1-0.6,3-1.3c0.2-0.2,0.3-0.4,0.1-0.6
					c-0.2-0.3-0.5-0.4-0.8-0.1c-0.5,0.4-2,0.9-2.8,1.2c-2.2,0.5-4.7,0.8-7.7,0.6c-0.7-1-1.2-2.1-1.3-3.3c1.4-0.3,2.8-0.6,4.2-1
					c3.2-1,6.9-2.5,7.2-5.9c0-0.2-0.1-0.4-0.3-0.4c-0.2-0.1-0.4-0.1-0.6,0.1c-2.7,2.7-6.6,4.3-10.2,4c0.3-0.9,0.7-1.8,1.2-2.5
					c2,0.4,4-0.1,5.4-1.2c0.2-0.1,0.2-0.3,0.2-0.4s-0.2-0.4-0.4-0.4c-0.2-0.1-0.4,0-0.5,0.1c-0.9,0.7-2.3,1.1-3.8,1
					c1.4-1.3,3.2-2,5.1-2c0.5,0,1.1,0.1,1.7,0.2c-1.2,1.8-3.1,2.8-5.4,3c-0.4,0-0.5,0.4-0.5,0.6s0.2,0.4,0.5,0.4
					c2.8-0.2,5.1-1.6,6.4-3.7c1.3,0.5,2.4,1.3,3.3,2.4c-0.1,0.2-0.2,0.4-0.3,0.4c-1.2,1.7-2.8,2.9-4.6,3.6c-0.7,0.3-1.4,0.4-2.1,0.7
					c-0.7,0.2-1.4,0.4-2.1,0.7l-0.2-0.1c-0.5,0.2-1.4,0.5-1.6,1.2c-0.1,0.4,0,0.7,0.2,1.1c0.6,0.7,2.2,0.8,2.8,0.7
					c2-0.2,4.3-1.2,6.9-2.8c1.1-0.7,2-1.3,2.7-2c0.1,0.4,0.1,0.7,0.1,1c0,1.1-0.2,2-0.6,2.9c-1.9,1.9-4.3,2.8-6.8,2.9
					C101.6,178.9,101.5,179.2,101.5,179.5z"/>
				<path class="st0" d="M73.3,106.1c-0.6-1.5-3.1-2-6.9-1.2c-0.6-0.5-1.3-1-2.1-1.2c-4.3-1.7-9.1,0.4-10.6,4.7
					c-0.3,0.8-0.4,1.6-0.5,2.4c-0.5,0.4-1,0.8-1.3,1.1c-2,1.9-2.9,3.5-2.3,4.7c0.3,0.5,0.7,0.9,1.3,1.2c1.2,0.4,3.1,0.4,5.5,0
					c0.6,0.5,1.3,0.9,2,1.2c1,0.4,2,0.5,3,0.5c3.3,0,6.4-2,7.7-5.2c0.3-0.7,0.4-1.5,0.5-2.3c0.5-0.4,1.1-0.8,1.5-1.2
					C73,109,73.9,107.3,73.3,106.1z M68.2,112.8c-0.1,0.4-0.2,0.7-0.4,1.1l0,0c-0.7,1.8-2,3.2-3.8,3.9c-1.8,0.8-3.7,0.8-5.5,0.1
					c-0.4-0.2-0.7-0.3-1-0.5c1.8-0.4,3.7-1.2,5.5-2C65,114.8,66.7,113.8,68.2,112.8z M61.2,104.1c0.9,0,1.8,0.2,2.6,0.5
					c0.4,0.2,1,0.4,1.4,0.8c0.3,0.2,0.5,0.4,0.7,0.5c0.4,0.3,0.6,0.6,0.9,0.9c0.2,0.2,0.4,0.4,0.4,0.6c0.4,0.6,0.6,1.2,0.8,1.9
					c-1.2,0.8-3.1,2-6.1,3.4c-3.2,1.4-5.4,2-6.7,2.3c-0.4-0.5-0.6-1.2-0.8-1.9c-0.1-0.3-0.2-0.5-0.2-0.8c-0.1-0.4-0.1-0.8-0.1-1.2
					c0-0.4,0-0.6,0.1-1c0.1-0.5,0.2-1.1,0.4-1.6C55.7,105.9,58.3,104.1,61.2,104.1z M70,107.5C70,107.5,70,107.5,70,107.5
					c0.1,0.1,0,0.4-0.9,1.2c-0.2-0.4-0.4-0.9-0.5-1.2C69.4,107.3,69.8,107.4,70,107.5z M52.6,115.2c0-0.1,0.1-0.4,0.9-1.1
					c0.2,0.4,0.4,0.8,0.5,1.2C52.9,115.4,52.6,115.2,52.6,115.2z"/>
				<path class="st0" d="M57.5,159.1c1.2-0.5,2.4-1.2,3.7-1.8c-0.8-1-1.5-1.8-2.2-2.6c0.4-0.3,0.5-0.4,0.8-0.5
					c-0.9-1.6-1.2-3.2-1-5.1c1.8-0.3,3.5,0.1,5.1,1c0.2-0.3,0.4-0.4,0.5-0.8c0.8,0.7,1.6,1.3,2.6,2.1c0.6-1.2,1.2-2.5,1.8-3.7
					c1.3,0.9,2.1,2.3,2.8,4c0.4-0.5,0.7-1,1.1-1.4c1.7,2.3,2,4.9,1.2,7.5c-0.1,0.2-0.4,0.4-0.5,0.4c-3.5,2-4.2,3.5-5.3,5.7
					c-2.8,1-5.4,0.7-7.9-1.1c0.4-0.4,0.9-0.7,1.3-1.1C59,160.7,58.2,160,57.5,159.1z"/>
				<path class="st0" d="M139.2,164.6c0.3,0.7,0.4,1.4,0.7,2.2c0.6-0.4,1.1-0.7,1.6-1.1c0.1,0.2,0.2,0.4,0.3,0.5
					c1-0.4,2-0.4,2.9-0.2c0,1.1-0.4,2-1,2.8c0.1,0.1,0.2,0.2,0.4,0.4c-0.4,0.4-0.9,0.8-1.4,1.2c0.6,0.4,1.3,0.9,2,1.3
					c-0.6,0.7-1.4,1.1-2.5,1.2c0.3,0.3,0.4,0.4,0.7,0.7c-1.4,0.8-2.9,0.7-4.3,0.1c-0.1,0-0.2-0.2-0.2-0.4c-0.8-2.1-1.6-2.7-2.8-3.5
					c-0.3-1.7,0.1-3.1,1.2-4.3c0.2,0.3,0.3,0.5,0.4,0.9C138.1,165.3,138.5,164.8,139.2,164.6z"/>
				<path class="st0" d="M66.6,48.6c-0.3-0.7-0.4-1.4-0.7-2.2c-0.6,0.4-1.1,0.7-1.6,1.1c-0.1-0.2-0.2-0.4-0.3-0.5
					c-1,0.4-2,0.4-2.9,0.2c0-1.1,0.4-2,1-2.8c-0.1-0.1-0.2-0.2-0.4-0.4c0.4-0.4,0.9-0.8,1.4-1.2c-0.6-0.4-1.3-0.9-2-1.3
					c0.6-0.7,1.4-1.1,2.5-1.2c-0.3-0.3-0.4-0.4-0.7-0.7c1.4-0.8,2.9-0.7,4.3-0.1c0.1,0,0.2,0.2,0.2,0.4c0.8,2.1,1.6,2.7,2.8,3.5
					c0.3,1.7-0.1,3.1-1.2,4.3c-0.2-0.3-0.3-0.5-0.4-0.9C67.7,48,67.3,48.3,66.6,48.6z"/>
				<path class="st0" d="M147.9,55.3c-1.2,0.5-2.4,1.2-3.7,1.8c0.8,1,1.5,1.8,2.2,2.6c-0.4,0.3-0.5,0.4-0.8,0.5
					c0.9,1.6,1.2,3.2,1,5.1c-1.8,0.3-3.5-0.1-5.1-1c-0.2,0.3-0.4,0.4-0.5,0.8c-0.8-0.7-1.6-1.3-2.6-2.1c-0.6,1.2-1.2,2.5-1.8,3.7
					c-1.3-0.9-2.1-2.3-2.8-4c-0.4,0.5-0.7,1-1.1,1.4c-1.7-2.3-2-4.9-1.2-7.5c0.1-0.2,0.4-0.4,0.5-0.4c3.5-2,4.2-3.5,5.3-5.7
					c2.8-1,5.4-0.7,7.9,1.1c-0.4,0.4-0.9,0.7-1.3,1.1C146.5,53.7,147.2,54.3,147.9,55.3z"/>
				<g>
					<path class="st0" d="M105,75c-1.2,0.1-2.3,0-3.4-0.4l-4,7.9l7.1,13.8l13.1-25.8l6.5-12.6h-13.6c2.7,3.5,3.3,7.6,1.9,11.3
						C111.2,72.4,108.3,74.7,105,75z"/>
					<polygon class="st0" points="97.6,110.1 90.6,96.2 88.4,100.6 73,70.4 66.6,57.9 52.5,57.9 59,70.4 88.4,128.3 					"/>
					<path class="st0" d="M100.7,138.6c1.2-0.1,2.4,0.1,3.5,0.4l4.2-8.2l-7.1-13.8l-13.4,26.5l-6.2,12.2l-0.2,0.4h3.2h10.7
						c-2.9-3.6-3.7-7.9-2.1-11.7C94.5,141.2,97.5,138.9,100.7,138.6z"/>
					<polygon class="st0" points="146.7,143.5 117.3,85.7 108.3,103.3 115.4,117.1 117.3,113.4 132.7,143.5 139.1,156.1 
						153.2,156.1 					"/>
					<path class="st0" d="M129.5,171.7c-1.2,0.7-2,2-2,3.3c0,1.2,0.6,2.2,1.6,2.7c1,0.5,2.1,0.4,3.2-0.4c0.7-0.5,1-1.5,0.5-2.3
						c0.2,0.2,0.3,0.4,0.4,0.4c0.7,1.2,0.6,3-1.8,4.5c-1.7,1.1-4.5,0.4-6.7-1.6c-1.5-1.3-2.7-3.2-3.2-5.1c1.7-3.9,2.8-7.9,3.5-11.9
						c0.2-1.1,0.3-2.2,0.4-3.3c0.9-10.6-2.1-19.3-4.8-24.8c-0.9-1.9-1.8-3.4-2.5-4.5L92.4,86l-1.1-1.9c-0.2-0.2-0.3-0.4-0.4-0.7
						c-0.6-1.1-1.5-2.5-2.4-4.3c-0.6-1.8-1-3.6-1.2-5.6c-0.6-8,4.1-12.8,8.3-14.5c3.9-1.6,7.8-0.9,10,1.8c0.1,0.2,0.3,0.3,0.4,0.4
						c0,0.1,0.1,0.1,0.1,0.2c0.1,0.1,0.2,0.2,0.2,0.4c0,0.1,0.1,0.1,0.1,0.2c0.1,0.2,0.2,0.3,0.3,0.4c0,0,0,0.1,0.1,0.1
						c0.1,0.1,0.1,0.2,0.2,0.3c0,0.1,0.1,0.1,0.1,0.2s0.1,0.2,0.1,0.3c0,0.1,0.1,0.1,0.1,0.2c0,0.1,0.1,0.3,0.1,0.4
						c0.1,0.2,0.1,0.4,0.1,0.5l0,0c0,0.2,0.1,0.3,0.1,0.4v0.1c0,0.1,0,0.3,0,0.4v0.1c0,0.3,0,0.5-0.1,0.8c0,0,0,0,0,0.1
						c0,0.1,0,0.2-0.1,0.3v0.1c0,0.1,0,0.2-0.1,0.2v0.1c0,0.1-0.1,0.2-0.1,0.3c-0.5,1.2-1.6,2.2-2.7,2.3l0,0c-0.3,0-0.4,0-0.7-0.1
						l0,0c-0.1,0-0.2-0.1-0.3-0.2s-0.2-0.2-0.3-0.3c0.4,0.2,0.9,0.2,1.2,0c0.3-0.1,0.4-0.3,0.6-0.4c0,0,0-0.1,0.1-0.1
						c0.1-0.1,0.2-0.3,0.3-0.4c0.1-0.1,0.1-0.3,0.1-0.4l0,0c0-0.2,0-0.4,0-0.6c0-0.1,0-0.2-0.1-0.3c-0.5-1.3-1.5-2.1-2.8-2.2
						c-1.2-0.1-2.4,0.5-3.1,1.7c-0.8,1.2-0.6,2.9,0.3,4.3c0.1,0.2,0.3,0.4,0.4,0.5l0.1,0.1c0.2,0.2,0.3,0.3,0.4,0.4l0.1,0.1
						c0.1,0.1,0.3,0.2,0.4,0.3c0.1,0,0.1,0.1,0.2,0.1c0.2,0.1,0.3,0.2,0.4,0.3c0.1,0,0.2,0.1,0.3,0.1c0.1,0.1,0.2,0.1,0.4,0.1
						c0.1,0,0.2,0.1,0.3,0.1c0.2,0.1,0.4,0.1,0.5,0.1c0.1,0,0.2,0,0.3,0s0.3,0,0.4,0s0.2,0,0.3,0c0.2,0,0.4,0,0.6,0
						c2.3-0.3,4.5-2,5.5-4.4c0.1-0.2,0.2-0.4,0.2-0.5c0-0.1,0-0.1,0.1-0.2c0-0.1,0.1-0.3,0.1-0.4s0-0.2,0.1-0.2
						c0-0.1,0.1-0.3,0.1-0.4s0-0.2,0-0.3c0-0.1,0-0.3,0-0.4c0-0.1,0-0.2,0-0.3c0-0.1,0-0.3,0-0.4c0-0.1,0-0.2,0-0.3
						c0-0.1,0-0.3,0-0.4s0-0.2,0-0.2c0-0.2,0-0.4-0.1-0.5c0,0,0,0,0-0.1c0-0.2-0.1-0.4-0.1-0.5c0-0.1,0-0.2-0.1-0.2
						c0-0.1-0.1-0.3-0.1-0.4s-0.1-0.2-0.1-0.3s-0.1-0.3-0.1-0.4s-0.1-0.2-0.1-0.3c0-0.1-0.1-0.2-0.1-0.4c0-0.1-0.1-0.2-0.1-0.3
						c-0.1-0.1-0.1-0.2-0.2-0.4c0-0.1-0.1-0.2-0.1-0.3c-0.1-0.1-0.1-0.3-0.2-0.4c0-0.1-0.1-0.2-0.1-0.2c-0.1-0.2-0.2-0.3-0.3-0.4
						l-0.1-0.1l0,0c0,0,0,0,0-0.1c-0.1-0.2-0.3-0.4-0.4-0.5c-0.2-0.2-0.3-0.4-0.4-0.5c-3.2-3.8-8.7-5-14-2.8
						c-4,1.6-8.3,5.3-9.8,11.3c-0.9-4.6-1-9.3-0.3-13.8c0.5-4,1.8-8,3.5-11.9l0.2-0.4c6.7-14.4,19.7-18.4,28.9-17.4
						c8.8,0.9,15.4,6.1,16.9,13.3c1.5,7.3-1.4,11.1-3.4,12.7c-2.5,2.1-5.9,2.8-8.4,1.8c-1.8-0.7-2.9-2.3-3.1-4.4
						c-0.1-1.2,0.3-2.1,1-2.6c0.4-0.3,1.1-0.4,1.4-0.1c0.4,0.3,0.4,1.1,0.4,1.4c-0.1,1,0.5,1.8,1.5,2c1,0.2,1.8-0.5,2-1.5
						c0.3-2-0.4-3.8-2-4.7c-1.5-1-3.5-0.9-5.1,0.1c-2,1.2-2.8,3.4-2.6,5.9c0.4,3.5,2.2,6,5.2,7.3c3.7,1.5,8.5,0.5,12-2.3
						c4.3-3.5,5.9-9.5,4.5-16.1c-1.8-8.5-9.4-14.7-19.5-16c-0.2,0-0.4,0-0.5-0.1c-9.4-1-22.9,2.7-30.7,16.1
						c-0.8-1.4-1.8-2.7-2.9-3.6c-3.5-3.1-7.9-3.9-10.9-2c-4.2,2.7-4.4,6.7-2.9,9.2c1.5,2.5,4.3,3.3,6.7,2c1.2-0.7,2-2,2-3.3
						c0-1.2-0.6-2.2-1.6-2.7c-1-0.5-2.1-0.4-3.2,0.4c-0.7,0.5-1,1.5-0.5,2.3c-0.2-0.2-0.3-0.4-0.4-0.4c-0.7-1.2-0.6-3,1.8-4.5
						c1.7-1.1,4.5-0.4,6.7,1.6c1.5,1.3,2.7,3.2,3.2,5.1c-1.7,3.9-2.8,7.9-3.5,11.9c-0.2,1.1-0.3,2.2-0.4,3.3
						c-0.9,10.6,2.1,19.3,4.8,24.8c1,2,1.9,3.5,2.7,4.7l25.5,42.5l0.6,1.1c0.3,0.4,0.7,1.1,1.2,1.9c0.6,1,1.3,2.2,2,3.7
						c0.6,1.8,1,3.6,1.2,5.6c0.6,8-4.1,12.8-8.3,14.5c-3.9,1.6-7.8,0.9-10-1.8c-0.2-0.2-0.4-0.4-0.4-0.6c0-0.1-0.1-0.1-0.1-0.2
						c-0.1-0.2-0.3-0.4-0.4-0.5c0,0,0-0.1-0.1-0.1c-0.3-0.4-0.4-0.8-0.5-1.2c-0.4-1.2-0.4-2-0.2-2.8c0,0,0,0,0-0.1s0.1-0.2,0.1-0.3
						v-0.1c0-0.1,0.1-0.2,0.1-0.3c0.5-1.2,1.6-2.2,2.7-2.3c0.1,0,0.1,0,0.2,0s0.2,0,0.3,0l0,0c0.1,0,0.2,0,0.3,0.1h0.1
						c0.1,0,0.1,0.1,0.2,0.1c0.1,0.1,0.2,0.1,0.3,0.2c-0.4-0.2-0.9-0.2-1.2,0c0,0-0.1,0-0.1,0.1l0,0c-0.1,0-0.2,0.1-0.3,0.2l0,0
						c-0.1,0.1-0.2,0.1-0.3,0.2c0,0,0,0-0.1,0.1c-0.1,0.1-0.1,0.1-0.2,0.2c-0.1,0.1-0.1,0.2-0.2,0.3c0,0.1-0.1,0.2-0.1,0.3v0.1
						c0,0.1,0,0.1,0,0.2c0,0.1,0,0.1,0,0.2c0,0.1,0,0.1,0,0.2c0,0.1,0,0.1,0,0.2l0,0c0,0.1,0.1,0.2,0.1,0.3c0.5,1.3,1.5,2.1,2.8,2.2
						c1.2,0.1,2.4-0.5,3.1-1.7c0.8-1.2,0.6-2.9-0.3-4.3c-0.1-0.2-0.3-0.4-0.4-0.5l-0.1-0.1c-0.2-0.2-0.3-0.3-0.4-0.4l-0.1-0.1
						c-0.1-0.1-0.3-0.2-0.4-0.3l-0.1-0.1c-0.2-0.1-0.4-0.2-0.4-0.3c-0.1,0-0.2-0.1-0.2-0.1c-0.2-0.1-0.4-0.2-0.5-0.2
						c-0.1,0-0.2-0.1-0.3-0.1c-0.1,0-0.3-0.1-0.4-0.1s-0.2,0-0.3-0.1c-0.1,0-0.3,0-0.4,0s-0.2,0-0.3,0c-0.2,0-0.4,0-0.6,0
						c-2.3,0.3-4.5,2-5.5,4.4c-0.1,0.2-0.2,0.4-0.2,0.5c0,0.1,0,0.1-0.1,0.2c0,0.1-0.1,0.3-0.1,0.4c0,0.1,0,0.2-0.1,0.3
						c0,0.1-0.1,0.2-0.1,0.4c0,0.1,0,0.2,0,0.3s0,0.2,0,0.3s0,0.2,0,0.3c0,0.1,0,0.2,0,0.3c0,0.1,0,0.2,0,0.3c0,0.1,0,0.2,0,0.3
						c0,0.1,0,0.2,0,0.4c0,0.1,0,0.2,0,0.2c0,0.1,0,0.3,0,0.4v0.1c0.1,0.5,0.2,1,0.4,1.5c0,0,0,0,0,0.1c0.1,0.2,0.1,0.3,0.2,0.4v0.1
						c0.1,0.2,0.1,0.3,0.2,0.4c0,0,0,0.1,0.1,0.1c0.1,0.2,0.2,0.3,0.3,0.4c0,0,0,0.1,0.1,0.1c0.1,0.2,0.2,0.3,0.3,0.4v0.1
						c0.2,0.4,0.4,0.6,0.6,1c0.1,0.2,0.3,0.4,0.4,0.5c3.2,3.8,8.7,5,14,2.8c4-1.6,8.3-5.3,9.8-11.3c0.9,4.6,1,9.3,0.3,13.8
						c-0.5,4-1.8,8-3.5,11.9l-0.2,0.4c-6.7,14.4-19.7,18.4-28.9,17.4c-8.8-0.9-15.4-6.1-16.9-13.3c-1.5-7.3,1.4-11.1,3.4-12.7
						c2.5-2.1,5.9-2.8,8.4-1.8c1.8,0.7,2.9,2.3,3.1,4.4c0.1,1.2-0.3,2.1-1,2.6c-0.4,0.3-1.1,0.4-1.4,0.1c-0.4-0.3-0.4-1.1-0.4-1.4
						c0.1-1-0.5-1.8-1.5-2c-1-0.1-1.8,0.5-2,1.5c-0.3,2,0.4,3.8,2,4.7c1.5,1,3.5,0.9,5.1-0.1c2-1.2,2.8-3.4,2.6-5.9
						c-0.4-3.5-2.2-6-5.2-7.3c-3.7-1.5-8.5-0.5-12,2.3c-4.3,3.5-5.9,9.5-4.5,16.1c1.8,8.5,9.4,14.7,19.5,16c0.2,0,0.4,0,0.5,0.1
						c9.4,1,22.9-2.7,30.7-16.1c0.8,1.4,1.8,2.7,2.9,3.6c3.5,3.1,7.9,3.9,10.9,2c4.2-2.7,4.4-6.7,2.9-9.2
						C134.6,171.1,131.9,170.2,129.5,171.7z"/>
				</g>
			</g>
			<g>
				<path class="st0" d="M137.3,232.4h-1.1v-0.7h1.1V232.4z"/>
				<path class="st0" d="M49.5,232.9H46v-0.7h3.5V232.9z"/>
				<g>
					<rect x="37.5" y="205.5" class="st0" width="4" height="22.2"/>
					<polygon class="st0" points="20.4,211.4 19.4,209.4 17.4,205.5 13,205.5 14.9,209.4 24.3,227.6 26.5,223.3 					"/>
					<polygon class="st0" points="29.1,209.4 26.5,214.5 28.7,218.9 33.6,209.4 35.5,205.5 31.1,205.5 					"/>
					<polygon class="st0" points="185.8,223.7 176.6,205.5 174.4,209.7 180.4,221.6 180.4,221.6 181.4,223.7 183.4,227.6 
						187.9,227.6 					"/>
					<polygon class="st0" points="167.3,223.7 165.3,227.6 169.7,227.6 171.7,223.7 174.4,218.5 172.2,214.1 					"/>
					<polygon class="st0" points="62.9,219.6 48.6,208.6 44.7,205.6 44.7,227.7 48.6,227.7 48.6,213.6 62.9,224.5 66.8,227.7 
						66.8,205.5 62.9,205.5 					"/>
					<path class="st0" d="M138.1,216.5c0,3.9-3.2,7.1-7.1,7.1s-7.1-3.2-7.1-7.1v-11.1h-4v11.1c0,6.1,5,11.1,11.1,11.1
						s11.1-5,11.1-11.1v-11.1h-4V216.5z"/>
					<path class="st0" d="M149.2,220.9v-15.5h-4v15.1c0,1.1,0.3,2.1,0.7,3.1c0.6,1.4,1.8,2.6,3.2,3.2c1,0.4,2,0.7,3.1,0.7h11.3v-4
						h-11.6C150.4,223.5,149.4,222.3,149.2,220.9z"/>
					<path class="st0" d="M114.3,214.6c0.6-0.9,1-2,1-3.2c0-3.3-2.7-5.9-5.9-5.9H95.2v4h14c1.1,0,2,0.9,2,2c0,1.1-0.9,2-2,2H91.2v4
						h19.3c1.7,0,3.1,1.4,3.1,3.1c0,1.7-1.4,3.1-3.1,3.1l0,0H95.3v4h15.1c3.9,0,7.1-3.2,7.1-7.1
						C117.5,218.1,116.2,215.9,114.3,214.6z"/>
					<path class="st0" d="M74,221.6v-2.8v-1.3h5.9h8.3v-4H74l0,0H70v4v1.3v2.8c0,3.3,2.7,5.9,5.9,5.9h16.1v-4H76
						C74.8,223.7,74,222.7,74,221.6z"/>
					<polygon class="st0" points="92.1,209.4 92.1,205.5 74,205.5 70,205.5 70,209.4 74,209.4 					"/>
				</g>
				<g>
					<path class="st0" d="M40.4,232.9l-0.4,0.9l-2,4l-2-4l-0.4-0.9h1l0.4,0.9l1.1,2.1l1.1-2.1l0.4-0.9H40.4z"/>
					<path class="st0" d="M41.9,237.8v-4.9h0.9v4.9H41.9z"/>
					<path class="st0" d="M49.5,233.7v4.1l-0.9-0.7l-3.1-2.4v3.1h-0.9v-4.9l0.9,0.7l3.1,2.4v-2.3H49.5z"/>
					<path class="st0" d="M52,234.2v0.4h3.1v0.9H52v0.9c0,0.3,0.2,0.4,0.4,0.4H56v0.9h-3.5c-0.7,0-1.3-0.6-1.3-1.3v-2.2
						c0-0.7,0.6-1.3,1.3-1.3H56v0.9h-3.5C52.2,233.8,52,234,52,234.2z"/>
					<path class="st0" d="M60.3,232.9c1.3,0,2.5,1.1,2.5,2.5c0,0.6-0.2,1.2-0.6,1.6c0,0.1-0.1,0.1-0.2,0.2c-0.4,0.4-1.1,0.7-1.7,0.7
						h-2.5V233L60.3,232.9z M58.7,237h1.6c0.9,0,1.6-0.7,1.6-1.6c0-0.9-0.7-1.6-1.6-1.6h-1.6V237z"/>
					<path class="st0" d="M69.2,235.4c0,1.3-1.1,2.5-2.5,2.5c-1.3,0-2.5-1.1-2.5-2.5c0-1.3,1.1-2.5,2.5-2.5
						C68.1,232.9,69.2,234,69.2,235.4z M68.4,235.4c0-0.9-0.7-1.6-1.6-1.6s-1.6,0.7-1.6,1.6c0,0.9,0.7,1.6,1.6,1.6
						S68.4,236.3,68.4,235.4z"/>
					<path class="st0" d="M77.7,232.9c1.3,0,2.5,1.1,2.5,2.5c0,0.6-0.2,1.2-0.6,1.6c0,0.1-0.1,0.1-0.2,0.2c-0.4,0.4-1.1,0.7-1.7,0.7
						h-2.5V233L77.7,232.9z M76.1,237h1.6c0.9,0,1.6-0.7,1.6-1.6c0-0.9-0.7-1.6-1.6-1.6h-1.6V237z"/>
					<path class="st0" d="M82.7,234.2v0.4h3.1v0.9h-3.1v0.9c0,0.3,0.2,0.4,0.4,0.4h3.5v0.9h-3.5c-0.7,0-1.3-0.6-1.3-1.3v-2.2
						c0-0.7,0.6-1.3,1.3-1.3h3.5v0.9h-3.5C82.9,233.8,82.7,234,82.7,234.2z"/>
					<path class="st0" d="M97.9,232.9v2.5c0,1.3-1.1,2.5-2.5,2.5c-1.3,0-2.5-1.1-2.5-2.5v-2.5h0.9v2.5c0,0.9,0.7,1.6,1.6,1.6
						c0.9,0,1.6-0.7,1.6-1.6v-2.5H97.9z"/>
					<path class="st0" d="M104.3,232.9l-0.4,0.9l-2,4l-2-4l-0.4-0.9h1l0.4,0.9l1.1,2.1l1.1-2.1l0.4-0.9H104.3z"/>
					<path class="st0" d="M109,237.8h-1l-0.4-0.9l-1.1-2.1l-1.1,2.1l-0.4,0.9h-1l0.4-0.9l2-4l2,4L109,237.8z"/>
					<path class="st0" d="M113.9,234.3L113.9,234.3c0-0.3-0.2-0.4-0.4-0.4h-2c-0.3,0-0.4,0.2-0.4,0.4l0,0c0,0.3,0.2,0.4,0.4,0.4h1.8
						c0.4,0,0.9,0.2,1.2,0.5c0,0,0,0,0.1,0.1c0.2,0.3,0.4,0.6,0.4,1c0,0.9-0.7,1.5-1.5,1.5h-1.5c-0.9,0-1.5-0.7-1.5-1.5h0.9
						c0,0.4,0.3,0.7,0.7,0.7h1.5c0.4,0,0.7-0.3,0.7-0.7c0-0.4-0.3-0.7-0.7-0.7h-1.8c-0.4,0-0.7-0.2-0.9-0.4
						c-0.1-0.1-0.1-0.1-0.2-0.2c-0.2-0.2-0.3-0.4-0.3-0.7l0,0c0-0.7,0.6-1.3,1.3-1.3h2c0.7,0,1.3,0.6,1.3,1.3l0,0L113.9,234.3z"/>
					<path class="st0" d="M121.9,234.2v0.4h3.1v0.9h-3.1v0.9c0,0.3,0.2,0.4,0.4,0.4h3.5v0.9h-3.5c-0.7,0-1.3-0.6-1.3-1.3v-2.2
						c0-0.7,0.6-1.3,1.3-1.3h3.5v0.9h-3.5C122,233.8,121.9,234,121.9,234.2z"/>
					<path class="st0" d="M127.5,237.8L127.5,237.8L127.5,237.8L127.5,237.8z M132.3,232.9l-1.9,2.5l1.9,2.5h-1.1l-1.3-1.7l-1.3,1.7
						h-1.1l1.9-2.5l-1.9-2.5h1.1l1.3,1.8l1.3-1.8H132.3L132.3,232.9z M132.3,237.9L132.3,237.9L132.3,237.9L132.3,237.9z"/>
					<path class="st0" d="M138,235.4c0,1.3-1.1,2.5-2.5,2.5c-1.3,0-2.5-1.1-2.5-2.5c0-1.3,1.1-2.5,2.5-2.5
						C136.9,232.9,138,234,138,235.4z M137.1,235.4c0-0.9-0.7-1.6-1.6-1.6c-0.9,0-1.6,0.7-1.6,1.6c0,0.9,0.7,1.6,1.6,1.6
						C136.4,237,137.1,236.3,137.1,235.4z"/>
					<path class="st0" d="M144,232.9v0.9h-2v4h-0.9v-4h-2v-0.9H144z"/>
					<path class="st0" d="M145.7,237.8v-4.9h0.9v4.9H145.7z"/>
					<path class="st0" d="M149.2,235.4c0,0.9,0.7,1.6,1.6,1.6h2.5v0.9h-2.5c-1.3,0-2.5-1.1-2.5-2.5c0-1.3,1.1-2.5,2.5-2.5h2.5v0.9
						h-2.5C149.9,233.8,149.2,234.5,149.2,235.4z"/>
					<path class="st0" d="M159.7,237.8h-1l-0.4-0.9l-1.1-2.1l-1.1,2.1l-0.4,0.9h-1l0.4-0.9l2-4l2,4L159.7,237.8z"/>
					<path class="st0" d="M164.5,234.3L164.5,234.3c0-0.3-0.2-0.4-0.4-0.4h-2c-0.3,0-0.4,0.2-0.4,0.4l0,0c0,0.3,0.2,0.4,0.4,0.4h1.8
						c0.4,0,0.9,0.2,1.2,0.5c0,0,0,0,0.1,0.1c0.2,0.3,0.4,0.6,0.4,1c0,0.9-0.7,1.5-1.5,1.5h-1.7c-0.9,0-1.5-0.7-1.5-1.5h0.9
						c0,0.4,0.3,0.7,0.7,0.7h1.5c0.4,0,0.7-0.3,0.7-0.7c0-0.4-0.3-0.7-0.7-0.7h-1.8c-0.4,0-0.7-0.2-0.9-0.4
						c-0.1-0.1-0.1-0.1-0.2-0.2c-0.2-0.2-0.3-0.4-0.3-0.7l0,0c0-0.7,0.6-1.3,1.3-1.3h2c0.7,0,1.3,0.6,1.3,1.3l0,0L164.5,234.3z"/>
				</g>
				<path class="st0" d="M28.4,235.7h-6.3V235h6.4L28.4,235.7L28.4,235.7z"/>
				<path class="st0" d="M180.2,235.7h-6.4V235h6.4V235.7z"/>
			</g>
		</g>
	</g>
</g>
</svg>
