<svg id="Layer_1" data-name="Layer 1" xmlns="http://www.w3.org/2000/svg" viewBox="0 0 50.07 82.63"><defs><style>.cls-1{fill:#fff;}</style></defs><title>LOGO_ICONO_BLANCO</title><path class="cls-1" d="M29.17,7.52a3.89,3.89,0,0,0,.52.34,2.75,2.75,0,0,0,.42.16l.49,0c.35,0,.32-.16.16-.33a.91.91,0,0,0-.22-.13l-.32-.16a1.38,1.38,0,0,0-1-.12C29.07,7.32,29,7.41,29.17,7.52Z" transform="translate(-3.38 -1)"/><path class="cls-1" d="M30.63,13.38l-.19.07a2.36,2.36,0,0,1-1,.17l.24-.06v0l-.25,0v0l.29-.07h0l-.43,0h0l.19-.05a1.06,1.06,0,0,1-.63-.1v-.18c0,.05-.09.11-.14.15a.8.8,0,0,1-.56.15A1.3,1.3,0,0,1,27,12.81c-.13-.24-.14-.23.06-.41-.19-.12-.2-.13-.23-.26a.39.39,0,0,0,.37-.08h-.09a.31.31,0,0,1-.37-.15,1.21,1.21,0,0,1-.25-.75l-.15.21c-.1-.21-.21-.4-.29-.61a.43.43,0,0,1,0-.25c0-.29,0-.57.07-.85,0,0,0-.07,0-.09s-.11,0-.13,0a.19.19,0,0,1,0-.13A1.55,1.55,0,0,1,26,9.22a4.26,4.26,0,0,1,.26-.62,2.9,2.9,0,0,1,1-1s.1-.06,0-.11a.11.11,0,0,0-.11,0,3.72,3.72,0,0,0-.45.33A6.88,6.88,0,0,0,25.86,9a1.79,1.79,0,0,0-.38,1,.17.17,0,0,1,0,.07,1.49,1.49,0,0,0,0,.81,1,1,0,0,0,.08.2l.13-.23,0,0,0,.06a1.54,1.54,0,0,1,.15.89c0,.08-.08.1-.15.05a2,2,0,0,1-.18-.13c.12.31.25.61.39.91a.89.89,0,0,0,.35.37,1.73,1.73,0,0,1,.28.26l.18.17.48.33a.42.42,0,0,0,.12.08l.74.25a2.13,2.13,0,0,0,.25,0v0l-.2-.1v0a3.63,3.63,0,0,1,.87,0H30c0,.12,0,.12-.14.14a.82.82,0,0,1-.31,0,2.66,2.66,0,0,0-.89,0,.15.15,0,0,0-.07,0v0l.19.08a.63.63,0,0,0,.58.05.28.28,0,0,1,.18,0,2,2,0,0,0,.79-.15l.52-.2A.56.56,0,0,0,31,13.7l.5-.79a1,1,0,0,0,.1-.17.18.18,0,0,0-.1.07A1.7,1.7,0,0,1,30.63,13.38Zm-4.85-4.1a.56.56,0,0,0-.1.53c0,.06,0,.14,0,.22a1.27,1.27,0,0,1,.48-1.27c-.06.09-.12.17-.17.26S25.84,9.2,25.78,9.28Zm.79,3.19a.16.16,0,0,1-.07-.07s0-.05,0-.05.06,0,.11.07S26.58,12.48,26.57,12.47Zm.58.93a.88.88,0,0,0-.1-.22,1.51,1.51,0,0,0-.22-.11c.07-.06.18,0,.28.08S27.21,13.34,27.15,13.4Zm3.05.6.84-.55,0,0A2,2,0,0,1,30.2,14Z" transform="translate(-3.38 -1)"/><path class="cls-1" d="M27.16,12.86a2.73,2.73,0,0,0,.47.37,1.59,1.59,0,0,0,.36.16l.43-.08c.29-.07.25-.23.1-.41a.74.74,0,0,0-.19-.15,1.64,1.64,0,0,0-.29-.16.8.8,0,0,0-.82-.06C27.06,12.62,27,12.74,27.16,12.86Z" transform="translate(-3.38 -1)"/><path class="cls-1" d="M32.7,10.36l-.07-.08a.23.23,0,0,0-.07.1c0,.06,0,.12,0,.18a3.18,3.18,0,0,1-.52,1.77.18.18,0,0,0,0,.07s0,.07,0,.08a.15.15,0,0,0,.09,0s0-.05,0-.07a3.36,3.36,0,0,0,.54-1.8v-.24Z" transform="translate(-3.38 -1)"/><path class="cls-1" d="M27.18,11.61a.52.52,0,0,0-.42-.29c-.12,0-.17,0-.13.15a3,3,0,0,0,.15.31.38.38,0,0,0,.32.22c.18,0,.23-.06.2-.17S27.21,11.69,27.18,11.61Z" transform="translate(-3.38 -1)"/><path class="cls-1" d="M25.78,11.79a.08.08,0,0,0,0-.06,1.62,1.62,0,0,0,0-.22.45.45,0,0,0-.14-.36.49.49,0,0,0,0,.63S25.77,11.8,25.78,11.79Z" transform="translate(-3.38 -1)"/><path class="cls-1" d="M29,6.48a4.21,4.21,0,1,0,4.21,4.21A4.22,4.22,0,0,0,29,6.48Zm0,8a3.76,3.76,0,1,1,3.75-3.76A3.77,3.77,0,0,1,29,14.45Z" transform="translate(-3.38 -1)"/><path class="cls-1" d="M39.35,28.31a2.62,2.62,0,0,0,2.78-2,.11.11,0,0,0-.19-.09c-.3.36-.48.8-.81,1.15a2.26,2.26,0,0,1-1.75.77C39.27,28.13,39.23,28.29,39.35,28.31Z" transform="translate(-3.38 -1)"/><path class="cls-1" d="M41.83,26.44a2.19,2.19,0,0,0,1,3,.17.17,0,0,0,.14-.3,1.71,1.71,0,0,1-1-1.55c0-.39.08-.76.09-1.14C42,26.41,41.87,26.37,41.83,26.44Z" transform="translate(-3.38 -1)"/><path class="cls-1" d="M38.55,28.16a2.16,2.16,0,0,1,1.39,1.18A5.53,5.53,0,0,1,40.13,31a.11.11,0,0,0,.2,0A2.25,2.25,0,0,0,38.58,28C38.49,28,38.47,28.13,38.55,28.16Z" transform="translate(-3.38 -1)"/><path class="cls-1" d="M40.26,30.92a7,7,0,0,1,1.22-1,3,3,0,0,1,1.82-.22.11.11,0,0,0,.06-.2c-1.16-.68-2.61.31-3.26,1.27C40,30.85,40.15,31,40.26,30.92Z" transform="translate(-3.38 -1)"/><path class="cls-1" d="M44,29.83l.42.28a3.92,3.92,0,0,0,.32.25.11.11,0,0,0,.14-.05c.12-.32-.54-.6-.75-.7S43.89,29.75,44,29.83Z" transform="translate(-3.38 -1)"/><path class="cls-1" d="M41.88,30.76a1.48,1.48,0,0,1,.17.41,2.83,2.83,0,0,0,.08.4.1.1,0,0,0,.18,0,1.16,1.16,0,0,0-.23-1C42,30.49,41.8,30.63,41.88,30.76Z" transform="translate(-3.38 -1)"/><path class="cls-1" d="M39.93,31.58a4.55,4.55,0,0,1-.33.79,4.64,4.64,0,0,0-.39.77c0,.11.09.2.16.11a4,4,0,0,0,.48-.82,5.64,5.64,0,0,0,.31-.81C40.2,31.48,40,31.44,39.93,31.58Z" transform="translate(-3.38 -1)"/><path class="cls-1" d="M38.34,30.28a1.3,1.3,0,0,1,.32-.14,3,3,0,0,0,.32-.06.1.1,0,0,0,0-.18.88.88,0,0,0-.79.18C38.07,30.17,38.21,30.35,38.34,30.28Z" transform="translate(-3.38 -1)"/><path class="cls-1" d="M36.22,26.73l1,.32a4,4,0,0,0,.89.26.1.1,0,0,0,.06-.18,4.2,4.2,0,0,0-.9-.32l-.91-.29C36.17,26.48,36.07,26.68,36.22,26.73Z" transform="translate(-3.38 -1)"/><path class="cls-1" d="M39.13,26.2a1.35,1.35,0,0,0,.41.66.1.1,0,0,0,.15-.11,6.61,6.61,0,0,0-.34-.64C39.3,26,39.09,26.05,39.13,26.2Z" transform="translate(-3.38 -1)"/><path class="cls-1" d="M43.4,23.1c-.06.61-.31,1.17-.4,1.77a.1.1,0,0,0,.18.06,4.61,4.61,0,0,0,.45-1.82C43.63,23,43.41,23,43.4,23.1Z" transform="translate(-3.38 -1)"/><path class="cls-1" d="M43.37,27.58c.21,0,.43-.06.64-.09a1.22,1.22,0,0,0,.54-.16.11.11,0,0,0,0-.19,1.5,1.5,0,0,0-.59.07,5.63,5.63,0,0,0-.59.14C43.19,27.4,43.24,27.61,43.37,27.58Z" transform="translate(-3.38 -1)"/><path class="cls-1" d="M14.87,56.64a2.72,2.72,0,0,0,.18-3.57.11.11,0,0,0-.19.1c.1.48.34.91.41,1.41a2.34,2.34,0,0,1-.52,1.92C14.67,56.59,14.78,56.72,14.87,56.64Z" transform="translate(-3.38 -1)"/><path class="cls-1" d="M15,53.4a2.28,2.28,0,0,0,3.12,1.19.17.17,0,0,0-.16-.31A1.76,1.76,0,0,1,16,54.12c-.33-.24-.57-.57-.88-.82C15.06,53.25,14.94,53.32,15,53.4Z" transform="translate(-3.38 -1)"/><path class="cls-1" d="M14.23,57.19a2.22,2.22,0,0,1,1.86-.36,5.74,5.74,0,0,1,1.49.93.11.11,0,0,0,.16-.14,2.35,2.35,0,0,0-3.63-.57C14.05,57.12,14.15,57.24,14.23,57.19Z" transform="translate(-3.38 -1)"/><path class="cls-1" d="M17.59,57.6a7,7,0,0,1,0-1.65,3.12,3.12,0,0,1,1-1.63.11.11,0,0,0-.13-.18c-1.3.51-1.44,2.32-1.09,3.48C17.39,57.74,17.59,57.74,17.59,57.6Z" transform="translate(-3.38 -1)"/><path class="cls-1" d="M19.15,53.84a4.16,4.16,0,0,1,.5-.16,3.06,3.06,0,0,0,.41-.1.11.11,0,0,0,.05-.14c-.19-.31-.83,0-1.05.15S19,53.88,19.15,53.84Z" transform="translate(-3.38 -1)"/><path class="cls-1" d="M18.52,56.17a1.71,1.71,0,0,1,.44.13,2.75,2.75,0,0,0,.38.2.1.1,0,0,0,.12-.14,1.24,1.24,0,0,0-.93-.44C18.37,55.91,18.36,56.15,18.52,56.17Z" transform="translate(-3.38 -1)"/><path class="cls-1" d="M17.91,58.3a4.9,4.9,0,0,1,.42.78,7.81,7.81,0,0,0,.38.83c.06.09.22.05.19-.07a3.8,3.8,0,0,0-.35-.92,5.14,5.14,0,0,0-.46-.78C18,58,17.83,58.18,17.91,58.3Z" transform="translate(-3.38 -1)"/><path class="cls-1" d="M15.81,58.74a1.4,1.4,0,0,1,.1-.35c.05-.11.12-.19.16-.3a.1.1,0,0,0-.14-.12.89.89,0,0,0-.37.76C15.55,58.89,15.79,58.9,15.81,58.74Z" transform="translate(-3.38 -1)"/><path class="cls-1" d="M11.54,58.16l.89-.57a5.32,5.32,0,0,0,.79-.55.11.11,0,0,0-.12-.17,4.88,4.88,0,0,0-.84.52l-.83.56C11.31,58,11.41,58.24,11.54,58.16Z" transform="translate(-3.38 -1)"/><path class="cls-1" d="M13,55.44a1.41,1.41,0,0,0,.81.1.11.11,0,0,0,0-.2c-.23-.09-.51-.06-.74-.14A.13.13,0,0,0,13,55.44Z" transform="translate(-3.38 -1)"/><path class="cls-1" d="M13.27,50c.46.44.76,1,1.18,1.47a.1.1,0,0,0,.17-.11,4.59,4.59,0,0,0-1.19-1.54C13.33,49.68,13.18,49.85,13.27,50Z" transform="translate(-3.38 -1)"/><path class="cls-1" d="M16.9,52.89c.11-.2.23-.39.34-.58a1.11,1.11,0,0,0,.22-.54.11.11,0,0,0-.18-.09,1.69,1.69,0,0,0-.33.53,5,5,0,0,0-.27.57C16.64,52.91,16.84,53,16.9,52.89Z" transform="translate(-3.38 -1)"/><path class="cls-1" d="M49.71,37.64a4.12,4.12,0,0,0-.54-1.58A4.15,4.15,0,0,0,45.54,34a4.19,4.19,0,0,0-1.9.45,4.62,4.62,0,0,0-.8.53,4.29,4.29,0,0,0-.76.83,4.15,4.15,0,0,0-.72,1.89,4.36,4.36,0,0,0,0,.51c0,.13,0,.26,0,.38a4.13,4.13,0,0,0,1,2.31,3.88,3.88,0,0,0,.65.63,4.2,4.2,0,0,0,3.77.72,3.74,3.74,0,0,0,.66-.25l.3-.17a4.49,4.49,0,0,0,.57-.4,5.3,5.3,0,0,0,.53-.53,4.33,4.33,0,0,0,.41-.61,4,4,0,0,0,.49-1.33,4.54,4.54,0,0,0,.07-.75A3.27,3.27,0,0,0,49.71,37.64Zm-4.17-3.21a3.75,3.75,0,0,1,2.62,1.07,9.19,9.19,0,0,1-3.9-.85A3.63,3.63,0,0,1,45.54,34.43Zm-3.76,3.75a3,3,0,0,1,0-.42,3.13,3.13,0,0,0,1.06,0c.5-.08,1.17-.33,1.34-.86s-.38-1-.92-1.16a2.84,2.84,0,0,0-.58,0,4.11,4.11,0,0,1,.57-.53l.85.54a6.71,6.71,0,0,0,1.74.63,4.2,4.2,0,0,0,1.77.37,3.52,3.52,0,0,0,1.14-.43,3.74,3.74,0,0,1,.47,1.35c-1.22,0-2.43-.3-3.67-.21a3.08,3.08,0,0,0-1.22.36,4.43,4.43,0,0,1-1.53.61l-1,.11C41.79,38.4,41.78,38.29,41.78,38.18Zm3.76,3.76a3.69,3.69,0,0,1-1.84-.49,4.53,4.53,0,0,1,.89.08,10.58,10.58,0,0,1,1.64.34A4,4,0,0,1,45.54,41.94Zm3.18-1.76-.33,0a1.34,1.34,0,0,0-.79.1c-.42.27-.22.72-.07,1.12a2.94,2.94,0,0,1-.46.25A3.19,3.19,0,0,0,45.38,41a10.54,10.54,0,0,0-1.67-.26,6.25,6.25,0,0,0-.86.08,3.61,3.61,0,0,1-.61-.84,5,5,0,0,1,1.84.29,4.65,4.65,0,0,0,2.4,0,1.31,1.31,0,0,0,.65-.28c.31-.29.25-.68.76-.79s.78-.06,1.17-.12l.13,0A3.81,3.81,0,0,1,48.72,40.18Z" transform="translate(-3.38 -1)"/><path class="cls-1" d="M53.4,7.62a1.48,1.48,0,0,0,0-.24c0-.11,0-.2-.08-.29s-.06-.17-.1-.26A2.32,2.32,0,0,0,53,6.44a1.91,1.91,0,0,0-.16-.27,3.66,3.66,0,0,0-5.59-.65L47,5.77a3.79,3.79,0,0,0-.34.45c-.05.09-.11.18-.16.28a3.79,3.79,0,0,0-.18.42,1.83,1.83,0,0,0-.08.25,1.64,1.64,0,0,0-.07.28c0,.09,0,.17,0,.26a3.87,3.87,0,0,0,0,.48v.1c0,.09,0,.17,0,.26a2.76,2.76,0,0,0,.06.4,2.5,2.5,0,0,0,.07.26c0,.09,0,.17.08.25s.07.17.11.26a4.29,4.29,0,0,0,.31.55c.07.09.13.18.2.26a3.83,3.83,0,0,0,.28.29l.29.26a3.31,3.31,0,0,0,.52.34,4.69,4.69,0,0,0,.46.21,3.66,3.66,0,0,0,4.67-2.05,1.34,1.34,0,0,0,.09-.26A2.59,2.59,0,0,0,53.37,9c0-.09,0-.17,0-.26l0-.25c0-.08,0-.17,0-.25A3.55,3.55,0,0,0,53.4,7.62ZM49.2,10a.32.32,0,0,0-.08-.28q-.33-.39-2.4-.39a1,1,0,0,1,0-.1,4.68,4.68,0,0,1,2.67.53.29.29,0,0,1,.09.24c-.06.51-1.12.63-1.77.66l-.14-.12C48.58,10.55,49.14,10.37,49.2,10Zm.63.05a.66.66,0,0,0-.19-.56c-.49-.51-1.93-.64-3.07-.66a2.17,2.17,0,0,1,0-.25c1.14,0,2.59.14,3.2.74a.82.82,0,0,1,.27.72,1,1,0,0,1-.39.75,2.33,2.33,0,0,1-1,.41,3,3,0,0,1-.36-.18C49.22,10.94,49.77,10.61,49.83,10.08Zm0,1.05a1.41,1.41,0,0,0,.54-1,1.27,1.27,0,0,0-.39-1c-.71-.7-2.29-.85-3.51-.85v0c0-.12,0-.24,0-.36a7.22,7.22,0,0,0,1,.07h0a2.69,2.69,0,0,0,1.57-.36,1,1,0,0,0,.1-1.5,2.43,2.43,0,0,0-1.35-.5,3.27,3.27,0,0,1,4.48.59,3.59,3.59,0,0,0-2,.54,1.39,1.39,0,0,0-.56,1,1.23,1.23,0,0,0,.37,1,4.27,4.27,0,0,0,2.65.87,3.3,3.3,0,0,1-3,1.86l-.44,0A2.94,2.94,0,0,0,49.86,11.13Zm-1.3-4.46s0,0,0,0a.31.31,0,0,1,0,.07,3.63,3.63,0,0,1-1.75.14,2.49,2.49,0,0,1,.16-.33A3.08,3.08,0,0,1,48.56,6.67ZM50.1,7.73A1.05,1.05,0,0,1,50.51,7a3.35,3.35,0,0,1,1.91-.45h.18l.13.24c-1.12,0-2.41.17-2.51,1a.67.67,0,0,0,.2.56A4,4,0,0,0,53,9a1.42,1.42,0,0,1-.07.22,4.17,4.17,0,0,1-2.52-.76A.88.88,0,0,1,50.1,7.73Zm2.91,0c0,.13,0,.27,0,.4a5.42,5.42,0,0,1-1.79-.22A4,4,0,0,1,53,7.71Z" transform="translate(-3.38 -1)"/><path class="cls-1" d="M12.59,77.19a2.83,2.83,0,0,0-.11-.31,3.67,3.67,0,0,0-.61-1.07q-.15-.18-.33-.36a3.89,3.89,0,1,0,1.05,1.74ZM9.66,75.58c-.15,0-.57.24-.94.41l-.23.11A.8.8,0,0,0,8,75.8a2.38,2.38,0,0,0-.66.16h0L7.2,76a.24.24,0,0,0,0,.47.67.67,0,0,0,.23-.06,3.71,3.71,0,0,1,.5-.13.17.17,0,0,1,.06,0H8l-.12,0c-.72.25-1.39.53-1.39,1v0c.08.38.58.4,1.06.42.29,0,.73,0,.83.15.88,1,1.1,1.09,1.72,1.12h.16a3.75,3.75,0,0,1,.53,0,.48.48,0,0,0,.26,0,.52.52,0,0,0,.21-.11,1.54,1.54,0,0,0,.43-1c0-.08,0-.16.05-.24a.42.42,0,0,1,.06-.14l.13-.07.22-.1a3.19,3.19,0,0,1,.1.8,3.41,3.41,0,1,1-1.49-2.82A5.32,5.32,0,0,0,9.66,75.58Z" transform="translate(-3.38 -1)"/><path class="cls-1" d="M6.34,78.38a.59.59,0,0,0-.07.36.54.54,0,0,1,0,.18,1.2,1.2,0,0,0,0,.27.78.78,0,0,0,.25.46.56.56,0,0,0,.26.11l.4.09a1.4,1.4,0,0,1,0,.67v0a.61.61,0,0,0,0,.17.59.59,0,0,0,.29.49,1.28,1.28,0,0,0,.4.14H8a.88.88,0,0,0,.69-.44,1.11,1.11,0,0,0,0-1l0-.08a.61.61,0,0,1-.05-.12h0L9,79.66a.26.26,0,0,0,.19-.22A.25.25,0,0,0,9,79.2H9a1.5,1.5,0,0,1-.82-.67l0,0a.69.69,0,0,0-.35-.32.52.52,0,0,0-.24,0,8.67,8.67,0,0,0-.89.06A.54.54,0,0,0,6.34,78.38Z" transform="translate(-3.38 -1)"/><path class="cls-1" d="M10.66,80.13l.18.07.08.18a.23.23,0,0,0,.21.14l.1,0a.23.23,0,0,0,.12-.31l-.11-.26a.23.23,0,0,0-.12-.12c-.32-.15-.39-.15-.43-.15a.23.23,0,0,0-.23.24A.23.23,0,0,0,10.66,80.13Z" transform="translate(-3.38 -1)"/><path class="cls-1" d="M11.25,79.9a.23.23,0,0,0,.14,0,.23.23,0,0,0,.19-.09l.15-.19a.25.25,0,0,0,0-.25.23.23,0,0,0-.21-.13h-.41a.24.24,0,0,0-.22.16.25.25,0,0,0,.08.27Z" transform="translate(-3.38 -1)"/><path class="cls-1" d="M32.59,72.84a2.77,2.77,0,0,0-.12-.41,4.53,4.53,0,0,0-.52-1l-.21-.28A4.27,4.27,0,0,0,30,70a2.55,2.55,0,0,0-.33-.11,4.34,4.34,0,0,0-1.13-.16,4.24,4.24,0,0,0-3.2,1.47l-.23.3a4.14,4.14,0,0,0-.66,1.45,2.29,2.29,0,0,0-.07.34,3.63,3.63,0,0,0-.05.65v.2c0,.11,0,.22,0,.35a4.24,4.24,0,0,0,.58,1.64,2.6,2.6,0,0,0,.25.36,4.16,4.16,0,0,0,3.35,1.67,4.24,4.24,0,0,0,3.93-2.71,4.37,4.37,0,0,0,.23-.86,4.62,4.62,0,0,0,0-.65A4.15,4.15,0,0,0,32.59,72.84ZM28.33,77a.24.24,0,0,0,.25.24,5.57,5.57,0,0,0,2.34-.61A3.62,3.62,0,0,1,26,76.5a12.57,12.57,0,0,0,3.48-.38,4,4,0,0,0,1.43-.61.22.22,0,0,0,0-.32.26.26,0,0,0-.38,0,5.06,5.06,0,0,1-1.34.53,12.47,12.47,0,0,1-3.67.31,3.55,3.55,0,0,1-.63-1.56,19.13,19.13,0,0,0,2-.46c1.53-.46,3.31-1.18,3.42-2.79a.23.23,0,0,0-.14-.23.26.26,0,0,0-.29,0A6.44,6.44,0,0,1,25,72.89a3.61,3.61,0,0,1,.6-1.19,3.23,3.23,0,0,0,2.56-.56.22.22,0,0,0,.09-.21.28.28,0,0,0-.17-.2.27.27,0,0,0-.26,0,2.64,2.64,0,0,1-1.81.48,3.59,3.59,0,0,1,2.47-1,3.44,3.44,0,0,1,.78.08,3.32,3.32,0,0,1-2.57,1.44.26.26,0,0,0-.24.28.23.23,0,0,0,.25.22,3.83,3.83,0,0,0,3.06-1.79,3.54,3.54,0,0,1,1.57,1.16l-.14.22A4.6,4.6,0,0,1,29,73.61c-.33.12-.68.23-1,.33s-.67.21-1,.33l-.09,0c-.28.1-.69.25-.78.56a.55.55,0,0,0,.09.5,1.82,1.82,0,0,0,1.32.34,7.55,7.55,0,0,0,3.29-1.3,8.25,8.25,0,0,0,1.27-1,2.56,2.56,0,0,1,0,.47,3.59,3.59,0,0,1-.29,1.41,4.78,4.78,0,0,1-3.28,1.4A.26.26,0,0,0,28.33,77Z" transform="translate(-3.38 -1)"/><path class="cls-1" d="M14.9,42c-.32-.72-1.49-.92-3.31-.57a4,4,0,0,0-1-.59A3.94,3.94,0,0,0,5.48,43a4.16,4.16,0,0,0-.26,1.16c-.24.18-.46.36-.65.53-1,.87-1.38,1.67-1.12,2.26a1.13,1.13,0,0,0,.65.57,5.24,5.24,0,0,0,2.62,0,4.21,4.21,0,0,0,1,.56,4,4,0,0,0,1.43.27,3.94,3.94,0,0,0,3.66-2.5,4,4,0,0,0,.25-1.08c.27-.2.51-.4.73-.59C14.76,43.36,15.16,42.56,14.9,42Zm-2.44,3.25a2.75,2.75,0,0,1-.14.49h0a3.47,3.47,0,0,1-1.81,1.88,3.42,3.42,0,0,1-2.61,0,3.49,3.49,0,0,1-.48-.23,17.46,17.46,0,0,0,5-2.19ZM9.14,41.06a3.37,3.37,0,0,1,1.24.24,3.43,3.43,0,0,1,.68.36,3,3,0,0,1,.35.27,3.44,3.44,0,0,1,.41.44,3.37,3.37,0,0,1,.21.31,3.5,3.5,0,0,1,.4.91A17.09,17.09,0,0,1,9.49,45.2a15.87,15.87,0,0,1-3.23,1.08,3.47,3.47,0,0,1-.39-.88A2.49,2.49,0,0,1,5.78,45a3,3,0,0,1,0-.6,3.4,3.4,0,0,1,0-.45,3.19,3.19,0,0,1,.2-.75A3.41,3.41,0,0,1,9.14,41.06Zm4.16,1.59,0,0s-.06.21-.48.58a3.73,3.73,0,0,0-.26-.61A1.7,1.7,0,0,1,13.3,42.65ZM5,46.33s.06-.2.43-.53a3.6,3.6,0,0,0,.26.57C5.21,46.42,5,46.35,5,46.33Z" transform="translate(-3.38 -1)"/><path class="cls-1" d="M7.4,67.23l1.76-.84-1-1.22.38-.26A3.77,3.77,0,0,1,8,62.49a3.58,3.58,0,0,1,2.41.47l.28-.37,1.21,1,.86-1.77a3.66,3.66,0,0,1,1.31,1.91l.5-.68a3.86,3.86,0,0,1,.57,3.59.38.38,0,0,1-.25.19,5.2,5.2,0,0,0-2.53,2.72,4,4,0,0,1-3.78-.51l.64-.49C8.05,68,7.68,67.72,7.4,67.23Z" transform="translate(-3.38 -1)"/><path class="cls-1" d="M46.3,69.88l.32,1.06.78-.49.12.24a2.17,2.17,0,0,1,1.4-.07A2,2,0,0,1,48.46,72l.19.18-.68.61.93.63a2.07,2.07,0,0,1-1.19.58l.34.34a2.22,2.22,0,0,1-2.08,0,.23.23,0,0,1-.08-.16,3,3,0,0,0-1.34-1.66,2.29,2.29,0,0,1,.61-2.09l.22.4C45.81,70.18,46,70,46.3,69.88Z" transform="translate(-3.38 -1)"/><path class="cls-1" d="M11.72,14.57,11.4,13.5l-.78.49-.12-.23a2.24,2.24,0,0,1-1.4.07,2.09,2.09,0,0,1,.46-1.33l-.18-.19.68-.6-.94-.63a2.14,2.14,0,0,1,1.19-.59L10,10.15a2.22,2.22,0,0,1,2.08,0s.08.1.09.16A3,3,0,0,0,13.47,12,2.27,2.27,0,0,1,12.86,14l-.22-.4C12.21,14.26,12,14.45,11.72,14.57Z" transform="translate(-3.38 -1)"/><path class="cls-1" d="M50.45,17.75l-1.76.84,1.05,1.22-.38.26a3.8,3.8,0,0,1,.47,2.41A3.59,3.59,0,0,1,47.42,22l-.27.37-1.22-1-.86,1.78a3.7,3.7,0,0,1-1.31-1.91l-.5.68a3.92,3.92,0,0,1-.57-3.59.35.35,0,0,1,.26-.19,5.3,5.3,0,0,0,2.53-2.73,4,4,0,0,1,3.77.52l-.64.49C49.8,17,50.17,17.26,50.45,17.75Z" transform="translate(-3.38 -1)"/><path class="cls-1" d="M30,27.16a3.62,3.62,0,0,1-1.61-.2l-1.92,3.76,3.36,6.58L36.15,25l3.07-6H32.73a5.37,5.37,0,0,1,.87,5.37A4.44,4.44,0,0,1,30,27.16Z" transform="translate(-3.38 -1)"/><polygon class="cls-1" points="23.14 42.88 19.78 36.3 18.72 38.37 11.39 23.99 8.32 17.99 1.6 17.99 4.67 23.99 18.72 51.56 23.14 42.88"/><path class="cls-1" d="M28,57.46a3.75,3.75,0,0,1,1.67.23l2-3.87-3.36-6.58-6.42,12.6-3,5.81-.1.18h6.67a5.45,5.45,0,0,1-1-5.56A4.49,4.49,0,0,1,28,57.46Z" transform="translate(-3.38 -1)"/><polygon class="cls-1" points="46.54 58.84 32.49 31.27 28.22 39.66 31.58 46.25 32.49 44.45 39.83 58.84 42.9 64.83 49.61 64.83 46.54 58.84"/><path class="cls-1" d="M41.69,73.23a1.76,1.76,0,0,0-.94,1.56,1.41,1.41,0,0,0,2.31,1.12.83.83,0,0,0,.23-1.11.84.84,0,0,1,.15.2c.33.53.3,1.42-.85,2.15-.79.51-2.15.18-3.22-.78a5,5,0,0,1-1.52-2.43,22.57,22.57,0,0,0,1.66-5.66c.08-.51.14-1,.18-1.56A23.19,23.19,0,0,0,37.4,54.86a24.66,24.66,0,0,0-1.19-2.16L24,32.42l-.54-.89c-.07-.11-.15-.22-.23-.36a19.65,19.65,0,0,1-1.13-2,11.09,11.09,0,0,1-.53-2.67,6.61,6.61,0,0,1,4-6.89,4.06,4.06,0,0,1,4.77.86l.17.22,0,.06.11.16,0,.06.12.2a.17.17,0,0,0,0,.05.91.91,0,0,1,.07.14.59.59,0,0,1,0,.08.76.76,0,0,1,0,.11.59.59,0,0,1,0,.08c0,.06,0,.11,0,.16l.06.25h0l0,.2v.05a.91.91,0,0,1,0,.17v0a2.22,2.22,0,0,1,0,.37v0l0,.12v0l0,.1v0s0,.08,0,.12a1.73,1.73,0,0,1-1.27,1.09h0a.88.88,0,0,1-.33,0h0l-.14-.07-.14-.11a.8.8,0,0,0,.61,0,1,1,0,0,0,.32-.22l0,0a.78.78,0,0,0,.11-.18,1.27,1.27,0,0,0,.06-.18h0a.65.65,0,0,0,0-.31.61.61,0,0,0,0-.13A1.55,1.55,0,0,0,28.89,22a1.58,1.58,0,0,0-1.47.79,1.9,1.9,0,0,0,.14,2,2.56,2.56,0,0,0,.2.26l0,.06.21.22.06,0,.17.14.09.06.22.13.12,0a.47.47,0,0,0,.15.06l.12.05.25.06.12,0,.19,0h.11a1.51,1.51,0,0,0,.3,0,3.33,3.33,0,0,0,2.64-2.1l.09-.26,0-.09a1.54,1.54,0,0,1,0-.17s0-.07,0-.1l0-.17s0-.07,0-.11,0-.1,0-.16,0-.07,0-.11,0-.1,0-.16v-.11a1,1,0,0,0,0-.17v-.1a1.94,1.94,0,0,0,0-.24v0a2.51,2.51,0,0,0,0-.27l0-.1a1.16,1.16,0,0,0,0-.18l0-.11c0-.05,0-.1,0-.16a.56.56,0,0,1,0-.12,1,1,0,0,0-.07-.15.61.61,0,0,0,0-.12,1,1,0,0,0-.07-.15l-.05-.12-.09-.16-.06-.11-.13-.2,0-.06h0l0,0a2.2,2.2,0,0,0-.17-.25,2,2,0,0,0-.22-.27A5.68,5.68,0,0,0,25,18.05a8,8,0,0,0-4.72,5.39,20.17,20.17,0,0,1-.14-6.62,21.09,21.09,0,0,1,1.66-5.67l.07-.15A13.58,13.58,0,0,1,35.59,2.72c4.19.44,7.38,2.94,8.1,6.35s-.7,5.29-1.61,6.06a4.14,4.14,0,0,1-4,.85,2.39,2.39,0,0,1-1.49-2.1A1.23,1.23,0,0,1,37,12.64a.66.66,0,0,1,.67-.05c.21.13.19.51.17.66a.83.83,0,0,0,.72.92.82.82,0,0,0,.92-.72,2.22,2.22,0,0,0-.92-2.26,2.29,2.29,0,0,0-2.43,0,2.8,2.8,0,0,0-1.24,2.83,4,4,0,0,0,2.52,3.45,5.8,5.8,0,0,0,5.71-1.11c2-1.71,2.83-4.51,2.17-7.67-.86-4.06-4.49-7-9.3-7.63l-.24,0A15.13,15.13,0,0,0,21.12,8.76,6.75,6.75,0,0,0,19.73,7C18.06,5.53,16,5.15,14.51,6.08c-2,1.28-2.11,3.18-1.38,4.4a2.31,2.31,0,0,0,3.18.92,1.75,1.75,0,0,0,.93-1.57,1.42,1.42,0,0,0-.77-1.28,1.44,1.44,0,0,0-1.53.17.83.83,0,0,0-.24,1.1,1.15,1.15,0,0,1-.15-.19c-.32-.54-.29-1.42.85-2.15.79-.51,2.15-.19,3.23.77a5,5,0,0,1,1.51,2.44,23.24,23.24,0,0,0-1.66,5.65q-.12.78-.18,1.56a23.16,23.16,0,0,0,2.3,11.86A22.55,22.55,0,0,0,21.85,32L34,52.29l.3.49c.13.19.34.49.6.91s.62,1.06,1,1.78a11.27,11.27,0,0,1,.53,2.68,6.64,6.64,0,0,1-4,6.89,4.08,4.08,0,0,1-4.77-.87c-.09-.1-.16-.2-.23-.29l-.05-.08a1.58,1.58,0,0,1-.15-.24l0,0a3.5,3.5,0,0,1-.25-.58,2.33,2.33,0,0,1-.08-1.31v0l0-.12v0s0-.09,0-.12a1.7,1.7,0,0,1,1.27-1.09.27.27,0,0,1,.09,0h.16l.12,0,0,0,.09,0,.13.1a.85.85,0,0,0-.61,0l-.05,0h0l-.13.08h0l-.11.09,0,0-.07.08-.08.13a.74.74,0,0,0,0,.14.11.11,0,0,0,0,0,.28.28,0,0,0,0,.09s0,.05,0,.07v.07a.15.15,0,0,0,0,.07h0a.83.83,0,0,0,0,.15,1.51,1.51,0,0,0,2.78.27,1.88,1.88,0,0,0-.14-2l-.19-.26s0,0,0-.05L30,59.23l-.06-.06a1.33,1.33,0,0,0-.19-.14L29.67,59a1.71,1.71,0,0,0-.23-.13l-.1-.05a1.57,1.57,0,0,0-.23-.09l-.13,0-.16,0-.14,0-.19,0h-.42a3.31,3.31,0,0,0-2.63,2.11,2,2,0,0,0-.1.26s0,.06,0,.09a.84.84,0,0,0-.05.17l0,.11,0,.15a.5.5,0,0,1,0,.12s0,.1,0,.15a3691700576097.48,3691700576097.48,0,0,1,0,.26v.27a.76.76,0,0,0,0,.15.31.31,0,0,0,0,.1,1.1,1.1,0,0,0,0,.18v0a4.74,4.74,0,0,0,.18.72v0a1.8,1.8,0,0,0,.08.21l0,0a1.89,1.89,0,0,0,.09.21l0,.05a1.51,1.51,0,0,0,.11.22l0,0a2.53,2.53,0,0,0,.13.22l0,0c.09.16.2.31.31.47l.19.24a5.71,5.71,0,0,0,6.67,1.34,8,8,0,0,0,4.71-5.38,20.18,20.18,0,0,1,.15,6.62,21.28,21.28,0,0,1-1.66,5.66l-.07.16A13.58,13.58,0,0,1,22.4,81.9C18.21,81.46,15,79,14.31,75.56s.69-5.3,1.61-6.07a4.15,4.15,0,0,1,4-.84,2.41,2.41,0,0,1,1.49,2.09A1.25,1.25,0,0,1,21,72a.66.66,0,0,1-.67.05c-.22-.14-.2-.51-.18-.66a.83.83,0,0,0-.72-.93.84.84,0,0,0-.92.72,2.24,2.24,0,0,0,.92,2.26,2.31,2.31,0,0,0,2.44,0,2.83,2.83,0,0,0,1.23-2.83,4,4,0,0,0-2.51-3.46,5.82,5.82,0,0,0-5.71,1.12c-2,1.71-2.84,4.5-2.17,7.67.85,4,4.49,7,9.3,7.62l.24,0a15.17,15.17,0,0,0,14.65-7.68,6.51,6.51,0,0,0,1.38,1.74c1.68,1.49,3.78,1.86,5.23.93,2-1.28,2.11-3.17,1.37-4.4A2.3,2.3,0,0,0,41.69,73.23Z" transform="translate(-3.38 -1)"/></svg>