<?xml version="1.0" encoding="utf-8"?>
<!-- Generator: Adobe Illustrator 22.0.0, SVG Export Plug-In . SVG Version: 6.00 Build 0)  -->
<svg version="1.1" id="Layer_1" xmlns="http://www.w3.org/2000/svg" xmlns:xlink="http://www.w3.org/1999/xlink" x="0px" y="0px"
	 viewBox="0 0 226.8 56.7" style="enable-background:new 0 0 226.8 56.7;" xml:space="preserve">
<style type="text/css">
	.st0{fill:#FFFFFF;}
</style>
<g>
	<g>
		<g>
			<path class="st0" d="M20.7,6.6c0.1,0.1,0.2,0.2,0.3,0.2c0.1,0,0.2,0.1,0.3,0.1c0.1,0,0.2,0,0.3,0c0.2,0,0.2-0.1,0.1-0.2
				c0,0-0.1-0.1-0.1-0.1c-0.1,0-0.1-0.1-0.2-0.1c-0.2-0.1-0.4-0.1-0.6-0.1C20.6,6.4,20.6,6.5,20.7,6.6z"/>
			<path class="st0" d="M21.6,10.3c0,0-0.1,0-0.1,0c-0.2,0.1-0.4,0.1-0.6,0.1c0,0,0.1,0,0.1,0c0,0,0,0,0,0c-0.1,0-0.1,0-0.2,0
				c0,0,0,0,0,0c0.1,0,0.1,0,0.2,0c0,0,0,0,0,0c-0.1,0-0.2,0-0.3,0c0,0,0,0,0,0c0,0,0.1,0,0.1,0c-0.1,0-0.3,0-0.4-0.1
				c0,0,0-0.1,0-0.1c0,0-0.1,0.1-0.1,0.1c-0.1,0.1-0.2,0.1-0.4,0.1c-0.3,0-0.5-0.1-0.7-0.4c-0.1-0.2-0.1-0.1,0-0.3
				c-0.1-0.1-0.1-0.1-0.1-0.2c0.1,0,0.2,0,0.2-0.1c0,0,0,0-0.1,0c-0.1,0-0.2,0-0.2-0.1C19.1,9.2,19,9.1,19,8.9C19,8.9,18.9,9,18.9,9
				c-0.1-0.1-0.1-0.3-0.2-0.4c0,0,0-0.1,0-0.2c0-0.2,0-0.4,0-0.5c0,0,0,0,0-0.1c0,0-0.1,0-0.1,0c0,0,0-0.1,0-0.1c0,0,0-0.1,0-0.1
				c0.1-0.1,0.1-0.3,0.2-0.4C19,7,19.2,6.8,19.5,6.6c0,0,0.1,0,0-0.1c0,0-0.1,0-0.1,0c-0.1,0.1-0.2,0.1-0.3,0.2
				c-0.2,0.2-0.4,0.5-0.6,0.7c-0.1,0.2-0.2,0.4-0.2,0.7c0,0,0,0,0,0c-0.1,0.2,0,0.3,0,0.5c0,0,0,0.1,0,0.1c0-0.1,0.1-0.1,0.1-0.2
				c0,0,0,0,0,0c0,0,0,0,0,0c0.1,0.2,0.1,0.4,0.1,0.6c0,0,0,0.1-0.1,0c0,0-0.1-0.1-0.1-0.1c0.1,0.2,0.2,0.4,0.2,0.6
				c0,0.1,0.1,0.2,0.2,0.2c0.1,0,0.1,0.1,0.2,0.2c0,0,0.1,0.1,0.1,0.1c0.1,0.1,0.2,0.1,0.3,0.2c0,0,0,0,0.1,0.1
				c0.2,0.1,0.3,0.1,0.5,0.2c0.1,0,0.1,0,0.2,0c0,0,0,0,0,0c0,0-0.1,0-0.1-0.1c0,0,0,0,0,0c0.2,0,0.4,0,0.6,0c0.2,0,0.4,0,0.6,0
				c0,0.1,0,0.1-0.1,0.1c-0.1,0-0.1,0-0.2,0c-0.2,0-0.4-0.1-0.6,0c0,0,0,0,0,0c0,0,0,0,0,0c0,0,0.1,0,0.1,0.1c0.1,0.1,0.2,0.1,0.4,0
				c0,0,0.1,0,0.1,0c0.2,0,0.3,0,0.5-0.1c0.1,0,0.2-0.1,0.3-0.1c0,0,0.1-0.1,0.1-0.1c0.1-0.2,0.2-0.3,0.3-0.5c0,0,0-0.1,0.1-0.1
				c0,0,0,0-0.1,0C22,10.1,21.8,10.2,21.6,10.3z M18.5,7.7c-0.1,0.1-0.1,0.2-0.1,0.3c0,0,0,0.1,0,0.1c-0.1-0.3,0.1-0.6,0.3-0.8
				c0,0.1-0.1,0.1-0.1,0.2C18.6,7.6,18.6,7.6,18.5,7.7z M19,9.7C19,9.7,19,9.7,19,9.7C19,9.6,19,9.6,19,9.7C19,9.6,19.1,9.6,19,9.7
				C19.1,9.7,19,9.7,19,9.7z M19.4,10.3c0,0,0-0.1-0.1-0.1c0,0-0.1,0-0.1-0.1c0,0,0.1,0,0.2,0C19.4,10.2,19.5,10.2,19.4,10.3z
				 M21.3,10.7c0.2-0.1,0.4-0.2,0.5-0.3c0,0,0,0,0,0C21.7,10.5,21.5,10.6,21.3,10.7z"/>
			<path class="st0" d="M19.4,9.9c0.1,0.1,0.2,0.2,0.3,0.2c0.1,0,0.2,0.1,0.2,0.1c0.1,0,0.2,0,0.3,0c0.2,0,0.2-0.1,0.1-0.3
				c0,0-0.1-0.1-0.1-0.1c-0.1,0-0.1-0.1-0.2-0.1c-0.2-0.1-0.3-0.1-0.5,0C19.4,9.8,19.3,9.9,19.4,9.9z"/>
			<path class="st0" d="M22.9,8.4C22.9,8.3,22.9,8.3,22.9,8.4C22.9,8.3,22.8,8.3,22.9,8.4c-0.1,0-0.1,0.1-0.1,0.1
				c0,0.4-0.1,0.8-0.3,1.1c0,0,0,0,0,0c0,0,0,0,0,0.1c0,0,0,0,0.1,0c0,0,0,0,0,0c0.2-0.3,0.3-0.7,0.3-1.1
				C22.9,8.5,22.9,8.4,22.9,8.4C22.9,8.4,22.9,8.4,22.9,8.4z"/>
			<path class="st0" d="M19.4,9.1C19.4,9,19.3,9,19.2,9c-0.1,0-0.1,0-0.1,0.1c0,0.1,0.1,0.1,0.1,0.2c0.1,0.1,0.1,0.1,0.2,0.1
				c0.1,0,0.1,0,0.1-0.1C19.5,9.2,19.5,9.2,19.4,9.1z"/>
			<path class="st0" d="M18.5,9.3C18.6,9.3,18.6,9.2,18.5,9.3c0-0.1,0-0.1,0-0.2c0-0.1,0-0.2-0.1-0.2C18.4,9,18.4,9.2,18.5,9.3
				C18.5,9.3,18.5,9.3,18.5,9.3z"/>
			<path class="st0" d="M20.6,5.9c-1.5,0-2.7,1.2-2.7,2.7s1.2,2.7,2.7,2.7s2.7-1.2,2.7-2.7S22.1,5.9,20.6,5.9z M20.6,10.9
				c-1.3,0-2.4-1.1-2.4-2.4s1.1-2.4,2.4-2.4S23,7.3,23,8.6S21.9,10.9,20.6,10.9z"/>
		</g>
		<g>
			<path class="st0" d="M27.1,19.7c0.7,0.2,1.6-0.5,1.8-1.3c0-0.1-0.1-0.1-0.1-0.1c-0.2,0.2-0.3,0.5-0.5,0.7
				c-0.3,0.3-0.7,0.5-1.1,0.5C27.1,19.6,27.1,19.7,27.1,19.7z"/>
			<path class="st0" d="M28.7,18.5c-0.4,0.6-0.1,1.7,0.6,1.9c0.1,0,0.2-0.1,0.1-0.2c-0.4-0.2-0.6-0.5-0.7-1c0-0.2,0.1-0.5,0.1-0.7
				C28.8,18.5,28.7,18.5,28.7,18.5z"/>
			<path class="st0" d="M26.6,19.6c0.4,0.1,0.7,0.3,0.9,0.7c0.2,0.4,0.1,0.7,0.1,1.1c0,0.1,0.1,0.1,0.1,0c0.4-0.7-0.3-1.9-1.1-1.9
				C26.6,19.5,26.6,19.6,26.6,19.6z"/>
			<path class="st0" d="M27.7,21.4c0.3-0.2,0.5-0.5,0.8-0.6c0.4-0.2,0.7-0.2,1.2-0.1c0.1,0,0.1-0.1,0-0.1c-0.7-0.4-1.7,0.2-2.1,0.8
				C27.6,21.3,27.6,21.4,27.7,21.4z"/>
			<path class="st0" d="M30.1,20.7c0.1,0.1,0.2,0.1,0.3,0.2c0.1,0,0.1,0.1,0.2,0.2c0,0,0.1,0,0.1,0c0.1-0.2-0.3-0.4-0.5-0.4
				C30.1,20.5,30,20.6,30.1,20.7z"/>
			<path class="st0" d="M28.7,21.3c0,0.1,0.1,0.2,0.1,0.3c0,0.1,0,0.2,0,0.3c0,0,0.1,0.1,0.1,0c0.1-0.2,0-0.5-0.1-0.6
				C28.8,21.1,28.7,21.2,28.7,21.3z"/>
			<path class="st0" d="M27.5,21.8c-0.1,0.2-0.1,0.3-0.2,0.5c-0.1,0.2-0.2,0.3-0.2,0.5c0,0.1,0.1,0.1,0.1,0.1
				c0.1-0.1,0.2-0.3,0.3-0.5c0.1-0.2,0.1-0.3,0.2-0.5C27.7,21.7,27.5,21.7,27.5,21.8z"/>
			<path class="st0" d="M26.5,21c0.1,0,0.1-0.1,0.2-0.1c0.1,0,0.1,0,0.2,0c0.1,0,0.1-0.1,0-0.1c-0.2-0.1-0.4,0-0.5,0.1
				C26.3,20.9,26.4,21,26.5,21z"/>
			<path class="st0" d="M25.2,18.7c0.2,0.1,0.4,0.1,0.6,0.2c0.2,0.1,0.4,0.1,0.6,0.2c0.1,0,0.1-0.1,0-0.1c-0.2-0.1-0.4-0.1-0.6-0.2
				c-0.2-0.1-0.4-0.1-0.6-0.2C25.1,18.6,25.1,18.7,25.2,18.7z"/>
			<path class="st0" d="M27,18.4c0,0.1,0.1,0.3,0.3,0.4c0,0,0.1,0,0.1-0.1c0-0.1-0.2-0.3-0.2-0.4C27.1,18.2,27,18.3,27,18.4z"/>
			<path class="st0" d="M29.7,16.4c0,0.4-0.2,0.7-0.3,1.1c0,0.1,0.1,0.1,0.1,0c0.2-0.3,0.3-0.8,0.3-1.1
				C29.8,16.3,29.7,16.3,29.7,16.4z"/>
			<path class="st0" d="M29.7,19.3c0.1,0,0.3,0,0.4-0.1c0.1,0,0.2,0,0.3-0.1c0,0,0-0.1,0-0.1c-0.1,0-0.3,0-0.4,0
				c-0.1,0-0.3,0.1-0.4,0.1C29.6,19.1,29.6,19.3,29.7,19.3z"/>
		</g>
		<g>
			<path class="st0" d="M11.6,37.7c0.6-0.5,0.6-1.7,0.1-2.3c0-0.1-0.1,0-0.1,0.1c0.1,0.3,0.2,0.6,0.3,0.9
				C11.9,36.8,11.9,37.2,11.6,37.7C11.5,37.6,11.6,37.7,11.6,37.7z"/>
			<path class="st0" d="M11.7,35.6c0.2,0.8,1.3,1.2,2,0.7c0.1-0.1,0-0.3-0.1-0.2c-0.4,0.2-0.8,0.2-1.2-0.1
				C12.1,35.9,12,35.7,11.7,35.6C11.8,35.5,11.7,35.6,11.7,35.6z"/>
			<path class="st0" d="M11.2,38c0.4-0.2,0.7-0.4,1.2-0.2c0.4,0.1,0.6,0.4,0.9,0.6c0.1,0,0.1,0,0.1-0.1C13.1,37.5,11.7,37.2,11.2,38
				C11.1,38,11.2,38,11.2,38z"/>
			<path class="st0" d="M13.4,38.3c0-0.4-0.1-0.7,0-1c0.1-0.5,0.3-0.7,0.6-1c0.1-0.1,0-0.1-0.1-0.1c-0.8,0.3-0.9,1.5-0.7,2.2
				C13.2,38.4,13.4,38.4,13.4,38.3z"/>
			<path class="st0" d="M14.3,35.9c0.1,0,0.2-0.1,0.3-0.1c0.1,0,0.2,0,0.3-0.1c0,0,0-0.1,0-0.1c-0.1-0.2-0.5,0-0.7,0.1
				C14.2,35.8,14.3,35.9,14.3,35.9z"/>
			<path class="st0" d="M13.9,37.4c0.1,0,0.2,0,0.3,0.1c0.1,0,0.2,0.1,0.2,0.1c0.1,0,0.1,0,0.1-0.1c-0.1-0.2-0.4-0.3-0.6-0.3
				C13.9,37.2,13.8,37.4,13.9,37.4z"/>
			<path class="st0" d="M13.6,38.7c0.1,0.2,0.2,0.3,0.3,0.5c0.1,0.2,0.1,0.4,0.2,0.5c0,0.1,0.1,0,0.1,0c0-0.2-0.1-0.4-0.2-0.6
				c-0.1-0.2-0.2-0.3-0.3-0.5C13.6,38.5,13.5,38.6,13.6,38.7z"/>
			<path class="st0" d="M12.2,39c0-0.1,0-0.2,0.1-0.2c0-0.1,0.1-0.1,0.1-0.2c0-0.1,0-0.1-0.1-0.1c-0.2,0.1-0.2,0.3-0.2,0.5
				C12.1,39.1,12.2,39.1,12.2,39z"/>
			<path class="st0" d="M9.5,38.6c0.2-0.1,0.4-0.2,0.6-0.4c0.2-0.1,0.4-0.2,0.5-0.4c0.1-0.1,0-0.1-0.1-0.1c-0.2,0.1-0.4,0.2-0.5,0.3
				c-0.2,0.1-0.3,0.2-0.5,0.4C9.4,38.5,9.4,38.7,9.5,38.6z"/>
			<path class="st0" d="M10.5,36.9C10.6,37,10.8,37,11,37c0.1,0,0.1-0.1,0-0.1c-0.1-0.1-0.3,0-0.5-0.1
				C10.4,36.7,10.4,36.9,10.5,36.9z"/>
			<path class="st0" d="M10.6,33.4c0.3,0.3,0.5,0.6,0.7,0.9c0,0.1,0.1,0,0.1-0.1c-0.2-0.4-0.4-0.7-0.7-1
				C10.7,33.3,10.6,33.4,10.6,33.4z"/>
			<path class="st0" d="M12.9,35.3c0.1-0.1,0.1-0.2,0.2-0.4c0.1-0.1,0.1-0.2,0.1-0.3c0-0.1-0.1-0.1-0.1-0.1
				c-0.1,0.1-0.1,0.2-0.2,0.3c-0.1,0.1-0.1,0.2-0.2,0.4C12.8,35.3,12.9,35.4,12.9,35.3z"/>
		</g>
		<path class="st0" d="M33.7,25.6c0-0.4-0.2-0.7-0.3-1c-0.1-0.1-0.2-0.3-0.3-0.4c-0.5-0.6-1.2-0.9-2-0.9c-0.4,0-0.8,0.1-1.2,0.3
			c-0.2,0.1-0.4,0.2-0.5,0.3c-0.2,0.2-0.3,0.3-0.5,0.5c-0.2,0.3-0.4,0.8-0.5,1.2c0,0.1,0,0.2,0,0.3c0,0.1,0,0.2,0,0.2
			c0,0.3,0.1,0.6,0.3,0.9c0.1,0.2,0.2,0.4,0.4,0.5c0.1,0.1,0.3,0.3,0.4,0.4c0.5,0.4,1,0.6,1.6,0.6c0.3,0,0.5,0,0.7-0.1
			c0.1,0,0.3-0.1,0.4-0.2c0.1,0,0.1-0.1,0.2-0.1c0.1-0.1,0.3-0.2,0.4-0.3c0.1-0.1,0.2-0.2,0.3-0.3c0.1-0.1,0.2-0.2,0.3-0.4
			c0.1-0.3,0.3-0.5,0.3-0.8c0-0.2,0-0.3,0-0.5C33.7,25.9,33.7,25.7,33.7,25.6z M31.1,23.6c0.6,0,1.2,0.3,1.7,0.7
			c-0.8,0.1-1.7-0.2-2.5-0.5C30.5,23.6,30.8,23.6,31.1,23.6z M28.7,26c0-0.1,0-0.2,0-0.3c0.2,0,0.4,0.1,0.7,0
			c0.3-0.1,0.7-0.2,0.8-0.5c0.1-0.4-0.2-0.7-0.6-0.7c-0.1,0-0.2,0-0.4,0c0.1-0.1,0.2-0.2,0.4-0.3c0.2,0.1,0.4,0.2,0.5,0.3
			c0.3,0.2,0.7,0.3,1.1,0.4c0.4,0.1,0.7,0.3,1.1,0.2c0.2,0,0.5-0.1,0.7-0.3c0.2,0.3,0.3,0.5,0.3,0.9c-0.8,0-1.5-0.2-2.3-0.1
			c-0.3,0-0.5,0.1-0.8,0.2c-0.3,0.2-0.6,0.3-1,0.4c-0.2,0-0.4,0-0.7,0.1C28.7,26.1,28.7,26,28.7,26z M31.1,28.4
			c-0.4,0-0.8-0.1-1.2-0.3c0.2,0,0.4,0,0.6,0.1c0.3,0.1,0.7,0.1,1,0.2C31.3,28.3,31.2,28.4,31.1,28.4z M33.1,27.2
			c-0.1,0-0.1,0-0.2,0c-0.2,0-0.4,0-0.5,0.1c-0.3,0.2-0.1,0.5,0,0.7c-0.1,0.1-0.2,0.1-0.3,0.2c-0.3-0.2-0.7-0.3-1.1-0.4
			c-0.4,0-0.7-0.2-1.1-0.2c-0.2,0-0.4,0-0.5,0c-0.2-0.2-0.3-0.3-0.4-0.5c0.4,0,0.8,0,1.2,0.2c0.5,0.2,1,0.1,1.5,0
			c0.1,0,0.3-0.1,0.4-0.2c0.2-0.2,0.2-0.4,0.5-0.5c0.2,0,0.5,0,0.7-0.1c0,0,0.1,0,0.1,0C33.3,26.8,33.2,27,33.1,27.2z"/>
		<path class="st0" d="M36,6.6c0,0,0-0.1,0-0.1c0-0.1,0-0.1,0-0.2c0-0.1,0-0.1-0.1-0.2c0-0.1-0.1-0.2-0.1-0.2c0-0.1-0.1-0.1-0.1-0.2
			c-0.4-0.7-1.2-1-1.9-1c-0.6,0-1.2,0.2-1.6,0.6c-0.1,0-0.1,0.1-0.2,0.2c-0.1,0.1-0.1,0.2-0.2,0.3c0,0.1-0.1,0.1-0.1,0.2
			c0,0.1-0.1,0.2-0.1,0.3c0,0.1,0,0.1-0.1,0.2c0,0.1,0,0.1,0,0.2c0,0.1,0,0.1,0,0.2c0,0.1,0,0.2,0,0.3c0,0,0,0,0,0l0,0
			c0,0.1,0,0.1,0,0.2c0,0.1,0,0.2,0,0.3c0,0.1,0,0.1,0,0.2c0,0.1,0,0.1,0.1,0.2c0,0.1,0,0.1,0.1,0.2c0.1,0.1,0.1,0.2,0.2,0.3
			c0,0.1,0.1,0.1,0.1,0.2c0.1,0.1,0.1,0.1,0.2,0.2c0.1,0.1,0.1,0.1,0.2,0.2C32.4,8.9,32.5,9,32.6,9c0.1,0.1,0.2,0.1,0.3,0.1
			c0.3,0.1,0.5,0.1,0.8,0.1c0.9,0,1.8-0.6,2.2-1.4c0-0.1,0-0.1,0.1-0.2c0-0.1,0-0.2,0.1-0.2c0-0.1,0-0.1,0-0.2c0-0.1,0-0.1,0-0.2
			c0-0.1,0-0.1,0-0.2C36.1,6.9,36.1,6.7,36,6.6z M33.4,8.1c0-0.1,0-0.1-0.1-0.2c-0.1-0.2-0.7-0.2-1.5-0.2c0,0,0,0,0-0.1
			c0.9,0,1.5,0.1,1.7,0.3c0,0,0.1,0.1,0.1,0.1c0,0.3-0.7,0.4-1.1,0.4c0,0-0.1-0.1-0.1-0.1C33,8.5,33.3,8.4,33.4,8.1z M33.8,8.2
			c0-0.1,0-0.3-0.1-0.4c-0.3-0.3-1.2-0.4-1.9-0.4c0-0.1,0-0.1,0-0.2c0.7,0,1.6,0.1,2,0.5c0.1,0.1,0.2,0.3,0.2,0.5
			c0,0.2-0.1,0.4-0.3,0.5c-0.2,0.1-0.4,0.2-0.7,0.3c-0.1,0-0.2-0.1-0.2-0.1C33.4,8.7,33.7,8.5,33.8,8.2z M33.8,8.8
			c0.2-0.2,0.3-0.4,0.3-0.7c0-0.3-0.1-0.5-0.2-0.7C33.4,7.1,32.4,7,31.7,7c0,0,0,0,0,0c0-0.1,0-0.1,0-0.2c0.2,0,0.4,0,0.6,0
			c0,0,0,0,0,0c0.5,0,0.8-0.1,1-0.2c0.2-0.1,0.2-0.3,0.3-0.5c0-0.2-0.1-0.4-0.2-0.5c-0.2-0.2-0.5-0.3-0.9-0.3
			c0.4-0.3,0.8-0.4,1.2-0.4c0.6,0,1.2,0.3,1.6,0.8c-0.4,0-1,0.1-1.3,0.3c-0.2,0.2-0.3,0.4-0.4,0.6c0,0.3,0.1,0.5,0.2,0.7
			c0.3,0.3,0.9,0.5,1.7,0.5c-0.3,0.7-1.1,1.2-1.9,1.2c-0.1,0-0.2,0-0.3,0C33.6,9,33.7,8.9,33.8,8.8z M33,6C33,6,33,6,33,6
			C33,6,33,6.1,33,6c-0.2,0.2-0.6,0.2-1.1,0.1c0-0.1,0.1-0.1,0.1-0.2C32.5,5.9,32.9,5.9,33,6z M33.9,6.7c0-0.2,0.1-0.4,0.3-0.5
			C34.5,6,35,5.9,35.4,5.9c0,0,0.1,0,0.1,0c0,0,0.1,0.1,0.1,0.2C34.9,6.1,34.1,6.2,33.9,6.7C34,6.9,34,7,34.1,7.1
			c0.2,0.2,0.8,0.4,1.6,0.4c0,0,0,0.1,0,0.1c-0.8-0.1-1.3-0.2-1.6-0.5C34,7,33.9,6.9,33.9,6.7z M35.8,6.7c0,0.1,0,0.2,0,0.3
			c-0.7,0-1.1-0.1-1.1-0.1C34.7,6.7,35.1,6.7,35.8,6.7z"/>
		<g>
			<path class="st0" d="M10.2,50.7c0-0.1,0-0.1-0.1-0.2C10,50.2,9.9,50,9.7,49.8c-0.1-0.1-0.1-0.2-0.2-0.2c-0.5-0.4-1.1-0.7-1.7-0.7
				c-1.4,0-2.5,1.1-2.5,2.5c0,1.4,1.1,2.5,2.5,2.5s2.5-1.1,2.5-2.5C10.3,51.1,10.3,50.9,10.2,50.7z M8.3,49.7
				c-0.1,0-0.4,0.2-0.6,0.3L7.6,50c-0.1-0.1-0.2-0.2-0.3-0.2c-0.1,0-0.2,0-0.4,0.1l0,0c0,0,0,0,0,0c-0.1,0-0.1,0.1-0.1,0.1
				c0,0.1,0.1,0.1,0.1,0.1c0,0,0.1,0,0.1,0c0.1,0,0.3-0.1,0.3-0.1c0,0,0,0,0,0c0,0,0,0,0,0c0,0,0,0-0.1,0c-0.5,0.2-0.9,0.3-0.9,0.6
				c0,0,0,0,0,0c0,0.2,0.4,0.3,0.7,0.3c0.2,0,0.5,0,0.5,0.1c0.6,0.7,0.7,0.7,1.1,0.7c0,0,0.1,0,0.1,0c0.3,0,0.3,0,0.3,0
				c0.1,0,0.1,0,0.2,0c0.1,0,0.1,0,0.1-0.1c0.2-0.2,0.2-0.4,0.3-0.6c0-0.1,0-0.1,0-0.2c0,0,0-0.1,0-0.1c0,0,0.1,0,0.1,0l0.1-0.1
				c0,0.2,0.1,0.3,0.1,0.5c0,1.2-1,2.2-2.2,2.2c-1.2,0-2.2-1-2.2-2.2c0-1.2,1-2.2,2.2-2.2c0.4,0,0.9,0.1,1.2,0.4
				C8.7,49.6,8.4,49.6,8.3,49.7z"/>
			<path class="st0" d="M6.2,51.4c-0.1,0.1-0.1,0.2,0,0.2c0,0,0,0.1,0,0.1c0,0,0,0.1,0,0.2c0,0.1,0.1,0.2,0.2,0.3
				c0.1,0,0.1,0.1,0.2,0.1l0.3,0.1c0,0.1,0.1,0.3,0,0.4l0,0c0,0,0,0.1,0,0.1c0,0.1,0.1,0.2,0.2,0.3c0.1,0.1,0.2,0.1,0.3,0.1
				c0,0,0,0,0,0c0,0,0,0,0,0c0.2,0,0.3-0.1,0.4-0.3c0.1-0.2,0.1-0.4,0-0.6c0,0,0,0,0,0c0,0,0-0.1,0-0.1c0,0,0,0,0,0c0,0,0,0,0,0
				l0.2,0C8,52.2,8,52.2,8,52.1C8,52,8,52,7.9,51.9v0c-0.2-0.1-0.4-0.2-0.5-0.4l0,0c0-0.1-0.1-0.2-0.2-0.2c-0.1,0-0.1,0-0.1,0
				c-0.2,0-0.4,0-0.6,0C6.4,51.3,6.3,51.3,6.2,51.4z"/>
			<path class="st0" d="M9,52.5c0,0,0.1,0,0.1,0l0,0.1c0,0.1,0.1,0.1,0.1,0.1c0,0,0,0,0.1,0c0.1,0,0.1-0.1,0.1-0.2l-0.1-0.2
				c0,0,0-0.1-0.1-0.1C9.1,52.2,9,52.2,9,52.2c-0.1,0-0.1,0.1-0.1,0.1C8.8,52.5,8.9,52.5,9,52.5z"/>
			<path class="st0" d="M9.3,52.4C9.4,52.4,9.4,52.4,9.3,52.4c0.1,0,0.2,0,0.2,0l0.1-0.1c0,0,0-0.1,0-0.2C9.6,52,9.6,52,9.5,52H9.3
				c-0.1,0-0.1,0-0.1,0.1c0,0.1,0,0.1,0.1,0.2L9.3,52.4z"/>
		</g>
		<path class="st0" d="M22.9,47.9c0-0.1,0-0.2-0.1-0.3c-0.1-0.2-0.2-0.4-0.3-0.6c0-0.1-0.1-0.1-0.1-0.2c-0.3-0.4-0.7-0.6-1.1-0.8
			c-0.1,0-0.1,0-0.2-0.1c-0.2-0.1-0.5-0.1-0.7-0.1c-0.8,0-1.5,0.3-2,0.9c-0.1,0.1-0.1,0.1-0.1,0.2c-0.2,0.3-0.3,0.6-0.4,0.9
			c0,0.1,0,0.1,0,0.2c0,0.1,0,0.3,0,0.4c0,0,0,0.1,0,0.1c0,0.1,0,0.1,0,0.2c0,0.4,0.2,0.7,0.4,1c0,0.1,0.1,0.2,0.2,0.2
			c0.5,0.7,1.3,1.1,2.1,1.1c1.1,0,2.1-0.7,2.5-1.7c0.1-0.2,0.1-0.4,0.1-0.5c0-0.1,0-0.3,0-0.4C22.9,48.4,22.9,48.1,22.9,47.9z
			 M20.2,50.5c0,0.1,0.1,0.2,0.2,0.2c0.5,0,1-0.1,1.5-0.4c-0.4,0.4-1,0.6-1.5,0.6c-0.6,0-1.2-0.2-1.6-0.6c0.8,0,1.6-0.1,2.2-0.2
			c0.3-0.1,0.6-0.2,0.9-0.4c0.1-0.1,0.1-0.1,0-0.2c-0.1-0.1-0.2-0.1-0.2,0c-0.2,0.1-0.6,0.3-0.8,0.3c-0.7,0.2-1.4,0.2-2.3,0.2
			c-0.2-0.3-0.3-0.6-0.4-1c0.4-0.1,0.9-0.2,1.3-0.3c1-0.3,2.1-0.7,2.2-1.8c0-0.1,0-0.1-0.1-0.1c-0.1,0-0.1,0-0.2,0
			c-0.8,0.8-2,1.3-3.1,1.2c0.1-0.3,0.2-0.5,0.4-0.8c0.6,0.1,1.2,0,1.6-0.4c0,0,0.1-0.1,0.1-0.1c0-0.1-0.1-0.1-0.1-0.1
			c-0.1,0-0.1,0-0.2,0c-0.3,0.2-0.7,0.3-1.1,0.3c0.4-0.4,1-0.6,1.6-0.6c0.2,0,0.3,0,0.5,0.1c-0.3,0.5-0.9,0.9-1.6,0.9
			c-0.1,0-0.2,0.1-0.2,0.2c0,0.1,0.1,0.1,0.2,0.1c0.8-0.1,1.5-0.5,1.9-1.1c0.4,0.1,0.7,0.4,1,0.7c0,0.1-0.1,0.1-0.1,0.1
			c-0.4,0.5-0.8,0.9-1.4,1.1c-0.2,0.1-0.4,0.1-0.6,0.2c-0.2,0.1-0.4,0.1-0.6,0.2l-0.1,0c-0.2,0.1-0.4,0.2-0.5,0.4
			c0,0.1,0,0.2,0.1,0.3c0.2,0.2,0.7,0.2,0.8,0.2c0.6-0.1,1.3-0.3,2.1-0.8c0.3-0.2,0.6-0.4,0.8-0.6c0,0.1,0,0.2,0,0.3
			c0,0.3-0.1,0.6-0.2,0.9c-0.6,0.6-1.3,0.9-2.1,0.9C20.2,50.4,20.2,50.5,20.2,50.5z"/>
		<path class="st0" d="M11.7,28.4c-0.2-0.5-0.9-0.6-2.1-0.4c-0.2-0.2-0.4-0.3-0.6-0.4c-1.3-0.5-2.7,0.1-3.2,1.4
			c-0.1,0.2-0.1,0.5-0.2,0.7c-0.2,0.1-0.3,0.2-0.4,0.3c-0.6,0.6-0.9,1.1-0.7,1.4c0.1,0.2,0.2,0.3,0.4,0.4c0.4,0.1,0.9,0.1,1.7,0
			c0.2,0.1,0.4,0.3,0.6,0.4c0.3,0.1,0.6,0.2,0.9,0.2c1,0,1.9-0.6,2.3-1.6c0.1-0.2,0.1-0.4,0.2-0.7c0.2-0.1,0.3-0.2,0.5-0.4
			C11.6,29.3,11.8,28.7,11.7,28.4z M10.1,30.4c0,0.1-0.1,0.2-0.1,0.3v0c-0.2,0.5-0.6,1-1.1,1.2c-0.5,0.2-1.1,0.2-1.7,0
			c-0.1,0-0.2-0.1-0.3-0.1c0.5-0.1,1.1-0.3,1.7-0.6C9.1,31,9.7,30.7,10.1,30.4z M8,27.8c0.3,0,0.5,0,0.8,0.1
			c0.1,0.1,0.3,0.1,0.4,0.2c0.1,0.1,0.1,0.1,0.2,0.2c0.1,0.1,0.2,0.2,0.3,0.3c0,0.1,0.1,0.1,0.1,0.2c0.1,0.2,0.2,0.4,0.2,0.6
			c-0.3,0.2-0.9,0.6-1.9,1c-1,0.4-1.6,0.6-2,0.7c-0.1-0.2-0.2-0.4-0.2-0.6c0-0.1,0-0.2-0.1-0.2c0-0.1,0-0.3,0-0.4c0-0.1,0-0.2,0-0.3
			c0-0.2,0.1-0.3,0.1-0.5C6.3,28.3,7.1,27.8,8,27.8z M10.6,28.8C10.7,28.8,10.7,28.8,10.6,28.8c0,0,0,0.1-0.3,0.4
			c0-0.1-0.1-0.3-0.2-0.4C10.5,28.8,10.6,28.8,10.6,28.8z M5.4,31.1c0,0,0-0.1,0.3-0.3c0,0.1,0.1,0.2,0.2,0.4
			C5.5,31.2,5.4,31.1,5.4,31.1z"/>
		<path class="st0" d="M6.9,44.4C7.3,44.2,7.6,44,8,43.8c-0.2-0.3-0.4-0.5-0.7-0.8C7.5,43,7.5,43,7.6,42.9c-0.3-0.5-0.4-1-0.3-1.5
			c0.5-0.1,1,0,1.5,0.3c0.1-0.1,0.1-0.1,0.2-0.2c0.2,0.2,0.5,0.4,0.8,0.6c0.2-0.4,0.4-0.7,0.5-1.1c0.4,0.3,0.6,0.7,0.8,1.2
			c0.1-0.2,0.2-0.3,0.3-0.4c0.5,0.7,0.6,1.5,0.4,2.3c0,0.1-0.1,0.1-0.2,0.1c-1,0.6-1.2,1-1.6,1.7c-0.8,0.3-1.6,0.2-2.4-0.3
			c0.1-0.1,0.3-0.2,0.4-0.3C7.3,44.9,7.1,44.7,6.9,44.4z"/>
		<path class="st0" d="M31.5,46c0.1,0.2,0.1,0.4,0.2,0.7c0.2-0.1,0.3-0.2,0.5-0.3c0,0.1,0,0.1,0.1,0.2c0.3-0.1,0.6-0.1,0.9,0
			c0,0.3-0.1,0.6-0.3,0.8c0,0,0.1,0.1,0.1,0.1c-0.1,0.1-0.3,0.2-0.4,0.4c0.2,0.1,0.4,0.3,0.6,0.4c-0.2,0.2-0.4,0.3-0.8,0.4
			c0.1,0.1,0.1,0.1,0.2,0.2c-0.4,0.2-0.9,0.2-1.3,0c0,0-0.1-0.1-0.1-0.1c-0.2-0.6-0.5-0.8-0.8-1c-0.1-0.5,0-0.9,0.4-1.3
			c0,0.1,0.1,0.2,0.1,0.3C31.2,46.2,31.3,46.1,31.5,46z"/>
		<path class="st0" d="M9.6,11c-0.1-0.2-0.1-0.4-0.2-0.7c-0.2,0.1-0.3,0.2-0.5,0.3c0-0.1,0-0.1-0.1-0.2c-0.3,0.1-0.6,0.1-0.9,0
			c0-0.3,0.1-0.6,0.3-0.8c0,0-0.1-0.1-0.1-0.1c0.1-0.1,0.3-0.2,0.4-0.4C8.4,9.1,8.2,8.9,8,8.8c0.2-0.2,0.4-0.3,0.8-0.4
			C8.7,8.4,8.6,8.3,8.5,8.2C9,8,9.4,8,9.8,8.2c0,0,0.1,0.1,0.1,0.1c0.2,0.6,0.5,0.8,0.8,1c0.1,0.5,0,0.9-0.4,1.3
			c0-0.1-0.1-0.2-0.1-0.3C10,10.8,9.8,10.9,9.6,11z"/>
		<path class="st0" d="M34.2,13c-0.4,0.2-0.7,0.3-1.1,0.5c0.2,0.3,0.4,0.5,0.7,0.8c-0.1,0.1-0.2,0.1-0.2,0.2c0.3,0.5,0.4,1,0.3,1.5
			c-0.5,0.1-1,0-1.5-0.3c-0.1,0.1-0.1,0.1-0.2,0.2c-0.2-0.2-0.5-0.4-0.8-0.6c-0.2,0.4-0.4,0.7-0.5,1.1c-0.4-0.3-0.6-0.7-0.8-1.2
			c-0.1,0.2-0.2,0.3-0.3,0.4c-0.5-0.7-0.6-1.5-0.4-2.3c0-0.1,0.1-0.1,0.2-0.1c1-0.6,1.2-1,1.6-1.7c0.8-0.3,1.6-0.2,2.4,0.3
			c-0.1,0.1-0.3,0.2-0.4,0.3C33.8,12.6,34,12.7,34.2,13z"/>
		<g>
			<path class="st0" d="M21.2,19c-0.4,0-0.7,0-1-0.1L19,21.3l2.1,4.2l4-7.8l1.9-3.8h-4.1c0.8,1.1,1,2.3,0.6,3.4
				C23.1,18.2,22.2,18.9,21.2,19z"/>
			<polygon class="st0" points="19,29.6 16.9,25.4 16.2,26.7 11.6,17.6 9.6,13.8 5.4,13.8 7.3,17.6 16.2,35.1 			"/>
			<path class="st0" d="M19.9,38.2c0.4,0,0.7,0,1.1,0.1l1.3-2.5l-2.1-4.2l-4.1,8l-1.9,3.7l-0.1,0.1h1h3.3c-0.9-1.1-1.1-2.4-0.7-3.5
				C18.1,39,19,38.3,19.9,38.2z"/>
			<polygon class="st0" points="33.8,39.7 24.9,22.2 22.2,27.5 24.4,31.7 24.9,30.6 29.6,39.7 31.5,43.5 35.8,43.5 			"/>
			<path class="st0" d="M28.6,48.2c-0.4,0.2-0.6,0.6-0.6,1c0,0.4,0.2,0.7,0.5,0.8c0.3,0.2,0.7,0.1,1-0.1c0.2-0.2,0.3-0.5,0.1-0.7
				c0.1,0.1,0.1,0.1,0.1,0.1c0.2,0.3,0.2,0.9-0.5,1.4c-0.5,0.3-1.4,0.1-2-0.5c-0.5-0.4-0.8-1-1-1.5c0.5-1.2,0.9-2.4,1.1-3.6
				c0.1-0.3,0.1-0.7,0.1-1c0.3-3.2-0.6-5.8-1.5-7.5c-0.3-0.6-0.5-1-0.8-1.4l-7.7-12.8l-0.3-0.6c0-0.1-0.1-0.1-0.1-0.2
				c-0.2-0.3-0.5-0.7-0.7-1.3c-0.2-0.5-0.3-1.1-0.3-1.7c-0.2-2.4,1.2-3.8,2.5-4.4c1.2-0.5,2.4-0.3,3,0.5c0,0,0.1,0.1,0.1,0.1
				c0,0,0,0,0,0c0,0,0,0.1,0.1,0.1c0,0,0,0,0,0c0,0,0.1,0.1,0.1,0.1c0,0,0,0,0,0c0,0,0,0.1,0,0.1c0,0,0,0,0,0.1c0,0,0,0,0,0.1
				c0,0,0,0,0,0.1c0,0,0,0.1,0,0.1c0,0.1,0,0.1,0,0.2c0,0,0,0,0,0c0,0,0,0.1,0,0.1c0,0,0,0,0,0c0,0,0,0.1,0,0.1c0,0,0,0,0,0
				c0,0.1,0,0.2,0,0.2c0,0,0,0,0,0c0,0,0,0.1,0,0.1c0,0,0,0,0,0c0,0,0,0,0,0.1c0,0,0,0,0,0c0,0,0,0.1,0,0.1
				c-0.2,0.4-0.5,0.7-0.8,0.7c0,0,0,0,0,0c-0.1,0-0.1,0-0.2,0c0,0,0,0,0,0c0,0-0.1,0-0.1,0c0,0-0.1,0-0.1-0.1c0.1,0,0.3,0.1,0.4,0
				c0.1,0,0.1-0.1,0.2-0.1c0,0,0,0,0,0c0,0,0.1-0.1,0.1-0.1c0,0,0-0.1,0-0.1c0,0,0,0,0,0c0-0.1,0-0.1,0-0.2c0,0,0-0.1,0-0.1
				c-0.2-0.4-0.5-0.6-0.8-0.7c-0.4,0-0.7,0.2-0.9,0.5c-0.2,0.4-0.2,0.9,0.1,1.3c0,0.1,0.1,0.1,0.1,0.2c0,0,0,0,0,0
				c0,0,0.1,0.1,0.1,0.1c0,0,0,0,0,0c0,0,0.1,0.1,0.1,0.1c0,0,0,0,0.1,0c0,0,0.1,0.1,0.1,0.1c0,0,0,0,0.1,0c0,0,0.1,0,0.1,0
				c0,0,0.1,0,0.1,0c0.1,0,0.1,0,0.2,0c0,0,0.1,0,0.1,0c0,0,0.1,0,0.1,0c0,0,0,0,0.1,0c0.1,0,0.1,0,0.2,0c0.7-0.1,1.4-0.6,1.7-1.3
				c0-0.1,0-0.1,0.1-0.2c0,0,0,0,0-0.1c0,0,0-0.1,0-0.1c0,0,0,0,0-0.1c0,0,0-0.1,0-0.1c0,0,0,0,0-0.1c0,0,0-0.1,0-0.1c0,0,0,0,0-0.1
				c0,0,0-0.1,0-0.1c0,0,0,0,0-0.1c0,0,0-0.1,0-0.1c0,0,0,0,0-0.1c0-0.1,0-0.1,0-0.2c0,0,0,0,0,0c0-0.1,0-0.1,0-0.2c0,0,0,0,0-0.1
				c0,0,0-0.1,0-0.1c0,0,0,0,0-0.1c0,0,0-0.1,0-0.1c0,0,0,0,0-0.1c0,0,0-0.1,0-0.1c0,0,0,0,0-0.1c0,0,0-0.1,0-0.1c0,0,0,0,0-0.1
				c0,0,0-0.1-0.1-0.1c0,0,0,0,0-0.1c0,0-0.1-0.1-0.1-0.1c0,0,0,0,0,0c0,0,0,0,0,0c0,0,0,0,0,0c0-0.1-0.1-0.1-0.1-0.2
				c0-0.1-0.1-0.1-0.1-0.2c-1-1.2-2.6-1.5-4.2-0.8c-1.2,0.5-2.5,1.6-3,3.4c-0.3-1.4-0.3-2.8-0.1-4.2c0.2-1.2,0.5-2.4,1.1-3.6l0-0.1
				c2-4.3,5.9-5.5,8.7-5.2c2.7,0.3,4.7,1.9,5.1,4c0.5,2.2-0.4,3.4-1,3.8c-0.8,0.6-1.8,0.8-2.5,0.5c-0.5-0.2-0.9-0.7-0.9-1.3
				c0-0.4,0.1-0.7,0.3-0.8c0.1-0.1,0.3-0.1,0.4,0c0.1,0.1,0.1,0.3,0.1,0.4c0,0.3,0.2,0.5,0.5,0.6s0.5-0.2,0.6-0.5
				c0.1-0.6-0.1-1.1-0.6-1.4c-0.4-0.3-1.1-0.3-1.5,0c-0.6,0.4-0.9,1-0.8,1.8c0.1,1,0.7,1.8,1.6,2.2c1.1,0.5,2.6,0.2,3.6-0.7
				c1.3-1.1,1.8-2.9,1.4-4.9c-0.5-2.6-2.8-4.4-5.9-4.8c-0.1,0-0.1,0-0.2,0c-2.8-0.3-6.9,0.8-9.3,4.9c-0.2-0.4-0.5-0.8-0.9-1.1
				c-1.1-0.9-2.4-1.2-3.3-0.6c-1.3,0.8-1.3,2-0.9,2.8c0.4,0.7,1.3,1,2,0.6c0.4-0.2,0.6-0.6,0.6-1c0-0.4-0.2-0.7-0.5-0.8
				c-0.3-0.2-0.7-0.1-1,0.1c-0.2,0.2-0.3,0.5-0.1,0.7c-0.1-0.1-0.1-0.1-0.1-0.1C11.2,7.6,11.2,7,12,6.5c0.5-0.3,1.4-0.1,2,0.5
				c0.5,0.4,0.8,1,1,1.5c-0.5,1.2-0.9,2.4-1.1,3.6c-0.1,0.3-0.1,0.7-0.1,1c-0.3,3.2,0.6,5.8,1.5,7.5c0.3,0.6,0.6,1.1,0.8,1.4
				l7.7,12.8l0.2,0.3c0.1,0.1,0.2,0.3,0.4,0.6c0.2,0.3,0.4,0.7,0.6,1.1c0.2,0.5,0.3,1.1,0.3,1.7c0.2,2.4-1.2,3.8-2.5,4.4
				c-1.2,0.5-2.4,0.3-3-0.5c-0.1-0.1-0.1-0.1-0.1-0.2c0,0,0,0,0,0c0-0.1-0.1-0.1-0.1-0.2c0,0,0,0,0,0c-0.1-0.1-0.1-0.2-0.2-0.4
				c-0.1-0.3-0.1-0.6,0-0.8c0,0,0,0,0,0c0,0,0-0.1,0-0.1c0,0,0,0,0,0c0,0,0-0.1,0-0.1c0.2-0.4,0.5-0.7,0.8-0.7c0,0,0,0,0.1,0
				c0,0,0.1,0,0.1,0c0,0,0,0,0,0c0,0,0.1,0,0.1,0c0,0,0,0,0,0c0,0,0,0,0.1,0c0,0,0.1,0,0.1,0.1c-0.1,0-0.3-0.1-0.4,0c0,0,0,0,0,0
				c0,0,0,0,0,0c0,0-0.1,0-0.1,0c0,0,0,0,0,0c0,0,0,0-0.1,0.1c0,0,0,0,0,0c0,0,0,0,0,0.1c0,0,0,0.1,0,0.1c0,0,0,0.1,0,0.1
				c0,0,0,0,0,0c0,0,0,0,0,0.1c0,0,0,0,0,0c0,0,0,0,0,0c0,0,0,0,0,0v0c0,0,0,0.1,0,0.1c0.2,0.4,0.5,0.6,0.8,0.7
				c0.4,0,0.7-0.2,0.9-0.5c0.2-0.4,0.2-0.9-0.1-1.3c0-0.1-0.1-0.1-0.1-0.2c0,0,0,0,0,0c0,0-0.1-0.1-0.1-0.1c0,0,0,0,0,0
				c0,0-0.1-0.1-0.1-0.1c0,0,0,0,0,0c0,0-0.1-0.1-0.1-0.1c0,0,0,0-0.1,0c0,0-0.1,0-0.1-0.1c0,0-0.1,0-0.1,0c0,0-0.1,0-0.1,0
				c0,0-0.1,0-0.1,0c0,0-0.1,0-0.1,0c0,0,0,0-0.1,0c-0.1,0-0.1,0-0.2,0c-0.7,0.1-1.4,0.6-1.7,1.3c0,0.1,0,0.1-0.1,0.2c0,0,0,0,0,0.1
				c0,0,0,0.1,0,0.1c0,0,0,0,0,0.1c0,0,0,0.1,0,0.1c0,0,0,0.1,0,0.1c0,0,0,0.1,0,0.1c0,0,0,0.1,0,0.1c0,0,0,0.1,0,0.1
				c0,0,0,0.1,0,0.1c0,0,0,0.1,0,0.1c0,0,0,0.1,0,0.1c0,0,0,0,0,0.1c0,0,0,0.1,0,0.1c0,0,0,0,0,0c0,0.2,0.1,0.3,0.1,0.5c0,0,0,0,0,0
				c0,0,0,0.1,0.1,0.1c0,0,0,0,0,0c0,0,0,0.1,0.1,0.1c0,0,0,0,0,0c0,0,0,0.1,0.1,0.1c0,0,0,0,0,0c0,0,0.1,0.1,0.1,0.1c0,0,0,0,0,0
				c0.1,0.1,0.1,0.2,0.2,0.3c0,0.1,0.1,0.1,0.1,0.2c1,1.2,2.6,1.5,4.2,0.8c1.2-0.5,2.5-1.6,3-3.4c0.3,1.4,0.3,2.8,0.1,4.2
				c-0.2,1.2-0.5,2.4-1.1,3.6l0,0.1c-2,4.3-5.9,5.5-8.7,5.2c-2.7-0.3-4.7-1.9-5.1-4c-0.5-2.2,0.4-3.4,1-3.8c0.8-0.6,1.8-0.8,2.5-0.5
				c0.5,0.2,0.9,0.7,0.9,1.3c0,0.4-0.1,0.7-0.3,0.8c-0.1,0.1-0.3,0.1-0.4,0C14.9,47.3,15,47.1,15,47c0-0.3-0.2-0.5-0.5-0.6
				c-0.3,0-0.5,0.2-0.6,0.5c-0.1,0.6,0.1,1.1,0.6,1.4c0.4,0.3,1.1,0.3,1.5,0c0.6-0.4,0.9-1,0.8-1.8c-0.1-1-0.7-1.8-1.6-2.2
				c-1.1-0.5-2.6-0.2-3.6,0.7c-1.3,1.1-1.8,2.9-1.4,4.9c0.5,2.6,2.8,4.4,5.9,4.8c0.1,0,0.1,0,0.2,0c2.8,0.3,6.9-0.8,9.3-4.9
				c0.2,0.4,0.5,0.8,0.9,1.1c1.1,0.9,2.4,1.2,3.3,0.6c1.3-0.8,1.3-2,0.9-2.8C30.2,48,29.3,47.8,28.6,48.2z"/>
		</g>
	</g>
	<g>
		<path class="st0" d="M166.8,40.9h-1.1v-0.7h1.1V40.9z"/>
		<path class="st0" d="M77.5,41.4h-3.5v-0.7h3.5V41.4z"/>
		<g>
			<rect x="65.3" y="13.5" class="st0" width="4" height="22.5"/>
			<polygon class="st0" points="48,19.5 46.9,17.5 44.9,13.5 40.4,13.5 42.4,17.5 51.9,36 54.1,31.6 48,19.5 			"/>
			<polygon class="st0" points="56.8,17.5 54.1,22.7 56.4,27.2 61.3,17.5 63.4,13.5 58.9,13.5 			"/>
			<polygon class="st0" points="216.2,32 206.8,13.5 204.5,17.9 210.6,30 210.6,30 211.7,32 213.7,36 218.3,36 			"/>
			<polygon class="st0" points="197.3,32 195.3,36 199.8,36 201.8,32 204.5,26.7 202.2,22.3 			"/>
			<polygon class="st0" points="91.1,27.8 76.6,16.7 72.6,13.6 72.6,36 76.6,36 76.6,21.8 91.1,33 95.1,36 95.1,13.5 91.1,13.5 			
				"/>
			<path class="st0" d="M167.6,24.7c0,4-3.3,7.2-7.2,7.2c-4,0-7.2-3.3-7.2-7.2V13.5h-4v11.3c0,6.2,5.1,11.3,11.3,11.3
				c6.2,0,11.3-5.1,11.3-11.3V13.5h-4V24.7z"/>
			<path class="st0" d="M178.9,29.3V13.5h-4v15.4c0,1.1,0.3,2.2,0.7,3.2c0.7,1.4,1.8,2.6,3.3,3.3c1,0.5,2,0.7,3.2,0.7h11.4v-4
				l-11.8,0C180.2,31.8,179,30.7,178.9,29.3z"/>
			<path class="st0" d="M143.4,22.8c0.6-0.9,1-2.1,1-3.3c0-3.3-2.7-6.1-6.1-6.1h-14.2v4h14.3c1.1,0,2.1,0.9,2.1,2.1
				c0,1.1-0.9,2.1-2.1,2.1h-18.4v4h19.6c1.7,0,3.2,1.4,3.2,3.2c0,1.7-1.4,3.2-3.2,3.2v0h-15.4v4h15.4c4,0,7.2-3.2,7.2-7.2
				C146.6,26.3,145.4,24.1,143.4,22.8z"/>
			<path class="st0" d="M102.4,29.9V27v-1.3h6h8.5v-4h-14.5v0h-4v4V27v2.9c0,3.3,2.7,6.1,6.1,6.1h16.5v-4h-16.5
				C103.3,32,102.4,31.1,102.4,29.9z"/>
			<polygon class="st0" points="120.9,17.5 120.9,13.5 102.4,13.5 98.4,13.5 98.4,17.5 102.4,17.5 			"/>
		</g>
		<g>
			<path class="st0" d="M68.3,41.4l-0.5,0.9l-2.1,4.1l-2.1-4.1l-0.5-0.9h1l0.5,0.9l1.1,2.1l1.1-2.1l0.5-0.9H68.3z"/>
			<path class="st0" d="M69.8,46.4v-5h0.9v5H69.8z"/>
			<path class="st0" d="M77.5,42.2v4.2l-0.9-0.7l-3.2-2.5v3.2h-0.9v-5l0.9,0.7l3.2,2.5v-2.4L77.5,42.2z"/>
			<path class="st0" d="M80.1,42.8v0.5h3.2v0.9h-3.2V45c0,0.2,0.2,0.5,0.5,0.5h3.6v0.9h-3.6c-0.7,0-1.3-0.6-1.3-1.3v-2.3
				c0-0.7,0.6-1.3,1.3-1.3h3.6v0.9h-3.6C80.3,42.3,80.1,42.5,80.1,42.8z"/>
			<path class="st0" d="M88.5,41.4c1.4,0,2.5,1.1,2.5,2.5c0,0.6-0.2,1.2-0.6,1.6c0,0-0.1,0.1-0.1,0.1c-0.4,0.5-1.1,0.7-1.8,0.7H86
				v-5L88.5,41.4z M86.9,45.5h1.6c0.9,0,1.6-0.7,1.6-1.6c0-0.9-0.7-1.6-1.6-1.6h-1.6V45.5z"/>
			<path class="st0" d="M97.6,43.9c0,1.4-1.1,2.5-2.5,2.5c-1.4,0-2.5-1.1-2.5-2.5c0-1.4,1.1-2.5,2.5-2.5
				C96.4,41.4,97.6,42.5,97.6,43.9z M96.7,43.9c0-0.9-0.7-1.6-1.6-1.6c-0.9,0-1.6,0.7-1.6,1.6c0,0.9,0.7,1.6,1.6,1.6
				C95.9,45.5,96.7,44.8,96.7,43.9z"/>
			<path class="st0" d="M106.2,41.4c1.4,0,2.5,1.1,2.5,2.5c0,0.6-0.2,1.2-0.6,1.6c0,0-0.1,0.1-0.1,0.1c-0.4,0.5-1.1,0.7-1.8,0.7
				h-2.5v-5L106.2,41.4z M104.6,45.5h1.6c0.9,0,1.6-0.7,1.6-1.6c0-0.9-0.7-1.6-1.6-1.6h-1.6V45.5z"/>
			<path class="st0" d="M111.3,42.8v0.5h3.2v0.9h-3.2V45c0,0.2,0.2,0.5,0.5,0.5h3.6v0.9h-3.6c-0.7,0-1.3-0.6-1.3-1.3v-2.3
				c0-0.7,0.6-1.3,1.3-1.3h3.6v0.9h-3.6C111.5,42.3,111.3,42.5,111.3,42.8z"/>
			<path class="st0" d="M126.7,41.4v2.5c0,1.4-1.1,2.5-2.5,2.5c-1.4,0-2.5-1.1-2.5-2.5v-2.5h0.9v2.5c0,0.9,0.7,1.6,1.6,1.6
				c0.9,0,1.6-0.7,1.6-1.6v-2.5H126.7z"/>
			<path class="st0" d="M133.3,41.4l-0.5,0.9l-2.1,4.1l-2.1-4.1l-0.5-0.9h1l0.5,0.9l1.1,2.1l1.1-2.1l0.5-0.9H133.3z"/>
			<path class="st0" d="M138.1,46.4h-1l-0.5-0.9l-1.1-2.1l-1.1,2.1l-0.5,0.9h-1l0.5-0.9l2.1-4.1l2.1,4.1L138.1,46.4z"/>
			<path class="st0" d="M143,42.8L143,42.8c0-0.3-0.2-0.5-0.5-0.5h-2c-0.2,0-0.5,0.2-0.5,0.5v0c0,0.2,0.2,0.5,0.5,0.5h1.8
				c0.5,0,0.9,0.2,1.2,0.5c0,0,0,0,0.1,0.1c0.2,0.3,0.4,0.6,0.4,1c0,0.9-0.7,1.6-1.6,1.6h-1.6c-0.9,0-1.6-0.7-1.6-1.6h0.9
				c0,0.4,0.3,0.7,0.7,0.7h1.6c0.4,0,0.7-0.3,0.7-0.7c0-0.4-0.3-0.7-0.7-0.7h-1.8c-0.4,0-0.7-0.1-0.9-0.4c-0.1-0.1-0.1-0.1-0.2-0.2
				c-0.1-0.2-0.2-0.5-0.2-0.8v0c0-0.7,0.6-1.3,1.3-1.3h2c0.7,0,1.3,0.6,1.3,1.3v0L143,42.8z"/>
			<path class="st0" d="M151.1,42.8v0.5h3.2v0.9h-3.2V45c0,0.2,0.2,0.5,0.5,0.5h3.6v0.9h-3.6c-0.7,0-1.3-0.6-1.3-1.3v-2.3
				c0-0.7,0.6-1.3,1.3-1.3h3.6v0.9h-3.6C151.3,42.3,151.1,42.5,151.1,42.8z"/>
			<path class="st0" d="M156.8,46.4L156.8,46.4L156.8,46.4L156.8,46.4z M161.8,41.4l-1.9,2.5l1.9,2.5h-1.1l-1.4-1.8l-1.4,1.8h-1.1
				l1.9-2.5l-1.9-2.5h1.1l1.4,1.8l1.4-1.8H161.8L161.8,41.4z M161.8,46.4L161.8,46.4L161.8,46.4L161.8,46.4z"/>
			<path class="st0" d="M167.5,43.9c0,1.4-1.1,2.5-2.5,2.5c-1.4,0-2.5-1.1-2.5-2.5c0-1.4,1.1-2.5,2.5-2.5
				C166.4,41.4,167.5,42.5,167.5,43.9z M166.6,43.9c0-0.9-0.7-1.6-1.6-1.6s-1.6,0.7-1.6,1.6c0,0.9,0.7,1.6,1.6,1.6
				S166.6,44.8,166.6,43.9z"/>
			<path class="st0" d="M173.6,41.4v0.9h-2v4.1h-0.9v-4.1h-2v-0.9H173.6z"/>
			<path class="st0" d="M175.4,46.4v-5h0.9v5H175.4z"/>
			<path class="st0" d="M178.9,43.9c0,0.9,0.7,1.6,1.6,1.6h2.5v0.9h-2.5c-1.4,0-2.5-1.1-2.5-2.5c0-1.4,1.1-2.5,2.5-2.5h2.5v0.9h-2.5
				C179.6,42.3,178.9,43,178.9,43.9z"/>
			<path class="st0" d="M189.6,46.4h-1l-0.5-0.9l-1.1-2.1l-1.1,2.1l-0.5,0.9h-1l0.5-0.9l2.1-4.1l2.1,4.1L189.6,46.4z"/>
			<path class="st0" d="M194.5,42.8L194.5,42.8c0-0.3-0.2-0.5-0.5-0.5h-2c-0.2,0-0.5,0.2-0.5,0.5v0c0,0.2,0.2,0.5,0.5,0.5h1.8
				c0.5,0,0.9,0.2,1.2,0.5c0,0,0,0,0.1,0.1c0.2,0.3,0.4,0.6,0.4,1c0,0.9-0.7,1.6-1.6,1.6h-1.6c-0.9,0-1.6-0.7-1.6-1.6h0.9
				c0,0.4,0.3,0.7,0.7,0.7h1.6c0.4,0,0.7-0.3,0.7-0.7c0-0.4-0.3-0.7-0.7-0.7H192c-0.4,0-0.7-0.1-0.9-0.4c-0.1-0.1-0.1-0.1-0.2-0.2
				c-0.1-0.2-0.2-0.5-0.2-0.8v0c0-0.7,0.6-1.3,1.3-1.3h2c0.7,0,1.3,0.6,1.3,1.3v0L194.5,42.8z"/>
		</g>
		<path class="st0" d="M56.1,44.3h-6.5v-0.7h6.5V44.3z"/>
		<path class="st0" d="M210.5,44.3H204v-0.7h6.5V44.3z"/>
	</g>
</g>
</svg>
